  0
SECTION
  2
HEADER
  9
$ACADVER
  1
AC1014
  9
$ACADMAINTVER
 70
     9
  9
$DWGCODEPAGE
  3
ANSI_932
  9
$INSBASE
 10
0.0
 20
0.0
 30
0.0
  9
$EXTMIN
 10
1.000000000000000E+20
 20
1.000000000000000E+20
 30
1.000000000000000E+20
  9
$EXTMAX
 10
-1.000000000000000E+20
 20
-1.000000000000000E+20
 30
-1.000000000000000E+20
  9
$LIMMIN
 10
0.0
 20
0.0
  9
$LIMMAX
 10
12.0
 20
9.0
  9
$ORTHOMODE
 70
     0
  9
$REGENMODE
 70
     1
  9
$FILLMODE
 70
     1
  9
$QTEXTMODE
 70
     0
  9
$MIRRTEXT
 70
     1
  9
$DRAGMODE
 70
     2
  9
$LTSCALE
 40
1.0
  9
$OSMODE
 70
    37
  9
$ATTMODE
 70
     1
  9
$TEXTSIZE
 40
0.2
  9
$TRACEWID
 40
0.05
  9
$TEXTSTYLE
  7
STANDARD
  9
$CLAYER
  8
0
  9
$CELTYPE
  6
BYLAYER
  9
$CECOLOR
 62
   256
  9
$CELTSCALE
 40
1.0
  9
$DELOBJ
 70
     1
  9
$DISPSILH
 70
     0
  9
$DIMSCALE
 40
1.0
  9
$DIMASZ
 40
0.18
  9
$DIMEXO
 40
0.0625
  9
$DIMDLI
 40
0.38
  9
$DIMRND
 40
0.0
  9
$DIMDLE
 40
0.0
  9
$DIMEXE
 40
0.18
  9
$DIMTP
 40
0.0
  9
$DIMTM
 40
0.0
  9
$DIMTXT
 40
0.18
  9
$DIMCEN
 40
0.09
  9
$DIMTSZ
 40
0.0
  9
$DIMTOL
 70
     0
  9
$DIMLIM
 70
     0
  9
$DIMTIH
 70
     1
  9
$DIMTOH
 70
     1
  9
$DIMSE1
 70
     0
  9
$DIMSE2
 70
     0
  9
$DIMTAD
 70
     0
  9
$DIMZIN
 70
     0
  9
$DIMBLK
  1

  9
$DIMASO
 70
     1
  9
$DIMSHO
 70
     1
  9
$DIMPOST
  1

  9
$DIMAPOST
  1

  9
$DIMALT
 70
     0
  9
$DIMALTD
 70
     2
  9
$DIMALTF
 40
25.4
  9
$DIMLFAC
 40
1.0
  9
$DIMTOFL
 70
     0
  9
$DIMTVP
 40
0.0
  9
$DIMTIX
 70
     0
  9
$DIMSOXD
 70
     0
  9
$DIMSAH
 70
     0
  9
$DIMBLK1
  1

  9
$DIMBLK2
  1

  9
$DIMSTYLE
  2
STANDARD
  9
$DIMCLRD
 70
     0
  9
$DIMCLRE
 70
     0
  9
$DIMCLRT
 70
     0
  9
$DIMTFAC
 40
1.0
  9
$DIMGAP
 40
0.09
  9
$DIMJUST
 70
     0
  9
$DIMSD1
 70
     0
  9
$DIMSD2
 70
     0
  9
$DIMTOLJ
 70
     1
  9
$DIMTZIN
 70
     0
  9
$DIMALTZ
 70
     0
  9
$DIMALTTZ
 70
     0
  9
$DIMFIT
 70
     3
  9
$DIMUPT
 70
     0
  9
$DIMUNIT
 70
     2
  9
$DIMDEC
 70
     4
  9
$DIMTDEC
 70
     4
  9
$DIMALTU
 70
     2
  9
$DIMALTTD
 70
     2
  9
$DIMTXSTY
  7
STANDARD
  9
$DIMAUNIT
 70
     0
  9
$LUNITS
 70
     2
  9
$LUPREC
 70
     4
  9
$SKETCHINC
 40
0.1
  9
$FILLETRAD
 40
0.5
  9
$AUNITS
 70
     0
  9
$AUPREC
 70
     0
  9
$MENU
  1
.
  9
$ELEVATION
 40
0.0
  9
$PELEVATION
 40
0.0
  9
$THICKNESS
 40
0.0
  9
$LIMCHECK
 70
     0
  9
$CHAMFERA
 40
0.5
  9
$CHAMFERB
 40
0.5
  9
$CHAMFERC
 40
1.0
  9
$CHAMFERD
 40
0.0
  9
$SKPOLY
 70
     0
  9
$TDCREATE
 40
2456736.896261574
  9
$TDUPDATE
 40
2456736.896261586
  9
$TDINDWG
 40
0.0000000116
  9
$TDUSRTIMER
 40
0.0000000116
  9
$USRTIMER
 70
     1
  9
$ANGBASE
 50
0.0
  9
$ANGDIR
 70
     0
  9
$PDMODE
 70
     0
  9
$PDSIZE
 40
0.0
  9
$PLINEWID
 40
0.0
  9
$COORDS
 70
     1
  9
$SPLFRAME
 70
     0
  9
$SPLINETYPE
 70
     6
  9
$SPLINESEGS
 70
     8
  9
$ATTDIA
 70
     0
  9
$ATTREQ
 70
     1
  9
$HANDLING
 70
     1
  9
$HANDSEED
  5
BE
  9
$SURFTAB1
 70
     6
  9
$SURFTAB2
 70
     6
  9
$SURFTYPE
 70
     6
  9
$SURFU
 70
     6
  9
$SURFV
 70
     6
  9
$UCSNAME
  2

  9
$UCSORG
 10
0.0
 20
0.0
 30
0.0
  9
$UCSXDIR
 10
1.0
 20
0.0
 30
0.0
  9
$UCSYDIR
 10
0.0
 20
1.0
 30
0.0
  9
$PUCSNAME
  2

  9
$PUCSORG
 10
0.0
 20
0.0
 30
0.0
  9
$PUCSXDIR
 10
1.0
 20
0.0
 30
0.0
  9
$PUCSYDIR
 10
0.0
 20
1.0
 30
0.0
  9
$USERI1
 70
     0
  9
$USERI2
 70
     0
  9
$USERI3
 70
     0
  9
$USERI4
 70
     0
  9
$USERI5
 70
     0
  9
$USERR1
 40
0.0
  9
$USERR2
 40
0.0
  9
$USERR3
 40
0.0
  9
$USERR4
 40
0.0
  9
$USERR5
 40
0.0
  9
$WORLDVIEW
 70
     1
  9
$SHADEDGE
 70
     3
  9
$SHADEDIF
 70
    70
  9
$TILEMODE
 70
     1
  9
$MAXACTVP
 70
    64
  9
$PINSBASE
 10
0.0
 20
0.0
 30
0.0
  9
$PLIMCHECK
 70
     0
  9
$PEXTMIN
 10
1.000000000000000E+20
 20
1.000000000000000E+20
 30
1.000000000000000E+20
  9
$PEXTMAX
 10
-1.000000000000000E+20
 20
-1.000000000000000E+20
 30
-1.000000000000000E+20
  9
$PLIMMIN
 10
0.0
 20
0.0
  9
$PLIMMAX
 10
12.0
 20
9.0
  9
$UNITMODE
 70
     0
  9
$VISRETAIN
 70
     1
  9
$PLINEGEN
 70
     0
  9
$PSLTSCALE
 70
     1
  9
$TREEDEPTH
 70
  3020
  9
$PICKSTYLE
 70
     1
  9
$CMLSTYLE
  2
STANDARD
  9
$CMLJUST
 70
     0
  9
$CMLSCALE
 40
1.0
  9
$PROXYGRAPHICS
 70
     1
  9
$MEASUREMENT
 70
     0
  0
ENDSEC
  0
SECTION
  2
CLASSES
  0
CLASS
  1
ACDBDICTIONARYWDFLT
  2
AcDbDictionaryWithDefault
  3
ObjectDBX Classes
 90
        0
280
     0
281
     0
  0
CLASS
  1
VISUALSTYLE
  2
AcDbVisualStyle
  3
ObjectDBX Classes
 90
     4095
280
     0
281
     0
  0
CLASS
  1
XRECORD
  2
AcDbXrecord
  3
AutoCAD 2000
 90
        0
280
     0
281
     0
  0
CLASS
  1
LWPOLYLINE
  2
AcDbPolyline
  3
AutoCAD 2000
 90
        0
280
     0
281
     1
  0
CLASS
  1
HATCH
  2
AcDbHatch
  3
AutoCAD 2000
 90
        0
280
     0
281
     1
  0
CLASS
  1
ACDBPLACEHOLDER
  2
AcDbPlaceHolder
  3
ObjectDBX Classes
 90
        0
280
     0
281
     0
  0
CLASS
  1
LAYOUT
  2
AcDbLayout
  3
ObjectDBX Classes
 90
        0
280
     0
281
     0
  0
ENDSEC
  0
SECTION
  2
TABLES
  0
TABLE
  2
VPORT
  5
8
330
0
100
AcDbSymbolTable
 70
     1
  0
VPORT
  5
29
330
8
100
AcDbSymbolTableRecord
100
AcDbViewportTableRecord
  2
*ACTIVE
 70
     0
 10
0.0
 20
0.0
 11
1.0
 21
1.0
 12
0.0
 22
0.0
 13
0.0
 23
0.0
 14
0.5
 24
0.5
 15
0.5
 25
0.5
 16
0.0
 26
0.0
 36
1.0
 17
1.5
 27
1.5
 37
0.0
 40
3.0
 41
1.0
 42
50.0
 43
0.0
 44
0.0
 50
0.0
 51
0.0
 71
     0
 72
   100
 73
     1
 74
     3
 75
     0
 76
     0
 77
     0
 78
     0
  0
ENDTAB
  0
TABLE
  2
LTYPE
  5
5
330
0
100
AcDbSymbolTable
 70
     1
  0
LTYPE
  5
14
330
5
100
AcDbSymbolTableRecord
100
AcDbLinetypeTableRecord
  2
BYBLOCK
 70
     0
  3

 72
    65
 73
     0
 40
0.0
  0
LTYPE
  5
15
330
5
100
AcDbSymbolTableRecord
100
AcDbLinetypeTableRecord
  2
BYLAYER
 70
     0
  3

 72
    65
 73
     0
 40
0.0
  0
LTYPE
  5
16
330
5
100
AcDbSymbolTableRecord
100
AcDbLinetypeTableRecord
  2
CONTINUOUS
 70
     0
  3
Solid line
 72
    65
 73
     0
 40
0.0
  0
ENDTAB
  0
TABLE
  2
LAYER
  5
2
330
0
100
AcDbSymbolTable
 70
     2
  0
LAYER
  5
10
330
2
100
AcDbSymbolTableRecord
100
AcDbLayerTableRecord
  2
0
 70
     0
 62
     7
  6
CONTINUOUS
  0
LAYER
  5
3B
330
2
100
AcDbSymbolTableRecord
100
AcDbLayerTableRecord
  2
LAYER_1
 70
     0
 62
     7
  6
CONTINUOUS
  0
ENDTAB
  0
TABLE
  2
STYLE
  5
3
330
0
100
AcDbSymbolTable
 70
     1
  0
STYLE
  5
11
330
3
100
AcDbSymbolTableRecord
100
AcDbTextStyleTableRecord
  2
STANDARD
 70
     0
 40
0.0
 41
1.0
 50
0.0
 71
     0
 42
0.2
  3
txt
  4

  0
ENDTAB
  0
TABLE
  2
VIEW
  5
6
330
0
100
AcDbSymbolTable
 70
     0
  0
ENDTAB
  0
TABLE
  2
UCS
  5
7
330
0
100
AcDbSymbolTable
 70
     0
  0
ENDTAB
  0
TABLE
  2
APPID
  5
9
330
0
100
AcDbSymbolTable
 70
     1
  0
APPID
  5
12
330
9
100
AcDbSymbolTableRecord
100
AcDbRegAppTableRecord
  2
ACAD
 70
     0
  0
ENDTAB
  0
TABLE
  2
DIMSTYLE
  5
A
330
0
100
AcDbSymbolTable
 70
     1
  0
DIMSTYLE
105
27
330
A
100
AcDbSymbolTableRecord
100
AcDbDimStyleTableRecord
  2
STANDARD
 70
     0
  3

  4

  5

  6

  7

 40
1.0
 41
0.18
 42
0.0625
 43
0.38
 44
0.18
 45
0.0
 46
0.0
 47
0.0
 48
0.0
140
0.18
141
0.09
142
0.0
143
25.4
144
1.0
145
0.0
146
1.0
147
0.09
 71
     0
 72
     0
 73
     1
 74
     1
 75
     0
 76
     0
 77
     0
 78
     0
170
     0
171
     2
172
     0
173
     0
174
     0
175
     0
176
     0
177
     0
178
     0
270
     2
271
     4
272
     4
273
     2
274
     2
340
11
275
     0
280
     0
281
     0
282
     0
283
     1
284
     0
285
     0
286
     0
287
     3
288
     0
  0
ENDTAB
  0
TABLE
  2
BLOCK_RECORD
  5
1
330
0
100
AcDbSymbolTable
 70
     1
  0
BLOCK_RECORD
  5
1F
330
1
100
AcDbSymbolTableRecord
100
AcDbBlockTableRecord
  2
*MODEL_SPACE
  0
BLOCK_RECORD
  5
1B
330
1
100
AcDbSymbolTableRecord
100
AcDbBlockTableRecord
  2
*PAPER_SPACE
  0
ENDTAB
  0
ENDSEC
  0
SECTION
  2
BLOCKS
  0
BLOCK
  5
20
330
1F
100
AcDbEntity
  8
0
100
AcDbBlockBegin
  2
*MODEL_SPACE
 70
     0
 71
     0
 10
0.0
 20
0.0
 30
0.0
  3
*MODEL_SPACE
  1

  0
ENDBLK
  5
21
330
1F
100
AcDbEntity
  8
0
100
AcDbBlockEnd
  0
BLOCK
  5
1C
330
1B
100
AcDbEntity
 67
     1
  8
0
100
AcDbBlockBegin
  2
*PAPER_SPACE
 70
     0
 71
     0
 10
0.0
 20
0.0
 30
0.0
  3
*PAPER_SPACE
  1

  0
ENDBLK
  5
1D
330
1B
100
AcDbEntity
 67
     1
  8
0
100
AcDbBlockEnd
  0
ENDSEC
  0
SECTION
  2
ENTITIES
  0
SPLINE
  5
3C
330
1F
100
AcDbEntity
  8
LAYER_1
100
AcDbSpline
210
0.0
220
0.0
230
1.0
 70
     8
 71
     3
 72
     8
 73
     4
 74
     0
 42
0.0000000001
 43
0.0000000001
 40
0.0
 40
0.0
 40
0.0
 40
0.0
 40
1.0
 40
1.0
 40
1.0
 40
1.0
 10
1.357096354166667
 20
1.050876193576389
 30
0.0
 10
1.344536675347222
 20
1.049899631076389
 30
0.0
 10
1.332112630208333
 20
1.048800998263889
 30
0.0
 10
1.319817437065972
 20
1.047580295138889
 30
0.0
  0
SPLINE
  5
3D
330
1F
100
AcDbEntity
  8
LAYER_1
100
AcDbSpline
210
0.0
220
0.0
230
1.0
 70
     8
 71
     3
 72
    11
 73
     7
 74
     0
 42
0.0000000001
 43
0.0000000001
 40
0.0
 40
0.0
 40
0.0
 40
0.0
 40
1.0
 40
1.0
 40
1.0
 40
2.0
 40
2.0
 40
2.0
 40
2.0
 10
1.518310546875
 20
1.056722005208333
 30
0.0
 10
1.515462239583333
 20
1.056735568576389
 30
0.0
 10
1.51263427734375
 20
1.056803385416667
 30
0.0
 10
1.509765625
 20
1.056803385416667
 30
0.0
 10
1.500352647569444
 20
1.056803385416667
 30
0.0
 10
1.49102783203125
 20
1.056681315104167
 30
0.0
 10
1.481703016493056
 20
1.056559244791667
 30
0.0
  0
SPLINE
  5
3E
330
1F
100
AcDbEntity
  8
LAYER_1
100
AcDbSpline
210
0.0
220
0.0
230
1.0
 70
     8
 71
     3
 72
     8
 73
     4
 74
     0
 42
0.0000000001
 43
0.0000000001
 40
0.0
 40
0.0
 40
0.0
 40
0.0
 40
1.0
 40
1.0
 40
1.0
 40
1.0
 10
1.680202907986111
 20
1.049452039930556
 30
0.0
 10
1.667914496527778
 20
1.050523546006944
 30
0.0
 10
1.655476888020833
 20
1.051472981770833
 30
0.0
 10
1.642930772569444
 20
1.052313910590278
 30
0.0
  0
SPLINE
  5
3F
330
1F
100
AcDbEntity
  8
LAYER_1
100
AcDbSpline
210
0.0
220
0.0
230
1.0
 70
     8
 71
     3
 72
    20
 73
    16
 74
     0
 42
0.0000000001
 43
0.0000000001
 40
0.0
 40
0.0
 40
0.0
 40
0.0
 40
1.0
 40
1.0
 40
1.0
 40
2.0
 40
2.0
 40
2.0
 40
3.0
 40
3.0
 40
3.0
 40
4.0
 40
4.0
 40
4.0
 40
5.0
 40
5.0
 40
5.0
 40
5.0
 10
1.201483832465278
 20
1.031751844618056
 30
0.0
 10
0.9699639214409722
 20
0.9918619791666666
 30
0.0
 10
0.8105943467881944
 20
0.9085015190972222
 30
0.0
 10
0.8105943467881944
 20
0.8120930989583333
 30
0.0
 10
0.8105943467881944
 20
0.6769476996527778
 30
0.0
 10
1.123609754774306
 20
0.567409939236111
 30
0.0
 10
1.509765625
 20
0.567409939236111
 30
0.0
 10
1.895887586805555
 20
0.567409939236111
 30
0.0
 10
2.208916558159722
 20
0.6769476996527778
 30
0.0
 10
2.208916558159722
 20
0.8120930989583333
 30
0.0
 10
2.208916558159722
 20
0.9112277560763888
 30
0.0
 10
2.0404052734375
 20
0.9965277777777777
 30
0.0
 10
1.798258463541667
 20
1.034979926215278
 30
0.0
 10
1.798258463541667
 20
1.034979926215278
 30
0.0
 10
1.798258463541667
 20
1.034044053819444
 30
0.0
 10
1.798258463541667
 20
1.034044053819444
 30
0.0
  0
SPLINE
  5
40
330
1F
100
AcDbEntity
  8
LAYER_1
100
AcDbSpline
210
0.0
220
0.0
230
1.0
 70
    11
 71
     3
 72
    20
 73
    16
 74
     0
 42
0.0000000001
 43
0.0000000001
 40
0.0
 40
0.0
 40
0.0
 40
0.0
 40
1.0
 40
1.0
 40
1.0
 40
2.0
 40
2.0
 40
2.0
 40
3.0
 40
3.0
 40
3.0
 40
4.0
 40
4.0
 40
4.0
 40
5.0
 40
5.0
 40
5.0
 40
5.0
 10
0.711086697048611
 20
1.512234157986111
 30
0.0
 10
0.711086697048611
 20
1.512234157986111
 30
0.0
 10
0.6909044053819444
 20
1.441921657986111
 30
0.0
 10
0.6909044053819444
 20
1.441921657986111
 30
0.0
 10
0.6909044053819444
 20
1.441921657986111
 30
0.0
 10
0.6856553819444444
 20
1.41650390625
 30
0.0
 10
0.7095947265625
 20
1.412000868055556
 30
0.0
 10
0.7346055772569444
 20
1.412489149305556
 30
0.0
 10
0.7325575086805555
 20
1.435872395833333
 30
0.0
 10
0.7308078342013888
 20
1.443467881944444
 30
0.0
 10
0.7308078342013888
 20
1.443467881944444
 30
0.0
 10
0.711086697048611
 20
1.512234157986111
 30
0.0
 10
0.711086697048611
 20
1.512234157986111
 30
0.0
 10
0.711086697048611
 20
1.512234157986111
 30
0.0
 10
0.711086697048611
 20
1.512234157986111
 30
0.0
 10
0.711086697048611
 20
1.512234157986111
 30
0.0
  0
POLYLINE
  5
41
330
1F
100
AcDbEntity
  8
LAYER_1
100
AcDb2dPolyline
 66
     1
 10
0.0
 20
0.0
 30
0.0
  0
VERTEX
  5
42
330
41
100
AcDbEntity
  8
LAYER_1
100
AcDbVertex
100
AcDb2dVertex
 10
0.711086697048611
 20
1.512234157986111
 30
0.0
  0
VERTEX
  5
8C
330
41
100
AcDbEntity
  8
0
100
AcDbVertex
100
AcDb2dVertex
 10
0.711086697048611
 20
1.512234157986111
 30
0.0
  0
SEQEND
  5
43
330
41
100
AcDbEntity
  8
LAYER_1
  0
SPLINE
  5
44
330
1F
100
AcDbEntity
  8
LAYER_1
100
AcDbSpline
210
0.0
220
0.0
230
1.0
 70
     8
 71
     3
 72
   113
 73
   109
 74
     0
 42
0.0000000001
 43
0.0000000001
 40
0.0
 40
0.0
 40
0.0
 40
0.0
 40
1.0
 40
1.0
 40
1.0
 40
2.0
 40
2.0
 40
2.0
 40
3.0
 40
3.0
 40
3.0
 40
4.0
 40
4.0
 40
4.0
 40
5.0
 40
5.0
 40
5.0
 40
6.0
 40
6.0
 40
6.0
 40
7.0
 40
7.0
 40
7.0
 40
8.0
 40
8.0
 40
8.0
 40
9.0
 40
9.0
 40
9.0
 40
10.0
 40
10.0
 40
10.0
 40
11.0
 40
11.0
 40
11.0
 40
12.0
 40
12.0
 40
12.0
 40
13.0
 40
13.0
 40
13.0
 40
14.0
 40
14.0
 40
14.0
 40
15.0
 40
15.0
 40
15.0
 40
16.0
 40
16.0
 40
16.0
 40
17.0
 40
17.0
 40
17.0
 40
18.0
 40
18.0
 40
18.0
 40
19.0
 40
19.0
 40
19.0
 40
20.0
 40
20.0
 40
20.0
 40
21.0
 40
21.0
 40
21.0
 40
22.0
 40
22.0
 40
22.0
 40
23.0
 40
23.0
 40
23.0
 40
24.0
 40
24.0
 40
24.0
 40
25.0
 40
25.0
 40
25.0
 40
26.0
 40
26.0
 40
26.0
 40
27.0
 40
27.0
 40
27.0
 40
28.0
 40
28.0
 40
28.0
 40
29.0
 40
29.0
 40
29.0
 40
30.0
 40
30.0
 40
30.0
 40
31.0
 40
31.0
 40
31.0
 40
32.0
 40
32.0
 40
32.0
 40
33.0
 40
33.0
 40
33.0
 40
34.0
 40
34.0
 40
34.0
 40
35.0
 40
35.0
 40
35.0
 40
36.0
 40
36.0
 40
36.0
 40
36.0
 10
1.798258463541667
 20
1.015611436631944
 30
0.0
 10
1.798258463541667
 20
1.015611436631944
 30
0.0
 10
1.798258463541667
 20
1.316026475694444
 30
0.0
 10
1.798258463541667
 20
1.316026475694444
 30
0.0
 10
1.798258463541667
 20
1.433539496527778
 30
0.0
 10
1.748779296875
 20
1.495768229166667
 30
0.0
 10
1.700385199652778
 20
1.528618706597222
 30
0.0
 10
1.982476128472222
 20
1.556586371527778
 30
0.0
 10
2.117838541666667
 20
1.647677951388889
 30
0.0
 10
2.180202907986111
 20
1.789198133680555
 30
0.0
 10
2.303765190972222
 20
1.785807291666667
 30
0.0
 10
2.526123046875
 20
1.770751953125
 30
0.0
 10
2.738823784722222
 20
1.710747612847222
 30
0.0
 10
2.738823784722222
 20
1.710747612847222
 30
0.0
 10
2.741346571180555
 20
1.719699435763889
 30
0.0
 10
2.741346571180555
 20
1.719699435763889
 30
0.0
 10
2.529866536458333
 20
1.779351128472222
 30
0.0
 10
2.308973524305555
 20
1.794786241319444
 30
0.0
 10
2.184163411458333
 20
1.798421223958333
 30
0.0
 10
2.190077039930555
 20
1.812717013888889
 30
0.0
 10
2.195231119791667
 20
1.827582465277778
 30
0.0
 10
2.199815538194444
 20
1.842881944444444
 30
0.0
 10
2.326280381944444
 20
1.848280164930555
 30
0.0
 10
2.537706163194444
 20
1.848225911458333
 30
0.0
 10
2.743625217013889
 20
1.807047526041667
 30
0.0
 10
2.743625217013889
 20
1.807047526041667
 30
0.0
 10
2.745469835069444
 20
1.816189236111111
 30
0.0
 10
2.745469835069444
 20
1.816189236111111
 30
0.0
 10
2.540364583333333
 20
1.857204861111111
 30
0.0
 10
2.329888237847222
 20
1.857611762152778
 30
0.0
 10
2.202555338541667
 20
1.852322048611111
 30
0.0
 10
2.223470052083333
 20
1.927680121527778
 30
0.0
 10
2.229763454861111
 20
2.014397515190972
 30
0.0
 10
2.229763454861111
 20
2.111104329427083
 30
0.0
 10
2.229763454861111
 20
2.249803331163194
 30
0.0
 10
2.177652994791667
 20
2.360758463541667
 30
0.0
 10
2.093071831597222
 20
2.4451904296875
 30
0.0
 10
2.107855902777778
 20
2.492906358506944
 30
0.0
 10
2.127604166666667
 20
2.598883734809028
 30
0.0
 10
2.073350694444444
 20
2.734544542100694
 30
0.0
 10
2.073350694444444
 20
2.734544542100694
 30
0.0
 10
1.977647569444444
 20
2.764933268229167
 30
0.0
 10
1.761176215277778
 20
2.620049370659722
 30
0.0
 10
1.676378038194444
 20
2.641242133246528
 30
0.0
 10
1.586127387152778
 20
2.651706271701389
 30
0.0
 10
1.495734320746528
 20
2.651706271701389
 30
0.0
 10
1.396287706163194
 20
2.651706271701389
 30
0.0
 10
1.295810275607639
 20
2.639044867621528
 30
0.0
 10
1.20208740234375
 20
2.613335503472222
 30
0.0
 10
0.978664822048611
 20
2.765767415364583
 30
0.0
 10
0.8800455729166666
 20
2.734544542100694
 30
0.0
 10
0.8800455729166666
 20
2.734544542100694
 30
0.0
 10
0.8156602647569444
 20
2.573574490017361
 30
0.0
 10
0.85546875
 20
2.454386393229167
 30
0.0
 10
0.8675672743055555
 20
2.424784342447917
 30
0.0
 10
0.791897243923611
 20
2.343132866753472
 30
0.0
 10
0.7457004123263888
 20
2.238898383246528
 30
0.0
 10
0.7457004123263888
 20
2.111104329427083
 30
0.0
 10
0.7457004123263888
 20
2.014628092447917
 30
0.0
 10
0.7567003038194444
 20
1.928087022569444
 30
0.0
 10
0.7835286458333333
 20
1.852864583333333
 30
0.0
 10
0.6551106770833333
 20
1.857530381944444
 30
0.0
 10
0.4522976345486111
 20
1.855740017361111
 30
0.0
 10
0.2545166015625
 20
1.816189236111111
 30
0.0
 10
0.2545166015625
 20
1.816189236111111
 30
0.0
 10
0.25634765625
 20
1.807047526041667
 30
0.0
 10
0.25634765625
 20
1.807047526041667
 30
0.0
 10
0.4553087022569444
 20
1.846842447916667
 30
0.0
 10
0.6593831380208333
 20
1.848225911458333
 30
0.0
 10
0.7870279947916666
 20
1.843397352430555
 30
0.0
 10
0.7929416232638888
 20
1.827826605902778
 30
0.0
 10
0.7995198567708333
 20
1.812717013888889
 30
0.0
 10
0.8068983289930555
 20
1.798122829861111
 30
0.0
 10
0.6806776258680555
 20
1.794053819444444
 30
0.0
 10
0.4651692708333333
 20
1.777967664930555
 30
0.0
 10
0.2586263020833333
 20
1.719699435763889
 30
0.0
 10
0.2586263020833333
 20
1.719699435763889
 30
0.0
 10
0.2611626519097222
 20
1.710747612847222
 30
0.0
 10
0.2611626519097222
 20
1.710747612847222
 30
0.0
 10
0.4693332248263888
 20
1.769449869791667
 30
0.0
 10
0.6867268880208333
 20
1.785129123263889
 30
0.0
 10
0.8117268880208333
 20
1.788953993055555
 30
0.0
 10
0.8871392144097222
 20
1.648383246527778
 30
0.0
 10
1.03582763671875
 20
1.557590060763889
 30
0.0
 10
1.300340440538194
 20
1.529079861111111
 30
0.0
 10
1.262797037760417
 20
1.503851996527778
 30
0.0
 10
1.224494086371528
 20
1.460964626736111
 30
0.0
 10
1.208977593315972
 20
1.388400607638889
 30
0.0
 10
1.157816569010417
 20
1.363932291666667
 30
0.0
 10
0.9958631727430555
 20
1.30419921875
 30
0.0
 10
0.8986952039930555
 20
1.471327039930556
 30
0.0
 10
0.8986952039930555
 20
1.471327039930556
 30
0.0
 10
0.8443060980902777
 20
1.570773654513889
 30
0.0
 10
0.7402072482638888
 20
1.578559027777778
 30
0.0
 10
0.7402072482638888
 20
1.578559027777778
 30
0.0
 10
0.6392144097222222
 20
1.580105251736111
 30
0.0
 10
0.7332221137152778
 20
1.515625
 30
0.0
 10
0.7332221137152778
 20
1.515625
 30
0.0
 10
0.800808376736111
 20
1.483778211805556
 30
0.0
 10
0.8474256727430555
 20
1.364122178819444
 30
0.0
 10
0.8474256727430555
 20
1.364122178819444
 30
0.0
 10
0.9082438151041666
 20
1.160020616319444
 30
0.0
 10
1.201761881510417
 20
1.225504557291667
 30
0.0
 10
1.201761881510417
 20
1.225504557291667
 30
0.0
 10
1.201761881510417
 20
1.014675564236111
 30
0.0
 10
1.201761881510417
 20
1.014675564236111
 30
0.0
 10
1.201761881510417
 20
1.014675564236111
 30
0.0
 10
1.201653374565972
 20
1.013753255208333
 30
0.0
 10
1.20147705078125
 20
1.012383355034722
 30
0.0
  0
SPLINE
  5
45
330
1F
100
AcDbEntity
  8
LAYER_1
100
AcDbSpline
210
0.0
220
0.0
230
1.0
 70
     8
 71
     3
 72
    14
 73
    10
 74
     0
 42
0.0000000001
 43
0.0000000001
 40
0.0
 40
0.0
 40
0.0
 40
0.0
 40
1.0
 40
1.0
 40
1.0
 40
2.0
 40
2.0
 40
2.0
 40
3.0
 40
3.0
 40
3.0
 40
3.0
 10
1.642930772569444
 20
1.032945421006944
 30
0.0
 10
1.642930772569444
 20
1.032945421006944
 30
0.0
 10
1.642930772569444
 20
1.361056857638889
 30
0.0
 10
1.642930772569444
 20
1.361056857638889
 30
0.0
 10
1.687689887152778
 20
1.326199001736111
 30
0.0
 10
1.680202907986111
 20
1.241455078125
 30
0.0
 10
1.680202907986111
 20
1.241455078125
 30
0.0
 10
1.680202907986111
 20
1.241455078125
 30
0.0
 10
1.680202907986111
 20
1.030083550347222
 30
0.0
 10
1.680202907986111
 20
1.030083550347222
 30
0.0
  0
SPLINE
  5
46
330
1F
100
AcDbEntity
  8
LAYER_1
100
AcDbSpline
210
0.0
220
0.0
230
1.0
 70
     8
 71
     3
 72
    14
 73
    10
 74
     0
 42
0.0000000001
 43
0.0000000001
 40
0.0
 40
0.0
 40
0.0
 40
0.0
 40
1.0
 40
1.0
 40
1.0
 40
2.0
 40
2.0
 40
2.0
 40
3.0
 40
3.0
 40
3.0
 40
3.0
 10
1.481696234809028
 20
1.037190755208333
 30
0.0
 10
1.481696234809028
 20
1.037190755208333
 30
0.0
 10
1.48431396484375
 20
1.375054253472222
 30
0.0
 10
1.48431396484375
 20
1.375054253472222
 30
0.0
 10
1.48431396484375
 20
1.375054253472222
 30
0.0
 10
1.515679253472222
 20
1.375054253472222
 30
0.0
 10
1.515679253472222
 20
1.375054253472222
 30
0.0
 10
1.515679253472222
 20
1.375054253472222
 30
0.0
 10
1.518310546875
 20
1.037353515625
 30
0.0
 10
1.518310546875
 20
1.037353515625
 30
0.0
  0
SPLINE
  5
47
330
1F
100
AcDbEntity
  8
LAYER_1
100
AcDbSpline
210
0.0
220
0.0
230
1.0
 70
     8
 71
     3
 72
    14
 73
    10
 74
     0
 42
0.0000000001
 43
0.0000000001
 40
0.0
 40
0.0
 40
0.0
 40
0.0
 40
1.0
 40
1.0
 40
1.0
 40
2.0
 40
2.0
 40
2.0
 40
3.0
 40
3.0
 40
3.0
 40
3.0
 10
1.319817437065972
 20
1.028211805555556
 30
0.0
 10
1.319817437065972
 20
1.028211805555556
 30
0.0
 10
1.319817437065972
 20
1.241455078125
 30
0.0
 10
1.319817437065972
 20
1.241455078125
 30
0.0
 10
1.319817437065972
 20
1.241455078125
 30
0.0
 10
1.312303331163194
 20
1.332628038194444
 30
0.0
 10
1.357089572482639
 20
1.364312065972222
 30
0.0
 10
1.357089572482639
 20
1.364312065972222
 30
0.0
 10
1.357089572482639
 20
1.031507703993056
 30
0.0
 10
1.357089572482639
 20
1.031507703993056
 30
0.0
  0
SPLINE
  5
48
330
1F
100
AcDbEntity
  8
LAYER_1
100
AcDbSpline
210
0.0
220
0.0
230
1.0
 70
     8
 71
     3
 72
    20
 73
    16
 74
     0
 42
0.0000000001
 43
0.0000000001
 40
0.0
 40
0.0
 40
0.0
 40
0.0
 40
1.0
 40
1.0
 40
1.0
 40
2.0
 40
2.0
 40
2.0
 40
3.0
 40
3.0
 40
3.0
 40
4.0
 40
4.0
 40
4.0
 40
5.0
 40
5.0
 40
5.0
 40
5.0
 10
1.518310546875
 20
1.037353515625
 30
0.0
 10
1.518310546875
 20
1.037353515625
 30
0.0
 10
1.518663194444444
 20
0.992919921875
 30
0.0
 10
1.518663194444444
 20
0.992919921875
 30
0.0
 10
1.524875217013889
 20
0.8406846788194444
 30
0.0
 10
1.655354817708333
 20
0.822048611111111
 30
0.0
 10
1.655354817708333
 20
0.822048611111111
 30
0.0
 10
1.723687065972222
 20
0.8065321180555555
 30
0.0
 10
1.692626953125
 20
0.8624403211805555
 30
0.0
 10
1.692626953125
 20
0.8624403211805555
 30
0.0
 10
1.646023220486111
 20
0.8966200086805555
 30
0.0
 10
1.642930772569444
 20
0.9867078993055555
 30
0.0
 10
1.642930772569444
 20
0.9867078993055555
 30
0.0
 10
1.642930772569444
 20
0.9867078993055555
 30
0.0
 10
1.642930772569444
 20
1.032945421006944
 30
0.0
 10
1.642930772569444
 20
1.032945421006944
 30
0.0
  0
SPLINE
  5
49
330
1F
100
AcDbEntity
  8
LAYER_1
100
AcDbSpline
210
0.0
220
0.0
230
1.0
 70
     8
 71
     3
 72
    20
 73
    16
 74
     0
 42
0.0000000001
 43
0.0000000001
 40
0.0
 40
0.0
 40
0.0
 40
0.0
 40
1.0
 40
1.0
 40
1.0
 40
2.0
 40
2.0
 40
2.0
 40
3.0
 40
3.0
 40
3.0
 40
4.0
 40
4.0
 40
4.0
 40
5.0
 40
5.0
 40
5.0
 40
5.0
 10
1.357089572482639
 20
1.031507703993056
 30
0.0
 10
1.357089572482639
 20
1.031507703993056
 30
0.0
 10
1.357089572482639
 20
0.9867078993055555
 30
0.0
 10
1.357089572482639
 20
0.9867078993055555
 30
0.0
 10
1.357089572482639
 20
0.9867078993055555
 30
0.0
 10
1.353997124565972
 20
0.8966200086805555
 30
0.0
 10
1.307393391927083
 20
0.8624403211805555
 30
0.0
 10
1.307393391927083
 20
0.8624403211805555
 30
0.0
 10
1.27630615234375
 20
0.8065321180555555
 30
0.0
 10
1.34466552734375
 20
0.822048611111111
 30
0.0
 10
1.34466552734375
 20
0.822048611111111
 30
0.0
 10
1.475145128038194
 20
0.8406846788194444
 30
0.0
 10
1.481357150607639
 20
0.992919921875
 30
0.0
 10
1.481357150607639
 20
0.992919921875
 30
0.0
 10
1.481696234809028
 20
1.037190755208333
 30
0.0
 10
1.481696234809028
 20
1.037190755208333
 30
0.0
  0
SPLINE
  5
4A
330
1F
100
AcDbEntity
  8
LAYER_1
100
AcDbSpline
210
0.0
220
0.0
230
1.0
 70
     8
 71
     3
 72
    20
 73
    16
 74
     0
 42
0.0000000001
 43
0.0000000001
 40
0.0
 40
0.0
 40
0.0
 40
0.0
 40
1.0
 40
1.0
 40
1.0
 40
2.0
 40
2.0
 40
2.0
 40
3.0
 40
3.0
 40
3.0
 40
4.0
 40
4.0
 40
4.0
 40
5.0
 40
5.0
 40
5.0
 40
5.0
 10
1.680202907986111
 20
1.030083550347222
 30
0.0
 10
1.680202907986111
 20
1.030083550347222
 30
0.0
 10
1.680202907986111
 20
1.011555989583333
 30
0.0
 10
1.680202907986111
 20
1.011555989583333
 30
0.0
 10
1.680202907986111
 20
0.856228298611111
 30
0.0
 10
1.869710286458333
 20
0.8717719184027777
 30
0.0
 10
1.869710286458333
 20
0.8717719184027777
 30
0.0
 10
1.913194444444444
 20
0.8872884114583333
 30
0.0
 10
1.872829861111111
 20
0.9152560763888888
 30
0.0
 10
1.872829861111111
 20
0.9152560763888888
 30
0.0
 10
1.804470486111111
 20
0.9401041666666666
 30
0.0
 10
1.798258463541667
 20
1.014675564236111
 30
0.0
 10
1.798258463541667
 20
1.014675564236111
 30
0.0
 10
1.798258463541667
 20
1.014675564236111
 30
0.0
 10
1.798258463541667
 20
1.015611436631944
 30
0.0
 10
1.798258463541667
 20
1.015611436631944
 30
0.0
  0
SPLINE
  5
4B
330
1F
100
AcDbEntity
  8
LAYER_1
100
AcDbSpline
210
0.0
220
0.0
230
1.0
 70
     8
 71
     3
 72
    17
 73
    13
 74
     0
 42
0.0000000001
 43
0.0000000001
 40
0.0
 40
0.0
 40
0.0
 40
0.0
 40
1.0
 40
1.0
 40
1.0
 40
2.0
 40
2.0
 40
2.0
 40
3.0
 40
3.0
 40
3.0
 40
4.0
 40
4.0
 40
4.0
 40
4.0
 10
1.20147705078125
 20
1.012383355034722
 30
0.0
 10
1.199863009982639
 20
1.000054253472222
 30
0.0
 10
1.188686794704861
 20
0.9376085069444444
 30
0.0
 10
1.127190483940972
 20
0.9152560763888888
 30
0.0
 10
1.127190483940972
 20
0.9152560763888888
 30
0.0
 10
1.086798773871528
 20
0.8872884114583333
 30
0.0
 10
1.13031005859375
 20
0.8717719184027777
 30
0.0
 10
1.13031005859375
 20
0.8717719184027777
 30
0.0
 10
1.319817437065972
 20
0.856228298611111
 30
0.0
 10
1.319817437065972
 20
1.011555989583333
 30
0.0
 10
1.319817437065972
 20
1.011555989583333
 30
0.0
 10
1.319817437065972
 20
1.028211805555556
 30
0.0
 10
1.319817437065972
 20
1.028211805555556
 30
0.0
  0
SPLINE
  5
4C
330
1F
100
AcDbEntity
  8
LAYER_1
100
AcDbSpline
210
0.0
220
0.0
230
1.0
 70
    11
 71
     3
 72
    26
 73
    22
 74
     0
 42
0.0000000001
 43
0.0000000001
 40
0.0
 40
0.0
 40
0.0
 40
0.0
 40
1.0
 40
1.0
 40
1.0
 40
2.0
 40
2.0
 40
2.0
 40
3.0
 40
3.0
 40
3.0
 40
4.0
 40
4.0
 40
4.0
 40
5.0
 40
5.0
 40
5.0
 40
6.0
 40
6.0
 40
6.0
 40
7.0
 40
7.0
 40
7.0
 40
7.0
 10
1.953857421875
 20
2.117641872829861
 30
0.0
 10
2.014621310763889
 20
2.062601725260417
 30
0.0
 10
2.050157335069444
 20
1.996127658420139
 30
0.0
 10
2.050157335069444
 20
1.924506293402778
 30
0.0
 10
2.050157335069444
 20
1.590142144097222
 30
0.0
 10
1.800889756944444
 20
1.581081814236111
 30
0.0
 10
1.493428548177083
 20
1.581081814236111
 30
0.0
 10
1.185919867621528
 20
1.581081814236111
 30
0.0
 10
0.936672634548611
 20
1.627387152777778
 30
0.0
 10
0.936672634548611
 20
1.924506293402778
 30
0.0
 10
0.936672634548611
 20
1.995652940538194
 30
0.0
 10
0.9717203776041666
 20
2.06170654296875
 30
0.0
 10
1.031731499565972
 20
2.116529676649305
 30
0.0
 10
1.131829155815972
 20
2.207892523871528
 30
0.0
 10
1.301235622829861
 20
2.159511990017361
 30
0.0
 10
1.493428548177083
 20
2.159511990017361
 30
0.0
 10
1.684841579861111
 20
2.159511990017361
 30
0.0
 10
1.853624131944444
 20
2.208380805121528
 30
0.0
 10
1.953857421875
 20
2.117641872829861
 30
0.0
 10
1.953857421875
 20
2.117641872829861
 30
0.0
 10
1.953857421875
 20
2.117641872829861
 30
0.0
 10
1.953857421875
 20
2.117641872829861
 30
0.0
  0
POLYLINE
  5
4D
330
1F
100
AcDbEntity
  8
LAYER_1
100
AcDb2dPolyline
 66
     1
 10
0.0
 20
0.0
 30
0.0
  0
VERTEX
  5
4E
330
4D
100
AcDbEntity
  8
LAYER_1
100
AcDbVertex
100
AcDb2dVertex
 10
1.953857421875
 20
2.117641872829861
 30
0.0
  0
VERTEX
  5
8D
330
4D
100
AcDbEntity
  8
0
100
AcDbVertex
100
AcDb2dVertex
 10
1.953857421875
 20
2.117641872829861
 30
0.0
  0
SEQEND
  5
4F
330
4D
100
AcDbEntity
  8
LAYER_1
  0
SPLINE
  5
50
330
1F
100
AcDbEntity
  8
LAYER_1
100
AcDbSpline
210
0.0
220
0.0
230
1.0
 70
    11
 71
     3
 72
    20
 73
    16
 74
     0
 42
0.0000000001
 43
0.0000000001
 40
0.0
 40
0.0
 40
0.0
 40
0.0
 40
1.0
 40
1.0
 40
1.0
 40
2.0
 40
2.0
 40
2.0
 40
3.0
 40
3.0
 40
3.0
 40
4.0
 40
4.0
 40
4.0
 40
5.0
 40
5.0
 40
5.0
 40
5.0
 10
1.30828857421875
 20
1.907470703125
 30
0.0
 10
1.30828857421875
 20
1.815375434027778
 30
0.0
 10
1.256422254774306
 20
1.74072265625
 30
0.0
 10
1.192457411024306
 20
1.74072265625
 30
0.0
 10
1.128465440538194
 20
1.74072265625
 30
0.0
 10
1.07659912109375
 20
1.815375434027778
 30
0.0
 10
1.07659912109375
 20
1.907470703125
 30
0.0
 10
1.07659912109375
 20
1.999559190538194
 30
0.0
 10
1.128465440538194
 20
2.074184841579861
 30
0.0
 10
1.192457411024306
 20
2.074184841579861
 30
0.0
 10
1.256422254774306
 20
2.074184841579861
 30
0.0
 10
1.30828857421875
 20
1.999559190538194
 30
0.0
 10
1.30828857421875
 20
1.907470703125
 30
0.0
 10
1.30828857421875
 20
1.907470703125
 30
0.0
 10
1.30828857421875
 20
1.907470703125
 30
0.0
 10
1.30828857421875
 20
1.907470703125
 30
0.0
  0
POLYLINE
  5
51
330
1F
100
AcDbEntity
  8
LAYER_1
100
AcDb2dPolyline
 66
     1
 10
0.0
 20
0.0
 30
0.0
  0
VERTEX
  5
52
330
51
100
AcDbEntity
  8
LAYER_1
100
AcDbVertex
100
AcDb2dVertex
 10
1.30828857421875
 20
1.907470703125
 30
0.0
  0
VERTEX
  5
8E
330
51
100
AcDbEntity
  8
0
100
AcDbVertex
100
AcDb2dVertex
 10
1.30828857421875
 20
1.907470703125
 30
0.0
  0
SEQEND
  5
53
330
51
100
AcDbEntity
  8
LAYER_1
  0
SPLINE
  5
54
330
1F
100
AcDbEntity
  8
LAYER_1
100
AcDbSpline
210
0.0
220
0.0
230
1.0
 70
    11
 71
     3
 72
    20
 73
    16
 74
     0
 42
0.0000000001
 43
0.0000000001
 40
0.0
 40
0.0
 40
0.0
 40
0.0
 40
1.0
 40
1.0
 40
1.0
 40
2.0
 40
2.0
 40
2.0
 40
3.0
 40
3.0
 40
3.0
 40
4.0
 40
4.0
 40
4.0
 40
5.0
 40
5.0
 40
5.0
 40
5.0
 10
1.271124945746528
 20
1.905381944444444
 30
0.0
 10
1.271124945746528
 20
1.843994140625
 30
0.0
 10
1.23651123046875
 20
1.794243706597222
 30
0.0
 10
1.193895128038194
 20
1.794243706597222
 30
0.0
 10
1.151224772135417
 20
1.794243706597222
 30
0.0
 10
1.116665310329861
 20
1.843994140625
 30
0.0
 10
1.116665310329861
 20
1.905381944444444
 30
0.0
 10
1.116665310329861
 20
1.966790093315972
 30
0.0
 10
1.151224772135417
 20
2.016567654079861
 30
0.0
 10
1.193895128038194
 20
2.016567654079861
 30
0.0
 10
1.23651123046875
 20
2.016567654079861
 30
0.0
 10
1.271124945746528
 20
1.966790093315972
 30
0.0
 10
1.271124945746528
 20
1.905381944444444
 30
0.0
 10
1.271124945746528
 20
1.905381944444444
 30
0.0
 10
1.271124945746528
 20
1.905381944444444
 30
0.0
 10
1.271124945746528
 20
1.905381944444444
 30
0.0
  0
POLYLINE
  5
55
330
1F
100
AcDbEntity
  8
LAYER_1
100
AcDb2dPolyline
 66
     1
 10
0.0
 20
0.0
 30
0.0
  0
VERTEX
  5
56
330
55
100
AcDbEntity
  8
LAYER_1
100
AcDbVertex
100
AcDb2dVertex
 10
1.271124945746528
 20
1.905381944444444
 30
0.0
  0
VERTEX
  5
8F
330
55
100
AcDbEntity
  8
0
100
AcDbVertex
100
AcDb2dVertex
 10
1.271124945746528
 20
1.905381944444444
 30
0.0
  0
SEQEND
  5
57
330
55
100
AcDbEntity
  8
LAYER_1
  0
SPLINE
  5
58
330
1F
100
AcDbEntity
  8
LAYER_1
100
AcDbSpline
210
0.0
220
0.0
230
1.0
 70
    11
 71
     3
 72
    20
 73
    16
 74
     0
 42
0.0000000001
 43
0.0000000001
 40
0.0
 40
0.0
 40
0.0
 40
0.0
 40
1.0
 40
1.0
 40
1.0
 40
2.0
 40
2.0
 40
2.0
 40
3.0
 40
3.0
 40
3.0
 40
4.0
 40
4.0
 40
4.0
 40
5.0
 40
5.0
 40
5.0
 40
5.0
 10
1.929768880208333
 20
1.907470703125
 30
0.0
 10
1.929768880208333
 20
1.815375434027778
 30
0.0
 10
1.877902560763889
 20
1.74072265625
 30
0.0
 10
1.813910590277778
 20
1.74072265625
 30
0.0
 10
1.749945746527778
 20
1.74072265625
 30
0.0
 10
1.698079427083333
 20
1.815375434027778
 30
0.0
 10
1.698079427083333
 20
1.907470703125
 30
0.0
 10
1.698079427083333
 20
1.999559190538194
 30
0.0
 10
1.749945746527778
 20
2.074184841579861
 30
0.0
 10
1.813910590277778
 20
2.074184841579861
 30
0.0
 10
1.877902560763889
 20
2.074184841579861
 30
0.0
 10
1.929768880208333
 20
1.999559190538194
 30
0.0
 10
1.929768880208333
 20
1.907470703125
 30
0.0
 10
1.929768880208333
 20
1.907470703125
 30
0.0
 10
1.929768880208333
 20
1.907470703125
 30
0.0
 10
1.929768880208333
 20
1.907470703125
 30
0.0
  0
POLYLINE
  5
59
330
1F
100
AcDbEntity
  8
LAYER_1
100
AcDb2dPolyline
 66
     1
 10
0.0
 20
0.0
 30
0.0
  0
VERTEX
  5
5A
330
59
100
AcDbEntity
  8
LAYER_1
100
AcDbVertex
100
AcDb2dVertex
 10
1.929768880208333
 20
1.907470703125
 30
0.0
  0
VERTEX
  5
90
330
59
100
AcDbEntity
  8
0
100
AcDbVertex
100
AcDb2dVertex
 10
1.929768880208333
 20
1.907470703125
 30
0.0
  0
SEQEND
  5
5B
330
59
100
AcDbEntity
  8
LAYER_1
  0
SPLINE
  5
5C
330
1F
100
AcDbEntity
  8
LAYER_1
100
AcDbSpline
210
0.0
220
0.0
230
1.0
 70
    11
 71
     3
 72
    20
 73
    16
 74
     0
 42
0.0000000001
 43
0.0000000001
 40
0.0
 40
0.0
 40
0.0
 40
0.0
 40
1.0
 40
1.0
 40
1.0
 40
2.0
 40
2.0
 40
2.0
 40
3.0
 40
3.0
 40
3.0
 40
4.0
 40
4.0
 40
4.0
 40
5.0
 40
5.0
 40
5.0
 40
5.0
 10
1.892578125
 20
1.905381944444444
 30
0.0
 10
1.892578125
 20
1.843994140625
 30
0.0
 10
1.857991536458333
 20
1.794243706597222
 30
0.0
 10
1.815348307291667
 20
1.794243706597222
 30
0.0
 10
1.772705078125
 20
1.794243706597222
 30
0.0
 10
1.738118489583333
 20
1.843994140625
 30
0.0
 10
1.738118489583333
 20
1.905381944444444
 30
0.0
 10
1.738118489583333
 20
1.966790093315972
 30
0.0
 10
1.772705078125
 20
2.016567654079861
 30
0.0
 10
1.815348307291667
 20
2.016567654079861
 30
0.0
 10
1.857991536458333
 20
2.016567654079861
 30
0.0
 10
1.892578125
 20
1.966790093315972
 30
0.0
 10
1.892578125
 20
1.905381944444444
 30
0.0
 10
1.892578125
 20
1.905381944444444
 30
0.0
 10
1.892578125
 20
1.905381944444444
 30
0.0
 10
1.892578125
 20
1.905381944444444
 30
0.0
  0
POLYLINE
  5
5D
330
1F
100
AcDbEntity
  8
LAYER_1
100
AcDb2dPolyline
 66
     1
 10
0.0
 20
0.0
 30
0.0
  0
VERTEX
  5
5E
330
5D
100
AcDbEntity
  8
LAYER_1
100
AcDbVertex
100
AcDb2dVertex
 10
1.892578125
 20
1.905381944444444
 30
0.0
  0
VERTEX
  5
91
330
5D
100
AcDbEntity
  8
0
100
AcDbVertex
100
AcDb2dVertex
 10
1.892578125
 20
1.905381944444444
 30
0.0
  0
SEQEND
  5
5F
330
5D
100
AcDbEntity
  8
LAYER_1
  0
SPLINE
  5
60
330
1F
100
AcDbEntity
  8
LAYER_1
100
AcDbSpline
210
0.0
220
0.0
230
1.0
 70
    11
 71
     3
 72
    20
 73
    16
 74
     0
 42
0.0000000001
 43
0.0000000001
 40
0.0
 40
0.0
 40
0.0
 40
0.0
 40
1.0
 40
1.0
 40
1.0
 40
2.0
 40
2.0
 40
2.0
 40
3.0
 40
3.0
 40
3.0
 40
4.0
 40
4.0
 40
4.0
 40
5.0
 40
5.0
 40
5.0
 40
5.0
 10
1.524034288194444
 20
1.759385850694444
 30
0.0
 10
1.524034288194444
 20
1.743381076388889
 30
0.0
 10
1.511060926649306
 20
1.730414496527778
 30
0.0
 10
1.49505615234375
 20
1.730414496527778
 30
0.0
 10
1.479051378038194
 20
1.730414496527778
 30
0.0
 10
1.466084798177083
 20
1.743381076388889
 30
0.0
 10
1.466084798177083
 20
1.759385850694444
 30
0.0
 10
1.466084798177083
 20
1.775390625
 30
0.0
 10
1.479051378038194
 20
1.788357204861111
 30
0.0
 10
1.49505615234375
 20
1.788357204861111
 30
0.0
 10
1.511060926649306
 20
1.788357204861111
 30
0.0
 10
1.524034288194444
 20
1.775390625
 30
0.0
 10
1.524034288194444
 20
1.759385850694444
 30
0.0
 10
1.524034288194444
 20
1.759385850694444
 30
0.0
 10
1.524034288194444
 20
1.759385850694444
 30
0.0
 10
1.524034288194444
 20
1.759385850694444
 30
0.0
  0
POLYLINE
  5
61
330
1F
100
AcDbEntity
  8
LAYER_1
100
AcDb2dPolyline
 66
     1
 10
0.0
 20
0.0
 30
0.0
  0
VERTEX
  5
62
330
61
100
AcDbEntity
  8
LAYER_1
100
AcDbVertex
100
AcDb2dVertex
 10
1.524034288194444
 20
1.759385850694444
 30
0.0
  0
VERTEX
  5
92
330
61
100
AcDbEntity
  8
0
100
AcDbVertex
100
AcDb2dVertex
 10
1.524034288194444
 20
1.759385850694444
 30
0.0
  0
SEQEND
  5
63
330
61
100
AcDbEntity
  8
LAYER_1
  0
SPLINE
  5
64
330
1F
100
AcDbEntity
  8
LAYER_1
100
AcDbSpline
210
0.0
220
0.0
230
1.0
 70
    11
 71
     3
 72
    32
 73
    28
 74
     0
 42
0.0000000001
 43
0.0000000001
 40
0.0
 40
0.0
 40
0.0
 40
0.0
 40
1.0
 40
1.0
 40
1.0
 40
2.0
 40
2.0
 40
2.0
 40
3.0
 40
3.0
 40
3.0
 40
4.0
 40
4.0
 40
4.0
 40
5.0
 40
5.0
 40
5.0
 40
6.0
 40
6.0
 40
6.0
 40
7.0
 40
7.0
 40
7.0
 40
8.0
 40
8.0
 40
8.0
 40
9.0
 40
9.0
 40
9.0
 40
9.0
 10
1.427564832899306
 20
1.686143663194444
 30
0.0
 10
1.425855848524306
 20
1.690999348958333
 30
0.0
 10
1.42840576171875
 20
1.696316189236111
 30
0.0
 10
1.433234320746528
 20
1.698025173611111
 30
0.0
 10
1.438090006510417
 20
1.699734157986111
 30
0.0
 10
1.443406846788194
 20
1.697184244791667
 30
0.0
 10
1.445115831163194
 20
1.692355685763889
 30
0.0
 10
1.45257568359375
 20
1.671305338541667
 30
0.0
 10
1.472540961371528
 20
1.657172309027778
 30
0.0
 10
1.49481201171875
 20
1.657172309027778
 30
0.0
 10
1.51708984375
 20
1.657172309027778
 30
0.0
 10
1.537055121527778
 20
1.671305338541667
 30
0.0
 10
1.544514973958333
 20
1.692355685763889
 30
0.0
 10
1.546223958333333
 20
1.697211371527778
 30
0.0
 10
1.551540798611111
 20
1.699734157986111
 30
0.0
 10
1.556396484375
 20
1.698025173611111
 30
0.0
 10
1.561252170138889
 20
1.696316189236111
 30
0.0
 10
1.563774956597222
 20
1.690999348958333
 30
0.0
 10
1.562065972222222
 20
1.686143663194444
 30
0.0
 10
1.552001953125
 20
1.657687717013889
 30
0.0
 10
1.524956597222222
 20
1.638563368055555
 30
0.0
 10
1.49481201171875
 20
1.638563368055555
 30
0.0
 10
1.464674207899306
 20
1.638563368055555
 30
0.0
 10
1.437655978732639
 20
1.657687717013889
 30
0.0
 10
1.427564832899306
 20
1.686143663194444
 30
0.0
 10
1.427564832899306
 20
1.686143663194444
 30
0.0
 10
1.427564832899306
 20
1.686143663194444
 30
0.0
 10
1.427564832899306
 20
1.686143663194444
 30
0.0
  0
POLYLINE
  5
65
330
1F
100
AcDbEntity
  8
LAYER_1
100
AcDb2dPolyline
 66
     1
 10
0.0
 20
0.0
 30
0.0
  0
VERTEX
  5
66
330
65
100
AcDbEntity
  8
LAYER_1
100
AcDbVertex
100
AcDb2dVertex
 10
1.427564832899306
 20
1.686143663194444
 30
0.0
  0
VERTEX
  5
93
330
65
100
AcDbEntity
  8
0
100
AcDbVertex
100
AcDb2dVertex
 10
1.427564832899306
 20
1.686143663194444
 30
0.0
  0
SEQEND
  5
67
330
65
100
AcDbEntity
  8
LAYER_1
  0
SPLINE
  5
68
330
1F
100
AcDbEntity
  8
LAYER_1
100
AcDbSpline
210
0.0
220
0.0
230
1.0
 70
    11
 71
     3
 72
    20
 73
    16
 74
     0
 42
0.0000000001
 43
0.0000000001
 40
0.0
 40
0.0
 40
0.0
 40
0.0
 40
1.0
 40
1.0
 40
1.0
 40
2.0
 40
2.0
 40
2.0
 40
3.0
 40
3.0
 40
3.0
 40
4.0
 40
4.0
 40
4.0
 40
5.0
 40
5.0
 40
5.0
 40
5.0
 10
0.7852783203125
 20
1.553683810763889
 30
0.0
 10
0.7852783203125
 20
1.545952690972222
 30
0.0
 10
0.7762179904513888
 20
1.539713541666667
 30
0.0
 10
0.7650689019097222
 20
1.539713541666667
 30
0.0
 10
0.7539198133680555
 20
1.539713541666667
 30
0.0
 10
0.744873046875
 20
1.545952690972222
 30
0.0
 10
0.744873046875
 20
1.553683810763889
 30
0.0
 10
0.744873046875
 20
1.561414930555555
 30
0.0
 10
0.7539198133680555
 20
1.567681206597222
 30
0.0
 10
0.7650689019097222
 20
1.567681206597222
 30
0.0
 10
0.7762179904513888
 20
1.567681206597222
 30
0.0
 10
0.7852783203125
 20
1.561414930555555
 30
0.0
 10
0.7852783203125
 20
1.553683810763889
 30
0.0
 10
0.7852783203125
 20
1.553683810763889
 30
0.0
 10
0.7852783203125
 20
1.553683810763889
 30
0.0
 10
0.7852783203125
 20
1.553683810763889
 30
0.0
  0
POLYLINE
  5
69
330
1F
100
AcDbEntity
  8
LAYER_1
100
AcDb2dPolyline
 66
     1
 10
0.0
 20
0.0
 30
0.0
  0
VERTEX
  5
6A
330
69
100
AcDbEntity
  8
LAYER_1
100
AcDbVertex
100
AcDb2dVertex
 10
0.7852783203125
 20
1.553683810763889
 30
0.0
  0
VERTEX
  5
94
330
69
100
AcDbEntity
  8
0
100
AcDbVertex
100
AcDb2dVertex
 10
0.7852783203125
 20
1.553683810763889
 30
0.0
  0
SEQEND
  5
6B
330
69
100
AcDbEntity
  8
LAYER_1
  0
SPLINE
  5
6C
330
1F
100
AcDbEntity
  8
LAYER_1
100
AcDbSpline
210
0.0
220
0.0
230
1.0
 70
    11
 71
     3
 72
    20
 73
    16
 74
     0
 42
0.0000000001
 43
0.0000000001
 40
0.0
 40
0.0
 40
0.0
 40
0.0
 40
1.0
 40
1.0
 40
1.0
 40
2.0
 40
2.0
 40
2.0
 40
3.0
 40
3.0
 40
3.0
 40
4.0
 40
4.0
 40
4.0
 40
5.0
 40
5.0
 40
5.0
 40
5.0
 10
0.841213650173611
 20
1.522623697916667
 30
0.0
 10
0.841213650173611
 20
1.514892578125
 30
0.0
 10
0.8321533203125
 20
1.508626302083333
 30
0.0
 10
0.8210042317708333
 20
1.508626302083333
 30
0.0
 10
0.8098551432291666
 20
1.508626302083333
 30
0.0
 10
0.800808376736111
 20
1.514892578125
 30
0.0
 10
0.800808376736111
 20
1.522623697916667
 30
0.0
 10
0.800808376736111
 20
1.530327690972222
 30
0.0
 10
0.8098551432291666
 20
1.536593967013889
 30
0.0
 10
0.8210042317708333
 20
1.536593967013889
 30
0.0
 10
0.8321533203125
 20
1.536593967013889
 30
0.0
 10
0.841213650173611
 20
1.530327690972222
 30
0.0
 10
0.841213650173611
 20
1.522623697916667
 30
0.0
 10
0.841213650173611
 20
1.522623697916667
 30
0.0
 10
0.841213650173611
 20
1.522623697916667
 30
0.0
 10
0.841213650173611
 20
1.522623697916667
 30
0.0
  0
POLYLINE
  5
6D
330
1F
100
AcDbEntity
  8
LAYER_1
100
AcDb2dPolyline
 66
     1
 10
0.0
 20
0.0
 30
0.0
  0
VERTEX
  5
6E
330
6D
100
AcDbEntity
  8
LAYER_1
100
AcDbVertex
100
AcDb2dVertex
 10
0.841213650173611
 20
1.522623697916667
 30
0.0
  0
VERTEX
  5
95
330
6D
100
AcDbEntity
  8
0
100
AcDbVertex
100
AcDb2dVertex
 10
0.841213650173611
 20
1.522623697916667
 30
0.0
  0
SEQEND
  5
6F
330
6D
100
AcDbEntity
  8
LAYER_1
  0
SPLINE
  5
70
330
1F
100
AcDbEntity
  8
LAYER_1
100
AcDbSpline
210
0.0
220
0.0
230
1.0
 70
    11
 71
     3
 72
    20
 73
    16
 74
     0
 42
0.0000000001
 43
0.0000000001
 40
0.0
 40
0.0
 40
0.0
 40
0.0
 40
1.0
 40
1.0
 40
1.0
 40
2.0
 40
2.0
 40
2.0
 40
3.0
 40
3.0
 40
3.0
 40
4.0
 40
4.0
 40
4.0
 40
5.0
 40
5.0
 40
5.0
 40
5.0
 10
0.875393337673611
 20
1.482204861111111
 30
0.0
 10
0.875393337673611
 20
1.474500868055556
 30
0.0
 10
0.8663465711805555
 20
1.468234592013889
 30
0.0
 10
0.8551839192708333
 20
1.468234592013889
 30
0.0
 10
0.8440348307291666
 20
1.468234592013889
 30
0.0
 10
0.8350016276041666
 20
1.474500868055556
 30
0.0
 10
0.8350016276041666
 20
1.482204861111111
 30
0.0
 10
0.8350016276041666
 20
1.489935980902778
 30
0.0
 10
0.8440348307291666
 20
1.496202256944444
 30
0.0
 10
0.8551839192708333
 20
1.496202256944444
 30
0.0
 10
0.8663465711805555
 20
1.496202256944444
 30
0.0
 10
0.875393337673611
 20
1.489935980902778
 30
0.0
 10
0.875393337673611
 20
1.482204861111111
 30
0.0
 10
0.875393337673611
 20
1.482204861111111
 30
0.0
 10
0.875393337673611
 20
1.482204861111111
 30
0.0
 10
0.875393337673611
 20
1.482204861111111
 30
0.0
  0
POLYLINE
  5
71
330
1F
100
AcDbEntity
  8
LAYER_1
100
AcDb2dPolyline
 66
     1
 10
0.0
 20
0.0
 30
0.0
  0
VERTEX
  5
72
330
71
100
AcDbEntity
  8
LAYER_1
100
AcDbVertex
100
AcDb2dVertex
 10
0.875393337673611
 20
1.482204861111111
 30
0.0
  0
VERTEX
  5
96
330
71
100
AcDbEntity
  8
0
100
AcDbVertex
100
AcDb2dVertex
 10
0.875393337673611
 20
1.482204861111111
 30
0.0
  0
SEQEND
  5
73
330
71
100
AcDbEntity
  8
LAYER_1
  0
SPLINE
  5
74
330
1F
100
AcDbEntity
  8
LAYER_1
100
AcDbSpline
210
0.0
220
0.0
230
1.0
 70
    11
 71
     3
 72
    20
 73
    16
 74
     0
 42
0.0000000001
 43
0.0000000001
 40
0.0
 40
0.0
 40
0.0
 40
0.0
 40
1.0
 40
1.0
 40
1.0
 40
2.0
 40
2.0
 40
2.0
 40
3.0
 40
3.0
 40
3.0
 40
4.0
 40
4.0
 40
4.0
 40
5.0
 40
5.0
 40
5.0
 40
5.0
 10
0.9064534505208333
 20
1.435601128472222
 30
0.0
 10
0.9064534505208333
 20
1.427870008680556
 30
0.0
 10
0.8974202473958333
 20
1.421603732638889
 30
0.0
 10
0.8862711588541666
 20
1.421603732638889
 30
0.0
 10
0.8751085069444444
 20
1.421603732638889
 30
0.0
 10
0.8660617404513888
 20
1.427870008680556
 30
0.0
 10
0.8660617404513888
 20
1.435601128472222
 30
0.0
 10
0.8660617404513888
 20
1.443332248263889
 30
0.0
 10
0.8751085069444444
 20
1.449598524305556
 30
0.0
 10
0.8862711588541666
 20
1.449598524305556
 30
0.0
 10
0.8974202473958333
 20
1.449598524305556
 30
0.0
 10
0.9064534505208333
 20
1.443332248263889
 30
0.0
 10
0.9064534505208333
 20
1.435601128472222
 30
0.0
 10
0.9064534505208333
 20
1.435601128472222
 30
0.0
 10
0.9064534505208333
 20
1.435601128472222
 30
0.0
 10
0.9064534505208333
 20
1.435601128472222
 30
0.0
  0
POLYLINE
  5
75
330
1F
100
AcDbEntity
  8
LAYER_1
100
AcDb2dPolyline
 66
     1
 10
0.0
 20
0.0
 30
0.0
  0
VERTEX
  5
76
330
75
100
AcDbEntity
  8
LAYER_1
100
AcDbVertex
100
AcDb2dVertex
 10
0.9064534505208333
 20
1.435601128472222
 30
0.0
  0
VERTEX
  5
97
330
75
100
AcDbEntity
  8
0
100
AcDbVertex
100
AcDb2dVertex
 10
0.9064534505208333
 20
1.435601128472222
 30
0.0
  0
SEQEND
  5
77
330
75
100
AcDbEntity
  8
LAYER_1
  0
SPLINE
  5
78
330
1F
100
AcDbEntity
  8
LAYER_1
100
AcDbSpline
210
0.0
220
0.0
230
1.0
 70
    11
 71
     3
 72
    20
 73
    16
 74
     0
 42
0.0000000001
 43
0.0000000001
 40
0.0
 40
0.0
 40
0.0
 40
0.0
 40
1.0
 40
1.0
 40
1.0
 40
2.0
 40
2.0
 40
2.0
 40
3.0
 40
3.0
 40
3.0
 40
4.0
 40
4.0
 40
4.0
 40
5.0
 40
5.0
 40
5.0
 40
5.0
 10
0.9406467013888888
 20
1.39208984375
 30
0.0
 10
0.9406467013888888
 20
1.384385850694444
 30
0.0
 10
0.9315999348958333
 20
1.378119574652778
 30
0.0
 10
0.9204508463541666
 20
1.378119574652778
 30
0.0
 10
0.9093017578125
 20
1.378119574652778
 30
0.0
 10
0.9002414279513888
 20
1.384385850694444
 30
0.0
 10
0.9002414279513888
 20
1.39208984375
 30
0.0
 10
0.9002414279513888
 20
1.399820963541667
 30
0.0
 10
0.9093017578125
 20
1.406087239583333
 30
0.0
 10
0.9204508463541666
 20
1.406087239583333
 30
0.0
 10
0.9315999348958333
 20
1.406087239583333
 30
0.0
 10
0.9406467013888888
 20
1.399820963541667
 30
0.0
 10
0.9406467013888888
 20
1.39208984375
 30
0.0
 10
0.9406467013888888
 20
1.39208984375
 30
0.0
 10
0.9406467013888888
 20
1.39208984375
 30
0.0
 10
0.9406467013888888
 20
1.39208984375
 30
0.0
  0
POLYLINE
  5
79
330
1F
100
AcDbEntity
  8
LAYER_1
100
AcDb2dPolyline
 66
     1
 10
0.0
 20
0.0
 30
0.0
  0
VERTEX
  5
7A
330
79
100
AcDbEntity
  8
LAYER_1
100
AcDbVertex
100
AcDb2dVertex
 10
0.9406467013888888
 20
1.39208984375
 30
0.0
  0
VERTEX
  5
98
330
79
100
AcDbEntity
  8
0
100
AcDbVertex
100
AcDb2dVertex
 10
0.9406467013888888
 20
1.39208984375
 30
0.0
  0
SEQEND
  5
7B
330
79
100
AcDbEntity
  8
LAYER_1
  0
SPLINE
  5
7C
330
1F
100
AcDbEntity
  8
LAYER_1
100
AcDbSpline
210
0.0
220
0.0
230
1.0
 70
    11
 71
     3
 72
    20
 73
    16
 74
     0
 42
0.0000000001
 43
0.0000000001
 40
0.0
 40
0.0
 40
0.0
 40
0.0
 40
1.0
 40
1.0
 40
1.0
 40
2.0
 40
2.0
 40
2.0
 40
3.0
 40
3.0
 40
3.0
 40
4.0
 40
4.0
 40
4.0
 40
5.0
 40
5.0
 40
5.0
 40
5.0
 10
0.9872639973958333
 20
1.354817708333333
 30
0.0
 10
0.9872639973958333
 20
1.347086588541667
 30
0.0
 10
0.9782172309027777
 20
1.3408203125
 30
0.0
 10
0.9670545789930555
 20
1.3408203125
 30
0.0
 10
0.9559054904513888
 20
1.3408203125
 30
0.0
 10
0.9468722873263888
 20
1.347086588541667
 30
0.0
 10
0.9468722873263888
 20
1.354817708333333
 30
0.0
 10
0.9468722873263888
 20
1.362521701388889
 30
0.0
 10
0.9559054904513888
 20
1.368787977430556
 30
0.0
 10
0.9670545789930555
 20
1.368787977430556
 30
0.0
 10
0.9782172309027777
 20
1.368787977430556
 30
0.0
 10
0.9872639973958333
 20
1.362521701388889
 30
0.0
 10
0.9872639973958333
 20
1.354817708333333
 30
0.0
 10
0.9872639973958333
 20
1.354817708333333
 30
0.0
 10
0.9872639973958333
 20
1.354817708333333
 30
0.0
 10
0.9872639973958333
 20
1.354817708333333
 30
0.0
  0
POLYLINE
  5
7D
330
1F
100
AcDbEntity
  8
LAYER_1
100
AcDb2dPolyline
 66
     1
 10
0.0
 20
0.0
 30
0.0
  0
VERTEX
  5
7E
330
7D
100
AcDbEntity
  8
LAYER_1
100
AcDbVertex
100
AcDb2dVertex
 10
0.9872639973958333
 20
1.354817708333333
 30
0.0
  0
VERTEX
  5
99
330
7D
100
AcDbEntity
  8
0
100
AcDbVertex
100
AcDb2dVertex
 10
0.9872639973958333
 20
1.354817708333333
 30
0.0
  0
SEQEND
  5
7F
330
7D
100
AcDbEntity
  8
LAYER_1
  0
SPLINE
  5
80
330
1F
100
AcDbEntity
  8
LAYER_1
100
AcDbSpline
210
0.0
220
0.0
230
1.0
 70
    11
 71
     3
 72
    20
 73
    16
 74
     0
 42
0.0000000001
 43
0.0000000001
 40
0.0
 40
0.0
 40
0.0
 40
0.0
 40
1.0
 40
1.0
 40
1.0
 40
2.0
 40
2.0
 40
2.0
 40
3.0
 40
3.0
 40
3.0
 40
4.0
 40
4.0
 40
4.0
 40
5.0
 40
5.0
 40
5.0
 40
5.0
 10
1.052510579427083
 20
1.329942491319444
 30
0.0
 10
1.052510579427083
 20
1.322238498263889
 30
0.0
 10
1.043477376302083
 20
1.315972222222222
 30
0.0
 10
1.032328287760417
 20
1.315972222222222
 30
0.0
 10
1.021158854166667
 20
1.315972222222222
 30
0.0
 10
1.012112087673611
 20
1.322238498263889
 30
0.0
 10
1.012112087673611
 20
1.329942491319444
 30
0.0
 10
1.012112087673611
 20
1.337673611111111
 30
0.0
 10
1.021158854166667
 20
1.343939887152778
 30
0.0
 10
1.032328287760417
 20
1.343939887152778
 30
0.0
 10
1.043477376302083
 20
1.343939887152778
 30
0.0
 10
1.052510579427083
 20
1.337673611111111
 30
0.0
 10
1.052510579427083
 20
1.329942491319444
 30
0.0
 10
1.052510579427083
 20
1.329942491319444
 30
0.0
 10
1.052510579427083
 20
1.329942491319444
 30
0.0
 10
1.052510579427083
 20
1.329942491319444
 30
0.0
  0
POLYLINE
  5
81
330
1F
100
AcDbEntity
  8
LAYER_1
100
AcDb2dPolyline
 66
     1
 10
0.0
 20
0.0
 30
0.0
  0
VERTEX
  5
82
330
81
100
AcDbEntity
  8
LAYER_1
100
AcDbVertex
100
AcDb2dVertex
 10
1.052510579427083
 20
1.329942491319444
 30
0.0
  0
VERTEX
  5
9A
330
81
100
AcDbEntity
  8
0
100
AcDbVertex
100
AcDb2dVertex
 10
1.052510579427083
 20
1.329942491319444
 30
0.0
  0
SEQEND
  5
83
330
81
100
AcDbEntity
  8
LAYER_1
  0
SPLINE
  5
84
330
1F
100
AcDbEntity
  8
LAYER_1
100
AcDbSpline
210
0.0
220
0.0
230
1.0
 70
    11
 71
     3
 72
    20
 73
    16
 74
     0
 42
0.0000000001
 43
0.0000000001
 40
0.0
 40
0.0
 40
0.0
 40
0.0
 40
1.0
 40
1.0
 40
1.0
 40
2.0
 40
2.0
 40
2.0
 40
3.0
 40
3.0
 40
3.0
 40
4.0
 40
4.0
 40
4.0
 40
5.0
 40
5.0
 40
5.0
 40
5.0
 10
1.117451985677083
 20
1.329942491319444
 30
0.0
 10
1.117451985677083
 20
1.322238498263889
 30
0.0
 10
1.108418782552083
 20
1.315972222222222
 30
0.0
 10
1.097269694010417
 20
1.315972222222222
 30
0.0
 10
1.086093478732639
 20
1.315972222222222
 30
0.0
 10
1.077060275607639
 20
1.322238498263889
 30
0.0
 10
1.077060275607639
 20
1.329942491319444
 30
0.0
 10
1.077060275607639
 20
1.337673611111111
 30
0.0
 10
1.086093478732639
 20
1.343939887152778
 30
0.0
 10
1.097269694010417
 20
1.343939887152778
 30
0.0
 10
1.108418782552083
 20
1.343939887152778
 30
0.0
 10
1.117451985677083
 20
1.337673611111111
 30
0.0
 10
1.117451985677083
 20
1.329942491319444
 30
0.0
 10
1.117451985677083
 20
1.329942491319444
 30
0.0
 10
1.117451985677083
 20
1.329942491319444
 30
0.0
 10
1.117451985677083
 20
1.329942491319444
 30
0.0
  0
POLYLINE
  5
85
330
1F
100
AcDbEntity
  8
LAYER_1
100
AcDb2dPolyline
 66
     1
 10
0.0
 20
0.0
 30
0.0
  0
VERTEX
  5
86
330
85
100
AcDbEntity
  8
LAYER_1
100
AcDbVertex
100
AcDb2dVertex
 10
1.117451985677083
 20
1.329942491319444
 30
0.0
  0
VERTEX
  5
9B
330
85
100
AcDbEntity
  8
0
100
AcDbVertex
100
AcDb2dVertex
 10
1.117451985677083
 20
1.329942491319444
 30
0.0
  0
SEQEND
  5
87
330
85
100
AcDbEntity
  8
LAYER_1
  0
SPLINE
  5
88
330
1F
100
AcDbEntity
  8
LAYER_1
100
AcDbSpline
210
0.0
220
0.0
230
1.0
 70
    11
 71
     3
 72
    20
 73
    16
 74
     0
 42
0.0000000001
 43
0.0000000001
 40
0.0
 40
0.0
 40
0.0
 40
0.0
 40
1.0
 40
1.0
 40
1.0
 40
2.0
 40
2.0
 40
2.0
 40
3.0
 40
3.0
 40
3.0
 40
4.0
 40
4.0
 40
4.0
 40
5.0
 40
5.0
 40
5.0
 40
5.0
 10
1.183369954427083
 20
1.340766059027778
 30
0.0
 10
1.183369954427083
 20
1.333034939236111
 30
0.0
 10
1.174336751302083
 20
1.326768663194444
 30
0.0
 10
1.163187662760417
 20
1.326768663194444
 30
0.0
 10
1.152011447482639
 20
1.326768663194444
 30
0.0
 10
1.142978244357639
 20
1.333034939236111
 30
0.0
 10
1.142978244357639
 20
1.340766059027778
 30
0.0
 10
1.142978244357639
 20
1.348497178819444
 30
0.0
 10
1.152011447482639
 20
1.354763454861111
 30
0.0
 10
1.163187662760417
 20
1.354763454861111
 30
0.0
 10
1.174336751302083
 20
1.354763454861111
 30
0.0
 10
1.183369954427083
 20
1.348497178819444
 30
0.0
 10
1.183369954427083
 20
1.340766059027778
 30
0.0
 10
1.183369954427083
 20
1.340766059027778
 30
0.0
 10
1.183369954427083
 20
1.340766059027778
 30
0.0
 10
1.183369954427083
 20
1.340766059027778
 30
0.0
  0
POLYLINE
  5
89
330
1F
100
AcDbEntity
  8
LAYER_1
100
AcDb2dPolyline
 66
     1
 10
0.0
 20
0.0
 30
0.0
  0
VERTEX
  5
8A
330
89
100
AcDbEntity
  8
LAYER_1
100
AcDbVertex
100
AcDb2dVertex
 10
1.183369954427083
 20
1.340766059027778
 30
0.0
  0
VERTEX
  5
9C
330
89
100
AcDbEntity
  8
0
100
AcDbVertex
100
AcDb2dVertex
 10
1.183369954427083
 20
1.340766059027778
 30
0.0
  0
SEQEND
  5
8B
330
89
100
AcDbEntity
  8
LAYER_1
  0
ENDSEC
  0
SECTION
  2
OBJECTS
  0
DICTIONARY
  5
C
330
0
100
AcDbDictionary
  3
ACAD_GROUP
350
D
  3
ACAD_LAYOUT
350
1A
  3
ACAD_MLINESTYLE
350
17
  3
ACAD_PLOTSETTINGS
350
19
  3
ACAD_TABLESTYLE
350
BD
  3
ACAD_VISUALSTYLE
350
2A
  3
ACDBHEADERROUNDTRIPXREC
350
9D
  0
DICTIONARY
  5
D
102
{ACAD_REACTORS
330
C
102
}
330
C
100
AcDbDictionary
  0
DICTIONARY
  5
1A
102
{ACAD_REACTORS
330
C
102
}
330
C
100
AcDbDictionary
  0
DICTIONARY
  5
17
102
{ACAD_REACTORS
330
C
102
}
330
C
100
AcDbDictionary
  3
STANDARD
350
18
  0
DICTIONARY
  5
19
102
{ACAD_REACTORS
330
C
102
}
330
C
100
AcDbDictionary
  0
DICTIONARY
  5
BD
102
{ACAD_REACTORS
330
C
102
}
330
C
100
AcDbDictionary
  0
DICTIONARY
  5
2A
102
{ACAD_REACTORS
330
C
102
}
330
C
100
AcDbDictionary
  3
2DWIREFRAME
350
2F
  3
3DWIREFRAME
350
30
  3
3D_HIDDEN
350
31
  3
BASIC
350
32
  3
BRIGHTEN
350
36
  3
COLORCHANGE
350
3A
  3
CONCEPTUAL
350
34
  3
DIM
350
35
  3
FACEPATTERN
350
39
  3
FLAT
350
2B
  3
FLATWITHEDGES
350
2C
  3
GOURAUD
350
2D
  3
GOURAUDWITHEDGES
350
2E
  3
LINEPATTERN
350
38
  3
REALISTIC
350
33
  3
THICKEN
350
37
  0
DICTIONARY
  5
9D
102
{ACAD_REACTORS
330
C
102
}
330
C
100
AcDbDictionary
  3
CEPSNTYPE
350
A6
  3
DIMSTYLEDATA
350
BC
  3
FINGERPRINTGUID
350
A7
  3
HYPERLINKBASE
350
A0
  3
INSUNITS
350
A5
  3
LAYOUTDICT
350
A2
  3
LWETCUNION
350
A4
  3
PLOTSETDICT
350
A3
  3
PSVPSCALE
350
A9
  3
PUCSBASE
350
AC
  3
PUCSORGBACK
350
B2
  3
PUCSORGBOTTOM
350
AE
  3
PUCSORGFRONT
350
B1
  3
PUCSORGLEFT
350
AF
  3
PUCSORGRIGHT
350
B0
  3
PUCSORGTOP
350
AD
  3
PUCSORTHOREF
350
AA
  3
PUCSORTHOVIEW
350
AB
  3
STYLESHEET
350
A1
  3
TSTACKALIGN
350
9E
  3
TSTACKSIZE
350
9F
  3
UCSBASE
350
B5
  3
UCSORGBACK
350
BB
  3
UCSORGBOTTOM
350
B7
  3
UCSORGFRONT
350
BA
  3
UCSORGLEFT
350
B8
  3
UCSORGRIGHT
350
B9
  3
UCSORGTOP
350
B6
  3
UCSORTHOREF
350
B3
  3
UCSORTHOVIEW
350
B4
  3
VERSIONGUID
350
A8
  0
MLINESTYLE
  5
18
102
{ACAD_REACTORS
330
17
102
}
330
17
100
AcDbMlineStyle
  2
Standard
 70
     0
  3

 62
   256
 51
90.0
 52
90.0
 71
     2
 49
0.5
 62
   256
  6
BYLAYER
 49
-0.5
 62
   256
  6
BYLAYER
  0
VISUALSTYLE
  5
2F
102
{ACAD_REACTORS
330
2A
102
}
330
2A
100
AcDbVisualStyle
  2
2dWireframe
 70
     4
 71
     0
 72
     2
 73
     0
 90
        0
 40
-0.6
 41
-30.0
 62
     5
 63
     7
 74
     1
 91
        4
 64
     7
 65
   257
 75
     1
175
     1
 42
1.0
 92
        0
 66
   257
 43
1.0
 76
     1
 77
     6
 78
     2
 67
     7
 79
     5
170
     0
171
     0
290
     0
174
     0
 93
        1
 44
0.0
173
     0
291
     0
 45
0.0
1001
ACAD
1000
AcDbSavedByObjectVersion
1070
     0
  0
VISUALSTYLE
  5
30
102
{ACAD_REACTORS
330
2A
102
}
330
2A
100
AcDbVisualStyle
  2
3dWireframe
 70
     5
 71
     0
 72
     2
 73
     0
 90
        0
 40
-0.6
 41
-30.0
 62
     5
 63
     7
 74
     1
 91
        4
 64
     7
 65
   257
 75
     1
175
     1
 42
1.0
 92
        0
 66
   257
 43
1.0
 76
     1
 77
     6
 78
     2
 67
     7
 79
     5
170
     0
171
     0
290
     0
174
     0
 93
        1
 44
0.0
173
     0
291
     0
 45
0.0
1001
ACAD
1000
AcDbSavedByObjectVersion
1070
     0
  0
VISUALSTYLE
  5
31
102
{ACAD_REACTORS
330
2A
102
}
330
2A
100
AcDbVisualStyle
  2
3D Hidden
 70
     6
 71
     1
 72
     2
 73
     2
 90
        0
 40
-0.6
 41
-30.0
 62
     5
 63
     7
 74
     2
 91
        2
 64
     7
 65
   257
 75
     2
175
     1
 42
40.0
 92
        0
 66
   257
 43
1.0
 76
     1
 77
     6
 78
     2
 67
     7
 79
     3
170
     0
171
     0
290
     0
174
     0
 93
        1
 44
0.0
173
     0
291
     0
 45
0.0
1001
ACAD
1000
AcDbSavedByObjectVersion
1070
     0
  0
VISUALSTYLE
  5
32
102
{ACAD_REACTORS
330
2A
102
}
330
2A
100
AcDbVisualStyle
  2
Basic
 70
     7
 71
     1
 72
     0
 73
     1
 90
        0
 40
-0.6
 41
-30.0
 62
     5
 63
     7
 74
     0
 91
        4
 64
     7
 65
   257
 75
     1
175
     1
 42
1.0
 92
        8
 66
     7
 43
1.0
 76
     1
 77
     6
 78
     2
 67
     7
 79
     5
170
     0
171
     0
290
     0
174
     0
 93
        1
 44
0.0
173
     0
291
     1
 45
0.0
1001
ACAD
1000
AcDbSavedByObjectVersion
1070
     0
  0
VISUALSTYLE
  5
36
102
{ACAD_REACTORS
330
2A
102
}
330
2A
100
AcDbVisualStyle
  2
Brighten
 70
    12
 71
     2
 72
     2
 73
     0
 90
        0
 40
-0.6
 41
-30.0
 62
     5
 63
     7
 74
     1
 91
        4
 64
     7
 65
   257
 75
     1
175
     1
 42
1.0
 92
        8
 66
     7
 43
1.0
 76
     1
 77
     6
 78
     2
 67
     7
 79
     5
170
     0
171
     0
290
     0
174
     0
 93
        1
 44
50.0
173
     0
291
     1
 45
0.0
1001
ACAD
1000
AcDbSavedByObjectVersion
1070
     0
  0
VISUALSTYLE
  5
3A
102
{ACAD_REACTORS
330
2A
102
}
330
2A
100
AcDbVisualStyle
  2
ColorChange
 70
    16
 71
     2
 72
     2
 73
     3
 90
        0
 40
-0.6
 41
-30.0
 62
     5
 63
     8
 74
     1
 91
        4
 64
     7
 65
   257
 75
     1
175
     1
 42
1.0
 92
        8
 66
     8
 43
1.0
 76
     1
 77
     6
 78
     2
 67
     7
 79
     5
170
     0
171
     0
290
     0
174
     0
 93
        1
 44
0.0
173
     0
291
     1
 45
0.0
1001
ACAD
1000
AcDbSavedByObjectVersion
1070
     0
  0
VISUALSTYLE
  5
34
102
{ACAD_REACTORS
330
2A
102
}
330
2A
100
AcDbVisualStyle
  2
Conceptual
 70
     9
 71
     3
 72
     2
 73
     0
 90
        0
 40
-0.6
 41
-30.0
 62
     5
 63
     7
 74
     2
 91
        2
 64
     7
 65
   257
 75
     1
175
     1
 42
40.0
 92
        8
 66
     7
 43
1.0
 76
     1
 77
     6
 78
     2
 67
     7
 79
     3
170
     0
171
     0
290
     0
174
     0
 93
        1
 44
0.0
173
     0
291
     0
 45
0.0
1001
ACAD
1000
AcDbSavedByObjectVersion
1070
     0
  0
VISUALSTYLE
  5
35
102
{ACAD_REACTORS
330
2A
102
}
330
2A
100
AcDbVisualStyle
  2
Dim
 70
    11
 71
     2
 72
     2
 73
     0
 90
        0
 40
-0.6
 41
-30.0
 62
     5
 63
     7
 74
     1
 91
        4
 64
     7
 65
   257
 75
     1
175
     1
 42
1.0
 92
        8
 66
     7
 43
1.0
 76
     1
 77
     6
 78
     2
 67
     7
 79
     5
170
     0
171
     0
290
     0
174
     0
 93
        1
 44
-50.0
173
     0
291
     1
 45
0.0
1001
ACAD
1000
AcDbSavedByObjectVersion
1070
     0
  0
VISUALSTYLE
  5
39
102
{ACAD_REACTORS
330
2A
102
}
330
2A
100
AcDbVisualStyle
  2
Facepattern
 70
    15
 71
     2
 72
     2
 73
     0
 90
        0
 40
-0.6
 41
-30.0
 62
     5
 63
     7
 74
     1
 91
        4
 64
     7
 65
   257
 75
     1
175
     1
 42
1.0
 92
        8
 66
     7
 43
1.0
 76
     1
 77
     6
 78
     2
 67
     7
 79
     5
170
     0
171
     0
290
     0
174
     0
 93
        1
 44
0.0
173
     0
291
     1
 45
0.0
1001
ACAD
1000
AcDbSavedByObjectVersion
1070
     0
  0
VISUALSTYLE
  5
2B
102
{ACAD_REACTORS
330
2A
102
}
330
2A
100
AcDbVisualStyle
  2
Flat
 70
     0
 71
     2
 72
     1
 73
     1
 90
        2
 40
-0.6
 41
30.0
 62
     5
 63
     7
 74
     0
 91
        4
 64
     7
 65
   257
 75
     1
175
     1
 42
1.0
 92
        8
 66
     7
 43
1.0
 76
     1
 77
     6
 78
     2
 67
     7
 79
     5
170
     0
171
     0
290
     0
174
     0
 93
       13
 44
0.0
173
     0
291
     1
 45
0.0
1001
ACAD
1000
AcDbSavedByObjectVersion
1070
     0
  0
VISUALSTYLE
  5
2C
102
{ACAD_REACTORS
330
2A
102
}
330
2A
100
AcDbVisualStyle
  2
FlatWithEdges
 70
     1
 71
     2
 72
     1
 73
     1
 90
        2
 40
-0.6
 41
30.0
 62
     5
 63
     7
 74
     1
 91
        4
 64
     7
 65
   257
 75
     1
175
     1
 42
1.0
 92
        0
 66
   257
 43
1.0
 76
     1
 77
     6
 78
     2
 67
     7
 79
     5
170
     0
171
     0
290
     0
174
     0
 93
       13
 44
0.0
173
     0
291
     1
 45
0.0
1001
ACAD
1000
AcDbSavedByObjectVersion
1070
     0
  0
VISUALSTYLE
  5
2D
102
{ACAD_REACTORS
330
2A
102
}
330
2A
100
AcDbVisualStyle
  2
Gouraud
 70
     2
 71
     2
 72
     2
 73
     1
 90
        2
 40
-0.6
 41
30.0
 62
     5
 63
     7
 74
     0
 91
        4
 64
     7
 65
   257
 75
     1
175
     1
 42
1.0
 92
        0
 66
     7
 43
1.0
 76
     1
 77
     6
 78
     2
 67
     7
 79
     5
170
     0
171
     0
290
     0
174
     0
 93
       13
 44
0.0
173
     0
291
     1
 45
0.0
1001
ACAD
1000
AcDbSavedByObjectVersion
1070
     0
  0
VISUALSTYLE
  5
2E
102
{ACAD_REACTORS
330
2A
102
}
330
2A
100
AcDbVisualStyle
  2
GouraudWithEdges
 70
     3
 71
     2
 72
     2
 73
     1
 90
        2
 40
-0.6
 41
30.0
 62
     5
 63
     7
 74
     1
 91
        4
 64
     7
 65
   257
 75
     1
175
     1
 42
1.0
 92
        0
 66
   257
 43
1.0
 76
     1
 77
     6
 78
     2
 67
     7
 79
     5
170
     0
171
     0
290
     0
174
     0
 93
       13
 44
0.0
173
     0
291
     1
 45
0.0
1001
ACAD
1000
AcDbSavedByObjectVersion
1070
     0
  0
VISUALSTYLE
  5
38
102
{ACAD_REACTORS
330
2A
102
}
330
2A
100
AcDbVisualStyle
  2
Linepattern
 70
    14
 71
     2
 72
     2
 73
     0
 90
        0
 40
-0.6
 41
-30.0
 62
     5
 63
     7
 74
     1
 91
        4
 64
     7
 65
   257
 75
     7
175
     7
 42
1.0
 92
        8
 66
     7
 43
1.0
 76
     1
 77
     6
 78
     2
 67
     7
 79
     5
170
     0
171
     0
290
     0
174
     0
 93
        1
 44
0.0
173
     0
291
     1
 45
0.0
1001
ACAD
1000
AcDbSavedByObjectVersion
1070
     0
  0
VISUALSTYLE
  5
33
102
{ACAD_REACTORS
330
2A
102
}
330
2A
100
AcDbVisualStyle
  2
Realistic
 70
     8
 71
     2
 72
     2
 73
     0
 90
        0
 40
-0.6
 41
-30.0
 62
     5
 63
     7
 74
     1
 91
        0
 64
     7
 65
   257
 75
     1
175
     1
 42
1.0
 92
        8
 66
     8
 43
1.0
 76
     1
 77
     6
 78
     2
 67
     7
 79
     5
170
     0
171
     0
290
     0
174
     0
 93
       13
 44
0.0
173
     0
291
     0
 45
0.0
1001
ACAD
1000
AcDbSavedByObjectVersion
1070
     0
  0
VISUALSTYLE
  5
37
102
{ACAD_REACTORS
330
2A
102
}
330
2A
100
AcDbVisualStyle
  2
Thicken
 70
    13
 71
     2
 72
     2
 73
     0
 90
        0
 40
-0.6
 41
-30.0
 62
     5
 63
     7
 74
     1
 91
        4
 64
     7
 65
   257
 75
     1
175
     1
 42
1.0
 92
       12
 66
     7
 43
1.0
 76
     1
 77
     6
 78
     2
 67
     7
 79
     5
170
     0
171
     0
290
     0
174
     0
 93
        1
 44
0.0
173
     0
291
     1
 45
0.0
1001
ACAD
1000
AcDbSavedByObjectVersion
1070
     0
  0
XRECORD
  5
A6
102
{ACAD_REACTORS
330
9D
102
}
330
9D
100
AcDbXrecord
 90
        0
  0
XRECORD
  5
BC
102
{ACAD_REACTORS
330
9D
102
}
330
9D
100
AcDbXrecord
1000
DSTYLE
1002
{
1070
   340
340
11
1002
}
  0
XRECORD
  5
A7
102
{ACAD_REACTORS
330
9D
102
}
330
9D
100
AcDbXrecord
  1
{14B64666-EF0C-D411-9FED-C6729F0322A9}
  0
XRECORD
  5
A0
102
{ACAD_REACTORS
330
9D
102
}
330
9D
100
AcDbXrecord
  1

  0
XRECORD
  5
A5
102
{ACAD_REACTORS
330
9D
102
}
330
9D
100
AcDbXrecord
 90
        1
  0
XRECORD
  5
A2
102
{ACAD_REACTORS
330
9D
102
}
330
9D
100
AcDbXrecord
340
1A
  0
XRECORD
  5
A4
102
{ACAD_REACTORS
330
9D
102
}
330
9D
100
AcDbXrecord
 90
    10269
  0
XRECORD
  5
A3
102
{ACAD_REACTORS
330
9D
102
}
330
9D
100
AcDbXrecord
340
19
  0
XRECORD
  5
A9
102
{ACAD_REACTORS
330
9D
102
}
330
9D
100
AcDbXrecord
 40
0.0
  0
XRECORD
  5
AC
102
{ACAD_REACTORS
330
9D
102
}
330
9D
100
AcDbXrecord
340
0
  0
XRECORD
  5
B2
102
{ACAD_REACTORS
330
9D
102
}
330
9D
100
AcDbXrecord
 10
0.0
 20
0.0
 30
0.0
  0
XRECORD
  5
AE
102
{ACAD_REACTORS
330
9D
102
}
330
9D
100
AcDbXrecord
 10
0.0
 20
0.0
 30
0.0
  0
XRECORD
  5
B1
102
{ACAD_REACTORS
330
9D
102
}
330
9D
100
AcDbXrecord
 10
0.0
 20
0.0
 30
0.0
  0
XRECORD
  5
AF
102
{ACAD_REACTORS
330
9D
102
}
330
9D
100
AcDbXrecord
 10
0.0
 20
0.0
 30
0.0
  0
XRECORD
  5
B0
102
{ACAD_REACTORS
330
9D
102
}
330
9D
100
AcDbXrecord
 10
0.0
 20
0.0
 30
0.0
  0
XRECORD
  5
AD
102
{ACAD_REACTORS
330
9D
102
}
330
9D
100
AcDbXrecord
 10
0.0
 20
0.0
 30
0.0
  0
XRECORD
  5
AA
102
{ACAD_REACTORS
330
9D
102
}
330
9D
100
AcDbXrecord
340
0
  0
XRECORD
  5
AB
102
{ACAD_REACTORS
330
9D
102
}
330
9D
100
AcDbXrecord
 70
     0
  0
XRECORD
  5
A1
102
{ACAD_REACTORS
330
9D
102
}
330
9D
100
AcDbXrecord
  1

  0
XRECORD
  5
9E
102
{ACAD_REACTORS
330
9D
102
}
330
9D
100
AcDbXrecord
 90
        1
  0
XRECORD
  5
9F
102
{ACAD_REACTORS
330
9D
102
}
330
9D
100
AcDbXrecord
 90
       70
  0
XRECORD
  5
B5
102
{ACAD_REACTORS
330
9D
102
}
330
9D
100
AcDbXrecord
340
0
  0
XRECORD
  5
BB
102
{ACAD_REACTORS
330
9D
102
}
330
9D
100
AcDbXrecord
 10
0.0
 20
0.0
 30
0.0
  0
XRECORD
  5
B7
102
{ACAD_REACTORS
330
9D
102
}
330
9D
100
AcDbXrecord
 10
0.0
 20
0.0
 30
0.0
  0
XRECORD
  5
BA
102
{ACAD_REACTORS
330
9D
102
}
330
9D
100
AcDbXrecord
 10
0.0
 20
0.0
 30
0.0
  0
XRECORD
  5
B8
102
{ACAD_REACTORS
330
9D
102
}
330
9D
100
AcDbXrecord
 10
0.0
 20
0.0
 30
0.0
  0
XRECORD
  5
B9
102
{ACAD_REACTORS
330
9D
102
}
330
9D
100
AcDbXrecord
 10
0.0
 20
0.0
 30
0.0
  0
XRECORD
  5
B6
102
{ACAD_REACTORS
330
9D
102
}
330
9D
100
AcDbXrecord
 10
0.0
 20
0.0
 30
0.0
  0
XRECORD
  5
B3
102
{ACAD_REACTORS
330
9D
102
}
330
9D
100
AcDbXrecord
340
0
  0
XRECORD
  5
B4
102
{ACAD_REACTORS
330
9D
102
}
330
9D
100
AcDbXrecord
 70
     0
  0
XRECORD
  5
A8
102
{ACAD_REACTORS
330
9D
102
}
330
9D
100
AcDbXrecord
  1
{FAEB1C32-E019-11D5-929B-00C0DF256EC4}
  0
ENDSEC
  0
EOF
