  0
SECTION
  2
HEADER
  9
$ACADVER
  1
AC1014
  9
$ACADMAINTVER
 70
     9
  9
$DWGCODEPAGE
  3
ANSI_932
  9
$INSBASE
 10
0.0
 20
0.0
 30
0.0
  9
$EXTMIN
 10
1.000000000000000E+20
 20
1.000000000000000E+20
 30
1.000000000000000E+20
  9
$EXTMAX
 10
-1.000000000000000E+20
 20
-1.000000000000000E+20
 30
-1.000000000000000E+20
  9
$LIMMIN
 10
0.0
 20
0.0
  9
$LIMMAX
 10
12.0
 20
9.0
  9
$ORTHOMODE
 70
     0
  9
$REGENMODE
 70
     1
  9
$FILLMODE
 70
     1
  9
$QTEXTMODE
 70
     0
  9
$MIRRTEXT
 70
     1
  9
$DRAGMODE
 70
     2
  9
$LTSCALE
 40
1.0
  9
$OSMODE
 70
    37
  9
$ATTMODE
 70
     1
  9
$TEXTSIZE
 40
0.2
  9
$TRACEWID
 40
0.05
  9
$TEXTSTYLE
  7
STANDARD
  9
$CLAYER
  8
0
  9
$CELTYPE
  6
BYLAYER
  9
$CECOLOR
 62
   256
  9
$CELTSCALE
 40
1.0
  9
$DELOBJ
 70
     1
  9
$DISPSILH
 70
     0
  9
$DIMSCALE
 40
1.0
  9
$DIMASZ
 40
0.18
  9
$DIMEXO
 40
0.0625
  9
$DIMDLI
 40
0.38
  9
$DIMRND
 40
0.0
  9
$DIMDLE
 40
0.0
  9
$DIMEXE
 40
0.18
  9
$DIMTP
 40
0.0
  9
$DIMTM
 40
0.0
  9
$DIMTXT
 40
0.18
  9
$DIMCEN
 40
0.09
  9
$DIMTSZ
 40
0.0
  9
$DIMTOL
 70
     0
  9
$DIMLIM
 70
     0
  9
$DIMTIH
 70
     1
  9
$DIMTOH
 70
     1
  9
$DIMSE1
 70
     0
  9
$DIMSE2
 70
     0
  9
$DIMTAD
 70
     0
  9
$DIMZIN
 70
     0
  9
$DIMBLK
  1

  9
$DIMASO
 70
     1
  9
$DIMSHO
 70
     1
  9
$DIMPOST
  1

  9
$DIMAPOST
  1

  9
$DIMALT
 70
     0
  9
$DIMALTD
 70
     2
  9
$DIMALTF
 40
25.4
  9
$DIMLFAC
 40
1.0
  9
$DIMTOFL
 70
     0
  9
$DIMTVP
 40
0.0
  9
$DIMTIX
 70
     0
  9
$DIMSOXD
 70
     0
  9
$DIMSAH
 70
     0
  9
$DIMBLK1
  1

  9
$DIMBLK2
  1

  9
$DIMSTYLE
  2
STANDARD
  9
$DIMCLRD
 70
     0
  9
$DIMCLRE
 70
     0
  9
$DIMCLRT
 70
     0
  9
$DIMTFAC
 40
1.0
  9
$DIMGAP
 40
0.09
  9
$DIMJUST
 70
     0
  9
$DIMSD1
 70
     0
  9
$DIMSD2
 70
     0
  9
$DIMTOLJ
 70
     1
  9
$DIMTZIN
 70
     0
  9
$DIMALTZ
 70
     0
  9
$DIMALTTZ
 70
     0
  9
$DIMFIT
 70
     3
  9
$DIMUPT
 70
     0
  9
$DIMUNIT
 70
     2
  9
$DIMDEC
 70
     4
  9
$DIMTDEC
 70
     4
  9
$DIMALTU
 70
     2
  9
$DIMALTTD
 70
     2
  9
$DIMTXSTY
  7
STANDARD
  9
$DIMAUNIT
 70
     0
  9
$LUNITS
 70
     2
  9
$LUPREC
 70
     4
  9
$SKETCHINC
 40
0.1
  9
$FILLETRAD
 40
0.5
  9
$AUNITS
 70
     0
  9
$AUPREC
 70
     0
  9
$MENU
  1
.
  9
$ELEVATION
 40
0.0
  9
$PELEVATION
 40
0.0
  9
$THICKNESS
 40
0.0
  9
$LIMCHECK
 70
     0
  9
$CHAMFERA
 40
0.5
  9
$CHAMFERB
 40
0.5
  9
$CHAMFERC
 40
1.0
  9
$CHAMFERD
 40
0.0
  9
$SKPOLY
 70
     0
  9
$TDCREATE
 40
2456736.896747685
  9
$TDUPDATE
 40
2456736.896747697
  9
$TDINDWG
 40
0.0000000116
  9
$TDUSRTIMER
 40
0.0000000116
  9
$USRTIMER
 70
     1
  9
$ANGBASE
 50
0.0
  9
$ANGDIR
 70
     0
  9
$PDMODE
 70
     0
  9
$PDSIZE
 40
0.0
  9
$PLINEWID
 40
0.0
  9
$COORDS
 70
     1
  9
$SPLFRAME
 70
     0
  9
$SPLINETYPE
 70
     6
  9
$SPLINESEGS
 70
     8
  9
$ATTDIA
 70
     0
  9
$ATTREQ
 70
     1
  9
$HANDLING
 70
     1
  9
$HANDSEED
  5
D4
  9
$SURFTAB1
 70
     6
  9
$SURFTAB2
 70
     6
  9
$SURFTYPE
 70
     6
  9
$SURFU
 70
     6
  9
$SURFV
 70
     6
  9
$UCSNAME
  2

  9
$UCSORG
 10
0.0
 20
0.0
 30
0.0
  9
$UCSXDIR
 10
1.0
 20
0.0
 30
0.0
  9
$UCSYDIR
 10
0.0
 20
1.0
 30
0.0
  9
$PUCSNAME
  2

  9
$PUCSORG
 10
0.0
 20
0.0
 30
0.0
  9
$PUCSXDIR
 10
1.0
 20
0.0
 30
0.0
  9
$PUCSYDIR
 10
0.0
 20
1.0
 30
0.0
  9
$USERI1
 70
     0
  9
$USERI2
 70
     0
  9
$USERI3
 70
     0
  9
$USERI4
 70
     0
  9
$USERI5
 70
     0
  9
$USERR1
 40
0.0
  9
$USERR2
 40
0.0
  9
$USERR3
 40
0.0
  9
$USERR4
 40
0.0
  9
$USERR5
 40
0.0
  9
$WORLDVIEW
 70
     1
  9
$SHADEDGE
 70
     3
  9
$SHADEDIF
 70
    70
  9
$TILEMODE
 70
     1
  9
$MAXACTVP
 70
    64
  9
$PINSBASE
 10
0.0
 20
0.0
 30
0.0
  9
$PLIMCHECK
 70
     0
  9
$PEXTMIN
 10
1.000000000000000E+20
 20
1.000000000000000E+20
 30
1.000000000000000E+20
  9
$PEXTMAX
 10
-1.000000000000000E+20
 20
-1.000000000000000E+20
 30
-1.000000000000000E+20
  9
$PLIMMIN
 10
0.0
 20
0.0
  9
$PLIMMAX
 10
12.0
 20
9.0
  9
$UNITMODE
 70
     0
  9
$VISRETAIN
 70
     1
  9
$PLINEGEN
 70
     0
  9
$PSLTSCALE
 70
     1
  9
$TREEDEPTH
 70
  3020
  9
$PICKSTYLE
 70
     1
  9
$CMLSTYLE
  2
STANDARD
  9
$CMLJUST
 70
     0
  9
$CMLSCALE
 40
1.0
  9
$PROXYGRAPHICS
 70
     1
  9
$MEASUREMENT
 70
     0
  0
ENDSEC
  0
SECTION
  2
CLASSES
  0
CLASS
  1
ACDBDICTIONARYWDFLT
  2
AcDbDictionaryWithDefault
  3
ObjectDBX Classes
 90
        0
280
     0
281
     0
  0
CLASS
  1
VISUALSTYLE
  2
AcDbVisualStyle
  3
ObjectDBX Classes
 90
     4095
280
     0
281
     0
  0
CLASS
  1
XRECORD
  2
AcDbXrecord
  3
AutoCAD 2000
 90
        0
280
     0
281
     0
  0
CLASS
  1
LWPOLYLINE
  2
AcDbPolyline
  3
AutoCAD 2000
 90
        0
280
     0
281
     1
  0
CLASS
  1
HATCH
  2
AcDbHatch
  3
AutoCAD 2000
 90
        0
280
     0
281
     1
  0
CLASS
  1
ACDBPLACEHOLDER
  2
AcDbPlaceHolder
  3
ObjectDBX Classes
 90
        0
280
     0
281
     0
  0
CLASS
  1
LAYOUT
  2
AcDbLayout
  3
ObjectDBX Classes
 90
        0
280
     0
281
     0
  0
ENDSEC
  0
SECTION
  2
TABLES
  0
TABLE
  2
VPORT
  5
8
330
0
100
AcDbSymbolTable
 70
     1
  0
VPORT
  5
29
330
8
100
AcDbSymbolTableRecord
100
AcDbViewportTableRecord
  2
*ACTIVE
 70
     0
 10
0.0
 20
0.0
 11
1.0
 21
1.0
 12
0.0
 22
0.0
 13
0.0
 23
0.0
 14
0.5
 24
0.5
 15
0.5
 25
0.5
 16
0.0
 26
0.0
 36
1.0
 17
1.5
 27
1.5
 37
0.0
 40
3.0
 41
1.0
 42
50.0
 43
0.0
 44
0.0
 50
0.0
 51
0.0
 71
     0
 72
   100
 73
     1
 74
     3
 75
     0
 76
     0
 77
     0
 78
     0
  0
ENDTAB
  0
TABLE
  2
LTYPE
  5
5
330
0
100
AcDbSymbolTable
 70
     1
  0
LTYPE
  5
14
330
5
100
AcDbSymbolTableRecord
100
AcDbLinetypeTableRecord
  2
BYBLOCK
 70
     0
  3

 72
    65
 73
     0
 40
0.0
  0
LTYPE
  5
15
330
5
100
AcDbSymbolTableRecord
100
AcDbLinetypeTableRecord
  2
BYLAYER
 70
     0
  3

 72
    65
 73
     0
 40
0.0
  0
LTYPE
  5
16
330
5
100
AcDbSymbolTableRecord
100
AcDbLinetypeTableRecord
  2
CONTINUOUS
 70
     0
  3
Solid line
 72
    65
 73
     0
 40
0.0
  0
ENDTAB
  0
TABLE
  2
LAYER
  5
2
330
0
100
AcDbSymbolTable
 70
     3
  0
LAYER
  5
10
330
2
100
AcDbSymbolTableRecord
100
AcDbLayerTableRecord
  2
0
 70
     0
 62
     7
  6
CONTINUOUS
  0
LAYER
  5
3B
330
2
100
AcDbSymbolTableRecord
100
AcDbLayerTableRecord
  2
LAYER_1
 70
     0
 62
     7
  6
CONTINUOUS
  0
LAYER
  5
46
330
2
100
AcDbSymbolTableRecord
100
AcDbLayerTableRecord
  2
____2
 70
     0
 62
     7
  6
CONTINUOUS
  0
ENDTAB
  0
TABLE
  2
STYLE
  5
3
330
0
100
AcDbSymbolTable
 70
     1
  0
STYLE
  5
11
330
3
100
AcDbSymbolTableRecord
100
AcDbTextStyleTableRecord
  2
STANDARD
 70
     0
 40
0.0
 41
1.0
 50
0.0
 71
     0
 42
0.2
  3
txt
  4

  0
ENDTAB
  0
TABLE
  2
VIEW
  5
6
330
0
100
AcDbSymbolTable
 70
     0
  0
ENDTAB
  0
TABLE
  2
UCS
  5
7
330
0
100
AcDbSymbolTable
 70
     0
  0
ENDTAB
  0
TABLE
  2
APPID
  5
9
330
0
100
AcDbSymbolTable
 70
     1
  0
APPID
  5
12
330
9
100
AcDbSymbolTableRecord
100
AcDbRegAppTableRecord
  2
ACAD
 70
     0
  0
ENDTAB
  0
TABLE
  2
DIMSTYLE
  5
A
330
0
100
AcDbSymbolTable
 70
     1
  0
DIMSTYLE
105
27
330
A
100
AcDbSymbolTableRecord
100
AcDbDimStyleTableRecord
  2
STANDARD
 70
     0
  3

  4

  5

  6

  7

 40
1.0
 41
0.18
 42
0.0625
 43
0.38
 44
0.18
 45
0.0
 46
0.0
 47
0.0
 48
0.0
140
0.18
141
0.09
142
0.0
143
25.4
144
1.0
145
0.0
146
1.0
147
0.09
 71
     0
 72
     0
 73
     1
 74
     1
 75
     0
 76
     0
 77
     0
 78
     0
170
     0
171
     2
172
     0
173
     0
174
     0
175
     0
176
     0
177
     0
178
     0
270
     2
271
     4
272
     4
273
     2
274
     2
340
11
275
     0
280
     0
281
     0
282
     0
283
     1
284
     0
285
     0
286
     0
287
     3
288
     0
  0
ENDTAB
  0
TABLE
  2
BLOCK_RECORD
  5
1
330
0
100
AcDbSymbolTable
 70
     1
  0
BLOCK_RECORD
  5
1F
330
1
100
AcDbSymbolTableRecord
100
AcDbBlockTableRecord
  2
*MODEL_SPACE
  0
BLOCK_RECORD
  5
1B
330
1
100
AcDbSymbolTableRecord
100
AcDbBlockTableRecord
  2
*PAPER_SPACE
  0
ENDTAB
  0
ENDSEC
  0
SECTION
  2
BLOCKS
  0
BLOCK
  5
20
330
1F
100
AcDbEntity
  8
0
100
AcDbBlockBegin
  2
*MODEL_SPACE
 70
     0
 71
     0
 10
0.0
 20
0.0
 30
0.0
  3
*MODEL_SPACE
  1

  0
ENDBLK
  5
21
330
1F
100
AcDbEntity
  8
0
100
AcDbBlockEnd
  0
BLOCK
  5
1C
330
1B
100
AcDbEntity
 67
     1
  8
0
100
AcDbBlockBegin
  2
*PAPER_SPACE
 70
     0
 71
     0
 10
0.0
 20
0.0
 30
0.0
  3
*PAPER_SPACE
  1

  0
ENDBLK
  5
1D
330
1B
100
AcDbEntity
 67
     1
  8
0
100
AcDbBlockEnd
  0
ENDSEC
  0
SECTION
  2
ENTITIES
  0
SPLINE
  5
3C
330
1F
100
AcDbEntity
  8
LAYER_1
100
AcDbSpline
210
0.0
220
0.0
230
1.0
 70
    11
 71
     3
 72
   173
 73
   169
 74
     0
 42
0.0000000001
 43
0.0000000001
 40
0.0
 40
0.0
 40
0.0
 40
0.0
 40
1.0
 40
1.0
 40
1.0
 40
2.0
 40
2.0
 40
2.0
 40
3.0
 40
3.0
 40
3.0
 40
4.0
 40
4.0
 40
4.0
 40
5.0
 40
5.0
 40
5.0
 40
6.0
 40
6.0
 40
6.0
 40
7.0
 40
7.0
 40
7.0
 40
8.0
 40
8.0
 40
8.0
 40
9.0
 40
9.0
 40
9.0
 40
10.0
 40
10.0
 40
10.0
 40
11.0
 40
11.0
 40
11.0
 40
12.0
 40
12.0
 40
12.0
 40
13.0
 40
13.0
 40
13.0
 40
14.0
 40
14.0
 40
14.0
 40
15.0
 40
15.0
 40
15.0
 40
16.0
 40
16.0
 40
16.0
 40
17.0
 40
17.0
 40
17.0
 40
18.0
 40
18.0
 40
18.0
 40
19.0
 40
19.0
 40
19.0
 40
20.0
 40
20.0
 40
20.0
 40
21.0
 40
21.0
 40
21.0
 40
22.0
 40
22.0
 40
22.0
 40
23.0
 40
23.0
 40
23.0
 40
24.0
 40
24.0
 40
24.0
 40
25.0
 40
25.0
 40
25.0
 40
26.0
 40
26.0
 40
26.0
 40
27.0
 40
27.0
 40
27.0
 40
28.0
 40
28.0
 40
28.0
 40
29.0
 40
29.0
 40
29.0
 40
30.0
 40
30.0
 40
30.0
 40
31.0
 40
31.0
 40
31.0
 40
32.0
 40
32.0
 40
32.0
 40
33.0
 40
33.0
 40
33.0
 40
34.0
 40
34.0
 40
34.0
 40
35.0
 40
35.0
 40
35.0
 40
36.0
 40
36.0
 40
36.0
 40
37.0
 40
37.0
 40
37.0
 40
38.0
 40
38.0
 40
38.0
 40
39.0
 40
39.0
 40
39.0
 40
40.0
 40
40.0
 40
40.0
 40
41.0
 40
41.0
 40
41.0
 40
42.0
 40
42.0
 40
42.0
 40
43.0
 40
43.0
 40
43.0
 40
44.0
 40
44.0
 40
44.0
 40
45.0
 40
45.0
 40
45.0
 40
46.0
 40
46.0
 40
46.0
 40
47.0
 40
47.0
 40
47.0
 40
48.0
 40
48.0
 40
48.0
 40
49.0
 40
49.0
 40
49.0
 40
50.0
 40
50.0
 40
50.0
 40
51.0
 40
51.0
 40
51.0
 40
52.0
 40
52.0
 40
52.0
 40
53.0
 40
53.0
 40
53.0
 40
54.0
 40
54.0
 40
54.0
 40
55.0
 40
55.0
 40
55.0
 40
56.0
 40
56.0
 40
56.0
 40
56.0
 10
2.695027669270833
 20
1.861490885416667
 30
0.0
 10
2.695027669270833
 20
1.861490885416667
 30
0.0
 10
2.696872287326389
 20
1.904513888888889
 30
0.0
 10
2.696872287326389
 20
1.904513888888889
 30
0.0
 10
2.491767035590278
 20
1.945529513888889
 30
0.0
 10
2.160332573784722
 20
1.931382921006944
 30
0.0
 10
2.162977430555555
 20
1.944132486979167
 30
0.0
 10
2.176744249131944
 20
2.0103759765625
 30
0.0
 10
2.181165907118055
 20
2.084452311197917
 30
0.0
 10
2.181165907118055
 20
2.165554470486111
 30
0.0
 10
2.181165907118055
 20
2.304253472222222
 30
0.0
 10
2.129055447048611
 20
2.415208604600694
 30
0.0
 10
2.044460720486111
 20
2.499640570746528
 30
0.0
 10
2.059244791666667
 20
2.547356499565972
 30
0.0
 10
2.078993055555555
 20
2.653333875868055
 30
0.0
 10
2.024739583333333
 20
2.788994683159722
 30
0.0
 10
2.024739583333333
 20
2.788994683159722
 30
0.0
 10
1.929036458333333
 20
2.819383409288194
 30
0.0
 10
1.712565104166667
 20
2.67449951171875
 30
0.0
 10
1.627766927083333
 20
2.695692274305555
 30
0.0
 10
1.537516276041667
 20
2.706156412760417
 30
0.0
 10
1.447123209635417
 20
2.706156412760417
 30
0.0
 10
1.347676595052083
 20
2.706156412760417
 30
0.0
 10
1.247199164496528
 20
2.693495008680555
 30
0.0
 10
1.153476291232639
 20
2.66778564453125
 30
0.0
 10
0.9300604926215277
 20
2.820217556423611
 30
0.0
 10
0.8314412434895833
 20
2.788994683159722
 30
0.0
 10
0.8314412434895833
 20
2.788994683159722
 30
0.0
 10
0.767055935329861
 20
2.628024631076389
 30
0.0
 10
0.8068644205729166
 20
2.508836534288194
 30
0.0
 10
0.8189629448784722
 20
2.479234483506944
 30
0.0
 10
0.7432929144965278
 20
2.3975830078125
 30
0.0
 10
0.6970960828993055
 20
2.293348524305555
 30
0.0
 10
0.6970960828993055
 20
2.165554470486111
 30
0.0
 10
0.6970960828993055
 20
2.083869086371528
 30
0.0
 10
0.704983181423611
 20
2.009304470486111
 30
0.0
 10
0.7236870659722222
 20
1.942701551649305
 30
0.0
 10
0.727077907986111
 20
1.930643717447917
 30
0.0
 10
0.3956976996527777
 20
1.944064670138889
 30
0.0
 10
0.1979166666666667
 20
1.904513888888889
 30
0.0
 10
0.1979166666666667
 20
1.904513888888889
 30
0.0
 10
0.2077433268229167
 20
1.861490885416667
 30
0.0
 10
0.2077433268229167
 20
1.861490885416667
 30
0.0
 10
0.4067043728298611
 20
1.901285807291667
 30
0.0
 10
0.61077880859375
 20
1.902669270833333
 30
0.0
 10
0.7384236653645833
 20
1.897840711805555
 30
0.0
 10
0.7443372938368055
 20
1.882269965277778
 30
0.0
 10
0.75091552734375
 20
1.867160373263889
 30
0.0
 10
0.7582939995659722
 20
1.852566189236111
 30
0.0
 10
0.6320732964409722
 20
1.848497178819444
 30
0.0
 10
0.41656494140625
 20
1.832411024305555
 30
0.0
 10
0.21002197265625
 20
1.774142795138889
 30
0.0
 10
0.21002197265625
 20
1.774142795138889
 30
0.0
 10
0.2170138888888889
 20
1.730902777777778
 30
0.0
 10
0.2170138888888889
 20
1.730902777777778
 30
0.0
 10
0.4251844618055555
 20
1.789605034722222
 30
0.0
 10
0.7752007378472222
 20
1.822007921006944
 30
0.0
 10
0.7819078233506944
 20
1.811760796440972
 30
0.0
 10
0.8621690538194444
 20
1.689195421006944
 30
0.0
 10
1.007622612847222
 20
1.609836154513889
 30
0.0
 10
1.251729329427083
 20
1.583523220486111
 30
0.0
 10
1.214185926649306
 20
1.558295355902778
 30
0.0
 10
1.175896538628472
 20
1.515407986111111
 30
0.0
 10
1.160366482204861
 20
1.442843967013889
 30
0.0
 10
1.109205457899306
 20
1.418375651041667
 30
0.0
 10
0.9472588433159722
 20
1.358642578125
 30
0.0
 10
0.8500908745659722
 20
1.525770399305556
 30
0.0
 10
0.8500908745659722
 20
1.525770399305556
 30
0.0
 10
0.7957017686631944
 20
1.625217013888889
 30
0.0
 10
0.6916029188368055
 20
1.633002387152778
 30
0.0
 10
0.6916029188368055
 20
1.633002387152778
 30
0.0
 10
0.5906100802951388
 20
1.634548611111111
 30
0.0
 10
0.6846177842881944
 20
1.570068359375
 30
0.0
 10
0.6846177842881944
 20
1.570068359375
 30
0.0
 10
0.7522040473090278
 20
1.538221571180556
 30
0.0
 10
0.7988213433159722
 20
1.418565538194444
 30
0.0
 10
0.7988213433159722
 20
1.418565538194444
 30
0.0
 10
0.8596394856770833
 20
1.214463975694444
 30
0.0
 10
1.153150770399306
 20
1.279947916666667
 30
0.0
 10
1.153150770399306
 20
1.279947916666667
 30
0.0
 10
1.153150770399306
 20
1.069118923611111
 30
0.0
 10
1.153150770399306
 20
1.069118923611111
 30
0.0
 10
1.153150770399306
 20
1.069118923611111
 30
0.0
 10
1.146938747829861
 20
0.9945475260416666
 30
0.0
 10
1.078579372829861
 20
0.9696994357638888
 30
0.0
 10
1.078579372829861
 20
0.9696994357638888
 30
0.0
 10
1.038187662760417
 20
0.9417317708333333
 30
0.0
 10
1.081698947482639
 20
0.9262152777777777
 30
0.0
 10
1.081698947482639
 20
0.9262152777777777
 30
0.0
 10
1.271206325954861
 20
0.910671657986111
 30
0.0
 10
1.271206325954861
 20
1.065999348958333
 30
0.0
 10
1.271206325954861
 20
1.065999348958333
 30
0.0
 10
1.271206325954861
 20
1.2958984375
 30
0.0
 10
1.271206325954861
 20
1.2958984375
 30
0.0
 10
1.271206325954861
 20
1.2958984375
 30
0.0
 10
1.263705783420139
 20
1.387071397569444
 30
0.0
 10
1.308478461371528
 20
1.418755425347222
 30
0.0
 10
1.308478461371528
 20
1.418755425347222
 30
0.0
 10
1.308478461371528
 20
1.041151258680556
 30
0.0
 10
1.308478461371528
 20
1.041151258680556
 30
0.0
 10
1.308478461371528
 20
1.041151258680556
 30
0.0
 10
1.305386013454861
 20
0.9510633680555555
 30
0.0
 10
1.258782280815972
 20
0.9168836805555555
 30
0.0
 10
1.258782280815972
 20
0.9168836805555555
 30
0.0
 10
1.227708604600694
 20
0.8609754774305555
 30
0.0
 10
1.296054416232639
 20
0.876491970486111
 30
0.0
 10
1.296054416232639
 20
0.876491970486111
 30
0.0
 10
1.426534016927083
 20
0.8951280381944444
 30
0.0
 10
1.432746039496528
 20
1.04736328125
 30
0.0
 10
1.432746039496528
 20
1.04736328125
 30
0.0
 10
1.435716417100694
 20
1.429497612847222
 30
0.0
 10
1.435716417100694
 20
1.429497612847222
 30
0.0
 10
1.435716417100694
 20
1.429497612847222
 30
0.0
 10
1.467068142361111
 20
1.429497612847222
 30
0.0
 10
1.467068142361111
 20
1.429497612847222
 30
0.0
 10
1.467068142361111
 20
1.429497612847222
 30
0.0
 10
1.470052083333333
 20
1.04736328125
 30
0.0
 10
1.470052083333333
 20
1.04736328125
 30
0.0
 10
1.476264105902778
 20
0.8951280381944444
 30
0.0
 10
1.606743706597222
 20
0.876491970486111
 30
0.0
 10
1.606743706597222
 20
0.876491970486111
 30
0.0
 10
1.675075954861111
 20
0.8609754774305555
 30
0.0
 10
1.644015842013889
 20
0.9168836805555555
 30
0.0
 10
1.644015842013889
 20
0.9168836805555555
 30
0.0
 10
1.597412109375
 20
0.9510633680555555
 30
0.0
 10
1.594319661458333
 20
1.041151258680556
 30
0.0
 10
1.594319661458333
 20
1.041151258680556
 30
0.0
 10
1.594319661458333
 20
1.041151258680556
 30
0.0
 10
1.594319661458333
 20
1.415500217013889
 30
0.0
 10
1.594319661458333
 20
1.415500217013889
 30
0.0
 10
1.639078776041667
 20
1.380642361111111
 30
0.0
 10
1.631591796875
 20
1.2958984375
 30
0.0
 10
1.631591796875
 20
1.2958984375
 30
0.0
 10
1.631591796875
 20
1.2958984375
 30
0.0
 10
1.631591796875
 20
1.065999348958333
 30
0.0
 10
1.631591796875
 20
1.065999348958333
 30
0.0
 10
1.631591796875
 20
0.910671657986111
 30
0.0
 10
1.821099175347222
 20
0.9262152777777777
 30
0.0
 10
1.821099175347222
 20
0.9262152777777777
 30
0.0
 10
1.864583333333333
 20
0.9417317708333333
 30
0.0
 10
1.82421875
 20
0.9696994357638888
 30
0.0
 10
1.82421875
 20
0.9696994357638888
 30
0.0
 10
1.755859375
 20
0.9945475260416666
 30
0.0
 10
1.749647352430555
 20
1.069118923611111
 30
0.0
 10
1.749647352430555
 20
1.069118923611111
 30
0.0
 10
1.749647352430555
 20
1.069118923611111
 30
0.0
 10
1.749647352430555
 20
1.370469835069444
 30
0.0
 10
1.749647352430555
 20
1.370469835069444
 30
0.0
 10
1.749647352430555
 20
1.487982855902778
 30
0.0
 10
1.700168185763889
 20
1.550211588541667
 30
0.0
 10
1.651774088541667
 20
1.583062065972222
 30
0.0
 10
1.91552734375
 20
1.609212239583333
 30
0.0
 10
2.050998263888889
 20
1.690544976128472
 30
0.0
 10
2.118489583333333
 20
1.816691080729167
 30
0.0
 10
2.123182508680555
 20
1.825459798177083
 30
0.0
 10
2.471232096354167
 20
1.797085232204861
 30
0.0
 10
2.683932834201389
 20
1.737080891927083
 30
0.0
 10
2.683932834201389
 20
1.737080891927083
 30
0.0
 10
2.6927490234375
 20
1.774142795138889
 30
0.0
 10
2.6927490234375
 20
1.774142795138889
 30
0.0
 10
2.481268988715278
 20
1.833794487847222
 30
0.0
 10
2.2603759765625
 20
1.849229600694444
 30
0.0
 10
2.135565863715278
 20
1.852864583333333
 30
0.0
 10
2.1414794921875
 20
1.867160373263889
 30
0.0
 10
2.146633572048611
 20
1.882025824652778
 30
0.0
 10
2.151217990451389
 20
1.897325303819444
 30
0.0
 10
2.277682834201389
 20
1.902723524305555
 30
0.0
 10
2.489108615451389
 20
1.902669270833333
 30
0.0
 10
2.695027669270833
 20
1.861490885416667
 30
0.0
  0
SPLINE
  5
3D
330
1F
100
AcDbEntity
  8
LAYER_1
100
AcDbSpline
210
0.0
220
0.0
230
1.0
 70
    11
 71
     3
 72
    17
 73
    13
 74
     0
 42
0.0000000001
 43
0.0000000001
 40
0.0
 40
0.0
 40
0.0
 40
0.0
 40
1.0
 40
1.0
 40
1.0
 40
2.0
 40
2.0
 40
2.0
 40
3.0
 40
3.0
 40
3.0
 40
4.0
 40
4.0
 40
4.0
 40
4.0
 10
0.7164645724826388
 20
1.594156901041667
 30
0.0
 10
0.7053154839409722
 20
1.594156901041667
 30
0.0
 10
0.6962687174479166
 20
1.600396050347222
 30
0.0
 10
0.6962687174479166
 20
1.608127170138889
 30
0.0
 10
0.6962687174479166
 20
1.615858289930555
 30
0.0
 10
0.7053154839409722
 20
1.622124565972222
 30
0.0
 10
0.7164645724826388
 20
1.622124565972222
 30
0.0
 10
0.7276136610243055
 20
1.622124565972222
 30
0.0
 10
0.7366739908854166
 20
1.615858289930555
 30
0.0
 10
0.7366739908854166
 20
1.608127170138889
 30
0.0
 10
0.7366739908854166
 20
1.600396050347222
 30
0.0
 10
0.7276136610243055
 20
1.594156901041667
 30
0.0
 10
0.7164645724826388
 20
1.594156901041667
 30
0.0
  0
SPLINE
  5
3E
330
1F
100
AcDbEntity
  8
LAYER_1
100
AcDbSpline
210
0.0
220
0.0
230
1.0
 70
    11
 71
     3
 72
    17
 73
    13
 74
     0
 42
0.0000000001
 43
0.0000000001
 40
0.0
 40
0.0
 40
0.0
 40
0.0
 40
1.0
 40
1.0
 40
1.0
 40
2.0
 40
2.0
 40
2.0
 40
3.0
 40
3.0
 40
3.0
 40
4.0
 40
4.0
 40
4.0
 40
4.0
 10
0.7522040473090278
 20
1.577067057291667
 30
0.0
 10
0.7522040473090278
 20
1.584771050347222
 30
0.0
 10
0.7612508138020833
 20
1.591037326388889
 30
0.0
 10
0.77239990234375
 20
1.591037326388889
 30
0.0
 10
0.7835489908854166
 20
1.591037326388889
 30
0.0
 10
0.7926093207465277
 20
1.584771050347222
 30
0.0
 10
0.7926093207465277
 20
1.577067057291667
 30
0.0
 10
0.7926093207465277
 20
1.5693359375
 30
0.0
 10
0.7835489908854166
 20
1.563069661458333
 30
0.0
 10
0.77239990234375
 20
1.563069661458333
 30
0.0
 10
0.7612508138020833
 20
1.563069661458333
 30
0.0
 10
0.7522040473090278
 20
1.5693359375
 30
0.0
 10
0.7522040473090278
 20
1.577067057291667
 30
0.0
  0
SPLINE
  5
3F
330
1F
100
AcDbEntity
  8
LAYER_1
100
AcDbSpline
210
0.0
220
0.0
230
1.0
 70
    11
 71
     3
 72
    17
 73
    13
 74
     0
 42
0.0000000001
 43
0.0000000001
 40
0.0
 40
0.0
 40
0.0
 40
0.0
 40
1.0
 40
1.0
 40
1.0
 40
2.0
 40
2.0
 40
2.0
 40
3.0
 40
3.0
 40
3.0
 40
4.0
 40
4.0
 40
4.0
 40
4.0
 10
0.7863972981770833
 20
1.536648220486111
 30
0.0
 10
0.7863972981770833
 20
1.544379340277778
 30
0.0
 10
0.7954305013020833
 20
1.550645616319444
 30
0.0
 10
0.80657958984375
 20
1.550645616319444
 30
0.0
 10
0.8177422417534722
 20
1.550645616319444
 30
0.0
 10
0.8267890082465277
 20
1.544379340277778
 30
0.0
 10
0.8267890082465277
 20
1.536648220486111
 30
0.0
 10
0.8267890082465277
 20
1.528944227430556
 30
0.0
 10
0.8177422417534722
 20
1.522677951388889
 30
0.0
 10
0.80657958984375
 20
1.522677951388889
 30
0.0
 10
0.7954305013020833
 20
1.522677951388889
 30
0.0
 10
0.7863972981770833
 20
1.528944227430556
 30
0.0
 10
0.7863972981770833
 20
1.536648220486111
 30
0.0
  0
SPLINE
  5
40
330
1F
100
AcDbEntity
  8
LAYER_1
100
AcDbSpline
210
0.0
220
0.0
230
1.0
 70
    11
 71
     3
 72
    17
 73
    13
 74
     0
 42
0.0000000001
 43
0.0000000001
 40
0.0
 40
0.0
 40
0.0
 40
0.0
 40
1.0
 40
1.0
 40
1.0
 40
2.0
 40
2.0
 40
2.0
 40
3.0
 40
3.0
 40
3.0
 40
4.0
 40
4.0
 40
4.0
 40
4.0
 10
0.8376668294270833
 20
1.476047092013889
 30
0.0
 10
0.826504177517361
 20
1.476047092013889
 30
0.0
 10
0.8174574110243055
 20
1.482313368055556
 30
0.0
 10
0.8174574110243055
 20
1.490044487847222
 30
0.0
 10
0.8174574110243055
 20
1.497775607638889
 30
0.0
 10
0.826504177517361
 20
1.504041883680556
 30
0.0
 10
0.8376668294270833
 20
1.504041883680556
 30
0.0
 10
0.84881591796875
 20
1.504041883680556
 30
0.0
 10
0.85784912109375
 20
1.497775607638889
 30
0.0
 10
0.85784912109375
 20
1.490044487847222
 30
0.0
 10
0.85784912109375
 20
1.482313368055556
 30
0.0
 10
0.84881591796875
 20
1.476047092013889
 30
0.0
 10
0.8376668294270833
 20
1.476047092013889
 30
0.0
  0
SPLINE
  5
41
330
1F
100
AcDbEntity
  8
LAYER_1
100
AcDbSpline
210
0.0
220
0.0
230
1.0
 70
    11
 71
     3
 72
    17
 73
    13
 74
     0
 42
0.0000000001
 43
0.0000000001
 40
0.0
 40
0.0
 40
0.0
 40
0.0
 40
1.0
 40
1.0
 40
1.0
 40
2.0
 40
2.0
 40
2.0
 40
3.0
 40
3.0
 40
3.0
 40
4.0
 40
4.0
 40
4.0
 40
4.0
 10
0.8718465169270833
 20
1.432562934027778
 30
0.0
 10
0.8606974283854166
 20
1.432562934027778
 30
0.0
 10
0.8516370985243055
 20
1.438829210069444
 30
0.0
 10
0.8516370985243055
 20
1.446533203125
 30
0.0
 10
0.8516370985243055
 20
1.454264322916667
 30
0.0
 10
0.8606974283854166
 20
1.460530598958333
 30
0.0
 10
0.8718465169270833
 20
1.460530598958333
 30
0.0
 10
0.88299560546875
 20
1.460530598958333
 30
0.0
 10
0.8920423719618055
 20
1.454264322916667
 30
0.0
 10
0.8920423719618055
 20
1.446533203125
 30
0.0
 10
0.8920423719618055
 20
1.438829210069444
 30
0.0
 10
0.88299560546875
 20
1.432562934027778
 30
0.0
 10
0.8718465169270833
 20
1.432562934027778
 30
0.0
  0
SPLINE
  5
42
330
1F
100
AcDbEntity
  8
LAYER_1
100
AcDbSpline
210
0.0
220
0.0
230
1.0
 70
    11
 71
     3
 72
    17
 73
    13
 74
     0
 42
0.0000000001
 43
0.0000000001
 40
0.0
 40
0.0
 40
0.0
 40
0.0
 40
1.0
 40
1.0
 40
1.0
 40
2.0
 40
2.0
 40
2.0
 40
3.0
 40
3.0
 40
3.0
 40
4.0
 40
4.0
 40
4.0
 40
4.0
 10
0.9184502495659722
 20
1.395263671875
 30
0.0
 10
0.9073011610243055
 20
1.395263671875
 30
0.0
 10
0.8982679578993055
 20
1.401529947916667
 30
0.0
 10
0.8982679578993055
 20
1.409261067708333
 30
0.0
 10
0.8982679578993055
 20
1.416965060763889
 30
0.0
 10
0.9073011610243055
 20
1.423231336805556
 30
0.0
 10
0.9184502495659722
 20
1.423231336805556
 30
0.0
 10
0.9296129014756944
 20
1.423231336805556
 30
0.0
 10
0.93865966796875
 20
1.416965060763889
 30
0.0
 10
0.93865966796875
 20
1.409261067708333
 30
0.0
 10
0.93865966796875
 20
1.401529947916667
 30
0.0
 10
0.9296129014756944
 20
1.395263671875
 30
0.0
 10
0.9184502495659722
 20
1.395263671875
 30
0.0
  0
SPLINE
  5
43
330
1F
100
AcDbEntity
  8
LAYER_1
100
AcDbSpline
210
0.0
220
0.0
230
1.0
 70
    11
 71
     3
 72
    17
 73
    13
 74
     0
 42
0.0000000001
 43
0.0000000001
 40
0.0
 40
0.0
 40
0.0
 40
0.0
 40
1.0
 40
1.0
 40
1.0
 40
2.0
 40
2.0
 40
2.0
 40
3.0
 40
3.0
 40
3.0
 40
4.0
 40
4.0
 40
4.0
 40
4.0
 10
0.9837171766493055
 20
1.370415581597222
 30
0.0
 10
0.9725545247395833
 20
1.370415581597222
 30
0.0
 10
0.9635077582465277
 20
1.376681857638889
 30
0.0
 10
0.9635077582465277
 20
1.384385850694444
 30
0.0
 10
0.9635077582465277
 20
1.392116970486111
 30
0.0
 10
0.9725545247395833
 20
1.398383246527778
 30
0.0
 10
0.9837171766493055
 20
1.398383246527778
 30
0.0
 10
0.9948662651909722
 20
1.398383246527778
 30
0.0
 10
1.003913031684028
 20
1.392116970486111
 30
0.0
 10
1.003913031684028
 20
1.384385850694444
 30
0.0
 10
1.003913031684028
 20
1.376681857638889
 30
0.0
 10
0.9948662651909722
 20
1.370415581597222
 30
0.0
 10
0.9837171766493055
 20
1.370415581597222
 30
0.0
  0
SPLINE
  5
44
330
1F
100
AcDbEntity
  8
LAYER_1
100
AcDbSpline
210
0.0
220
0.0
230
1.0
 70
    11
 71
     3
 72
    17
 73
    13
 74
     0
 42
0.0000000001
 43
0.0000000001
 40
0.0
 40
0.0
 40
0.0
 40
0.0
 40
1.0
 40
1.0
 40
1.0
 40
2.0
 40
2.0
 40
2.0
 40
3.0
 40
3.0
 40
3.0
 40
4.0
 40
4.0
 40
4.0
 40
4.0
 10
1.048658582899306
 20
1.370415581597222
 30
0.0
 10
1.037495930989583
 20
1.370415581597222
 30
0.0
 10
1.028449164496528
 20
1.376681857638889
 30
0.0
 10
1.028449164496528
 20
1.384385850694444
 30
0.0
 10
1.028449164496528
 20
1.392116970486111
 30
0.0
 10
1.037495930989583
 20
1.398383246527778
 30
0.0
 10
1.048658582899306
 20
1.398383246527778
 30
0.0
 10
1.059807671440972
 20
1.398383246527778
 30
0.0
 10
1.068854437934028
 20
1.392116970486111
 30
0.0
 10
1.068854437934028
 20
1.384385850694444
 30
0.0
 10
1.068854437934028
 20
1.376681857638889
 30
0.0
 10
1.059807671440972
 20
1.370415581597222
 30
0.0
 10
1.048658582899306
 20
1.370415581597222
 30
0.0
  0
SPLINE
  5
45
330
1F
100
AcDbEntity
  8
LAYER_1
100
AcDbSpline
210
0.0
220
0.0
230
1.0
 70
    11
 71
     3
 72
    17
 73
    13
 74
     0
 42
0.0000000001
 43
0.0000000001
 40
0.0
 40
0.0
 40
0.0
 40
0.0
 40
1.0
 40
1.0
 40
1.0
 40
2.0
 40
2.0
 40
2.0
 40
3.0
 40
3.0
 40
3.0
 40
4.0
 40
4.0
 40
4.0
 40
4.0
 10
1.114576551649306
 20
1.381212022569444
 30
0.0
 10
1.103413899739583
 20
1.381212022569444
 30
0.0
 10
1.094367133246528
 20
1.387478298611111
 30
0.0
 10
1.094367133246528
 20
1.395209418402778
 30
0.0
 10
1.094367133246528
 20
1.402940538194444
 30
0.0
 10
1.103413899739583
 20
1.409206814236111
 30
0.0
 10
1.114576551649306
 20
1.409206814236111
 30
0.0
 10
1.125725640190972
 20
1.409206814236111
 30
0.0
 10
1.134772406684028
 20
1.402940538194444
 30
0.0
 10
1.134772406684028
 20
1.395209418402778
 30
0.0
 10
1.134772406684028
 20
1.387478298611111
 30
0.0
 10
1.125725640190972
 20
1.381212022569444
 30
0.0
 10
1.114576551649306
 20
1.381212022569444
 30
0.0
  0
SPLINE
  5
47
330
1F
100
AcDbEntity
  8
____2
100
AcDbSpline
210
0.0
220
0.0
230
1.0
 70
    11
 71
     3
 72
    35
 73
    31
 74
     0
 42
0.0000000001
 43
0.0000000001
 40
0.0
 40
0.0
 40
0.0
 40
0.0
 40
1.0
 40
1.0
 40
1.0
 40
2.0
 40
2.0
 40
2.0
 40
3.0
 40
3.0
 40
3.0
 40
4.0
 40
4.0
 40
4.0
 40
5.0
 40
5.0
 40
5.0
 40
6.0
 40
6.0
 40
6.0
 40
7.0
 40
7.0
 40
7.0
 40
8.0
 40
8.0
 40
8.0
 40
9.0
 40
9.0
 40
9.0
 40
10.0
 40
10.0
 40
10.0
 40
10.0
 10
1.037821451822917
 20
2.444207085503472
 30
0.0
 10
1.037821451822917
 20
2.444207085503472
 30
0.0
 10
1.037821451822917
 20
2.36907958984375
 30
0.0
 10
1.037821451822917
 20
2.36907958984375
 30
0.0
 10
1.037821451822917
 20
2.33160400390625
 30
0.0
 10
1.019992404513889
 20
2.314114040798611
 30
0.0
 10
0.9910142686631944
 20
2.314114040798611
 30
0.0
 10
0.9621921115451388
 20
2.314114040798611
 30
0.0
 10
0.9458685980902777
 20
2.331271701388889
 30
0.0
 10
0.9458685980902777
 20
2.368916829427083
 30
0.0
 10
0.9458685980902777
 20
2.368916829427083
 30
0.0
 10
0.9458685980902777
 20
2.444207085503472
 30
0.0
 10
0.9458685980902777
 20
2.444207085503472
 30
0.0
 10
0.9458685980902777
 20
2.444207085503472
 30
0.0
 10
0.97052001953125
 20
2.444207085503472
 30
0.0
 10
0.97052001953125
 20
2.444207085503472
 30
0.0
 10
0.97052001953125
 20
2.444207085503472
 30
0.0
 10
0.97052001953125
 20
2.366753472222222
 30
0.0
 10
0.97052001953125
 20
2.366753472222222
 30
0.0
 10
0.97052001953125
 20
2.344265407986111
 30
0.0
 10
0.9790174696180555
 20
2.334431966145833
 30
0.0
 10
0.9916788736979166
 20
2.334431966145833
 30
0.0
 10
1.0050048828125
 20
2.334431966145833
 30
0.0
 10
1.013163248697917
 20
2.343926323784722
 30
0.0
 10
1.013163248697917
 20
2.366753472222222
 30
0.0
 10
1.013163248697917
 20
2.366753472222222
 30
0.0
 10
1.013163248697917
 20
2.444207085503472
 30
0.0
 10
1.013163248697917
 20
2.444207085503472
 30
0.0
 10
1.013163248697917
 20
2.444207085503472
 30
0.0
 10
1.037821451822917
 20
2.444207085503472
 30
0.0
 10
1.037821451822917
 20
2.444207085503472
 30
0.0
  0
POLYLINE
  5
48
330
1F
100
AcDbEntity
  8
____2
100
AcDb2dPolyline
 66
     1
 10
0.0
 20
0.0
 30
0.0
  0
VERTEX
  5
49
330
48
100
AcDbEntity
  8
____2
100
AcDbVertex
100
AcDb2dVertex
 10
1.062533908420139
 20
2.315945095486111
 30
0.0
  0
VERTEX
  5
4A
330
48
100
AcDbEntity
  8
____2
100
AcDbVertex
100
AcDb2dVertex
 10
1.062533908420139
 20
2.444044325086805
 30
0.0
  0
VERTEX
  5
4B
330
48
100
AcDbEntity
  8
____2
100
AcDbVertex
100
AcDb2dVertex
 10
1.087185329861111
 20
2.444044325086805
 30
0.0
  0
VERTEX
  5
4C
330
48
100
AcDbEntity
  8
____2
100
AcDbVertex
100
AcDb2dVertex
 10
1.087185329861111
 20
2.315945095486111
 30
0.0
  0
VERTEX
  5
4D
330
48
100
AcDbEntity
  8
____2
100
AcDbVertex
100
AcDb2dVertex
 10
1.062533908420139
 20
2.315945095486111
 30
0.0
  0
SEQEND
  5
4E
330
48
100
AcDbEntity
  8
____2
  0
SPLINE
  5
4F
330
1F
100
AcDbEntity
  8
____2
100
AcDbSpline
210
0.0
220
0.0
230
1.0
 70
    11
 71
     3
 72
    53
 73
    49
 74
     0
 42
0.0000000001
 43
0.0000000001
 40
0.0
 40
0.0
 40
0.0
 40
0.0
 40
1.0
 40
1.0
 40
1.0
 40
2.0
 40
2.0
 40
2.0
 40
3.0
 40
3.0
 40
3.0
 40
4.0
 40
4.0
 40
4.0
 40
5.0
 40
5.0
 40
5.0
 40
6.0
 40
6.0
 40
6.0
 40
7.0
 40
7.0
 40
7.0
 40
8.0
 40
8.0
 40
8.0
 40
9.0
 40
9.0
 40
9.0
 40
10.0
 40
10.0
 40
10.0
 40
11.0
 40
11.0
 40
11.0
 40
12.0
 40
12.0
 40
12.0
 40
13.0
 40
13.0
 40
13.0
 40
14.0
 40
14.0
 40
14.0
 40
15.0
 40
15.0
 40
15.0
 40
16.0
 40
16.0
 40
16.0
 40
16.0
 10
1.205478244357639
 20
2.444044325086805
 30
0.0
 10
1.205478244357639
 20
2.444044325086805
 30
0.0
 10
1.205478244357639
 20
2.315945095486111
 30
0.0
 10
1.205478244357639
 20
2.315945095486111
 30
0.0
 10
1.205478244357639
 20
2.315945095486111
 30
0.0
 10
1.180826822916667
 20
2.315945095486111
 30
0.0
 10
1.180826822916667
 20
2.315945095486111
 30
0.0
 10
1.180826822916667
 20
2.315945095486111
 30
0.0
 10
1.153340657552083
 20
2.368916829427083
 30
0.0
 10
1.153340657552083
 20
2.368916829427083
 30
0.0
 10
1.146511501736111
 20
2.382073296440972
 30
0.0
 10
1.139017740885417
 20
2.397901746961805
 30
0.0
 10
1.133687337239583
 20
2.411892361111111
 30
0.0
 10
1.133687337239583
 20
2.411892361111111
 30
0.0
 10
1.133022732204861
 20
2.411892361111111
 30
0.0
 10
1.133022732204861
 20
2.411892361111111
 30
0.0
 10
1.134019639756944
 20
2.396070692274305
 30
0.0
 10
1.134521484375
 20
2.378078884548611
 30
0.0
 10
1.134521484375
 20
2.355258517795139
 30
0.0
 10
1.134521484375
 20
2.355258517795139
 30
0.0
 10
1.134521484375
 20
2.315945095486111
 30
0.0
 10
1.134521484375
 20
2.315945095486111
 30
0.0
 10
1.134521484375
 20
2.315945095486111
 30
0.0
 10
1.112196180555556
 20
2.315945095486111
 30
0.0
 10
1.112196180555556
 20
2.315945095486111
 30
0.0
 10
1.112196180555556
 20
2.315945095486111
 30
0.0
 10
1.112196180555556
 20
2.444044325086805
 30
0.0
 10
1.112196180555556
 20
2.444044325086805
 30
0.0
 10
1.112196180555556
 20
2.444044325086805
 30
0.0
 10
1.138848198784722
 20
2.444044325086805
 30
0.0
 10
1.138848198784722
 20
2.444044325086805
 30
0.0
 10
1.138848198784722
 20
2.444044325086805
 30
0.0
 10
1.16583251953125
 20
2.392069498697917
 30
0.0
 10
1.16583251953125
 20
2.392069498697917
 30
0.0
 10
1.172661675347222
 20
2.379245334201389
 30
0.0
 10
1.179829915364583
 20
2.36358642578125
 30
0.0
 10
1.184990776909722
 20
2.350260416666667
 30
0.0
 10
1.184990776909722
 20
2.350260416666667
 30
0.0
 10
1.185323079427083
 20
2.350260416666667
 30
0.0
 10
1.185323079427083
 20
2.350260416666667
 30
0.0
 10
1.183824327256944
 20
2.366583930121528
 30
0.0
 10
1.183159722222222
 20
2.384738498263889
 30
0.0
 10
1.183159722222222
 20
2.405565049913194
 30
0.0
 10
1.183159722222222
 20
2.405565049913194
 30
0.0
 10
1.183159722222222
 20
2.444044325086805
 30
0.0
 10
1.183159722222222
 20
2.444044325086805
 30
0.0
 10
1.183159722222222
 20
2.444044325086805
 30
0.0
 10
1.205478244357639
 20
2.444044325086805
 30
0.0
 10
1.205478244357639
 20
2.444044325086805
 30
0.0
  0
SPLINE
  5
50
330
1F
100
AcDbEntity
  8
____2
100
AcDbSpline
210
0.0
220
0.0
230
1.0
 70
    11
 71
     3
 72
    59
 73
    55
 74
     0
 42
0.0000000001
 43
0.0000000001
 40
0.0
 40
0.0
 40
0.0
 40
0.0
 40
1.0
 40
1.0
 40
1.0
 40
2.0
 40
2.0
 40
2.0
 40
3.0
 40
3.0
 40
3.0
 40
4.0
 40
4.0
 40
4.0
 40
5.0
 40
5.0
 40
5.0
 40
6.0
 40
6.0
 40
6.0
 40
7.0
 40
7.0
 40
7.0
 40
8.0
 40
8.0
 40
8.0
 40
9.0
 40
9.0
 40
9.0
 40
10.0
 40
10.0
 40
10.0
 40
11.0
 40
11.0
 40
11.0
 40
12.0
 40
12.0
 40
12.0
 40
13.0
 40
13.0
 40
13.0
 40
14.0
 40
14.0
 40
14.0
 40
15.0
 40
15.0
 40
15.0
 40
16.0
 40
16.0
 40
16.0
 40
17.0
 40
17.0
 40
17.0
 40
18.0
 40
18.0
 40
18.0
 40
18.0
 10
1.28350830078125
 20
2.381239149305555
 30
0.0
 10
1.28350830078125
 20
2.381239149305555
 30
0.0
 10
1.317816840277778
 20
2.315945095486111
 30
0.0
 10
1.317816840277778
 20
2.315945095486111
 30
0.0
 10
1.317816840277778
 20
2.315945095486111
 30
0.0
 10
1.290167914496528
 20
2.315945095486111
 30
0.0
 10
1.290167914496528
 20
2.315945095486111
 30
0.0
 10
1.290167914496528
 20
2.315945095486111
 30
0.0
 10
1.278672960069444
 20
2.340766059027778
 30
0.0
 10
1.278672960069444
 20
2.340766059027778
 30
0.0
 10
1.274346245659722
 20
2.349595811631944
 30
0.0
 10
1.271341959635417
 20
2.356424967447917
 30
0.0
 10
1.268181694878472
 20
2.364088270399305
 30
0.0
 10
1.268181694878472
 20
2.364088270399305
 30
0.0
 10
1.267679850260417
 20
2.364088270399305
 30
0.0
 10
1.267679850260417
 20
2.364088270399305
 30
0.0
 10
1.2650146484375
 20
2.356424967447917
 30
0.0
 10
1.262017144097222
 20
2.34942626953125
 30
0.0
 10
1.258185492621528
 20
2.340596516927083
 30
0.0
 10
1.258185492621528
 20
2.340596516927083
 30
0.0
 10
1.247694227430556
 20
2.315945095486111
 30
0.0
 10
1.247694227430556
 20
2.315945095486111
 30
0.0
 10
1.247694227430556
 20
2.315945095486111
 30
0.0
 10
1.220703125
 20
2.315945095486111
 30
0.0
 10
1.220703125
 20
2.315945095486111
 30
0.0
 10
1.220703125
 20
2.315945095486111
 30
0.0
 10
1.253851996527778
 20
2.381076388888889
 30
0.0
 10
1.253851996527778
 20
2.381076388888889
 30
0.0
 10
1.253851996527778
 20
2.381076388888889
 30
0.0
 10
1.221869574652778
 20
2.444044325086805
 30
0.0
 10
1.221869574652778
 20
2.444044325086805
 30
0.0
 10
1.221869574652778
 20
2.444044325086805
 30
0.0
 10
1.249355740017361
 20
2.444044325086805
 30
0.0
 10
1.249355740017361
 20
2.444044325086805
 30
0.0
 10
1.249355740017361
 20
2.444044325086805
 30
0.0
 10
1.260850694444444
 20
2.418891059027778
 30
0.0
 10
1.260850694444444
 20
2.418891059027778
 30
0.0
 10
1.264180501302083
 20
2.41156005859375
 30
0.0
 10
1.266682942708333
 20
2.405063205295139
 30
0.0
 10
1.269680447048611
 20
2.397901746961805
 30
0.0
 10
1.269680447048611
 20
2.397901746961805
 30
0.0
 10
1.270012749565972
 20
2.397901746961805
 30
0.0
 10
1.270012749565972
 20
2.397901746961805
 30
0.0
 10
1.27301025390625
 20
2.405897352430555
 30
0.0
 10
1.275173611111111
 20
2.411722819010417
 30
0.0
 10
1.278340657552083
 20
2.419053819444444
 30
0.0
 10
1.278340657552083
 20
2.419053819444444
 30
0.0
 10
1.289171006944444
 20
2.444044325086805
 30
0.0
 10
1.289171006944444
 20
2.444044325086805
 30
0.0
 10
1.289171006944444
 20
2.444044325086805
 30
0.0
 10
1.316318088107639
 20
2.444044325086805
 30
0.0
 10
1.316318088107639
 20
2.444044325086805
 30
0.0
 10
1.316318088107639
 20
2.444044325086805
 30
0.0
 10
1.28350830078125
 20
2.381239149305555
 30
0.0
 10
1.28350830078125
 20
2.381239149305555
 30
0.0
  0
POLYLINE
  5
51
330
1F
100
AcDbEntity
  8
____2
100
AcDb2dPolyline
 66
     1
 10
0.0
 20
0.0
 30
0.0
  0
VERTEX
  5
52
330
51
100
AcDbEntity
  8
____2
100
AcDbVertex
100
AcDb2dVertex
 10
1.446160210503472
 20
2.444044325086805
 30
0.0
  0
VERTEX
  5
53
330
51
100
AcDbEntity
  8
____2
100
AcDbVertex
100
AcDb2dVertex
 10
1.446160210503472
 20
2.422722710503472
 30
0.0
  0
VERTEX
  5
54
330
51
100
AcDbEntity
  8
____2
100
AcDbVertex
100
AcDb2dVertex
 10
1.414510091145833
 20
2.422722710503472
 30
0.0
  0
VERTEX
  5
55
330
51
100
AcDbEntity
  8
____2
100
AcDbVertex
100
AcDb2dVertex
 10
1.414510091145833
 20
2.315945095486111
 30
0.0
  0
VERTEX
  5
56
330
51
100
AcDbEntity
  8
____2
100
AcDbVertex
100
AcDb2dVertex
 10
1.389858669704861
 20
2.315945095486111
 30
0.0
  0
VERTEX
  5
57
330
51
100
AcDbEntity
  8
____2
100
AcDbVertex
100
AcDb2dVertex
 10
1.389858669704861
 20
2.422722710503472
 30
0.0
  0
VERTEX
  5
58
330
51
100
AcDbEntity
  8
____2
100
AcDbVertex
100
AcDb2dVertex
 10
1.358371310763889
 20
2.422722710503472
 30
0.0
  0
VERTEX
  5
59
330
51
100
AcDbEntity
  8
____2
100
AcDbVertex
100
AcDb2dVertex
 10
1.358371310763889
 20
2.444044325086805
 30
0.0
  0
VERTEX
  5
5A
330
51
100
AcDbEntity
  8
____2
100
AcDbVertex
100
AcDb2dVertex
 10
1.446160210503472
 20
2.444044325086805
 30
0.0
  0
SEQEND
  5
5B
330
51
100
AcDbEntity
  8
____2
  0
POLYLINE
  5
5C
330
1F
100
AcDbEntity
  8
____2
100
AcDb2dPolyline
 66
     1
 10
0.0
 20
0.0
 30
0.0
  0
VERTEX
  5
5D
330
5C
100
AcDbEntity
  8
____2
100
AcDbVertex
100
AcDb2dVertex
 10
1.460693359375
 20
2.315945095486111
 30
0.0
  0
VERTEX
  5
5E
330
5C
100
AcDbEntity
  8
____2
100
AcDbVertex
100
AcDb2dVertex
 10
1.460693359375
 20
2.444044325086805
 30
0.0
  0
VERTEX
  5
5F
330
5C
100
AcDbEntity
  8
____2
100
AcDbVertex
100
AcDb2dVertex
 10
1.485344780815972
 20
2.444044325086805
 30
0.0
  0
VERTEX
  5
60
330
5C
100
AcDbEntity
  8
____2
100
AcDbVertex
100
AcDb2dVertex
 10
1.485344780815972
 20
2.315945095486111
 30
0.0
  0
VERTEX
  5
61
330
5C
100
AcDbEntity
  8
____2
100
AcDbVertex
100
AcDb2dVertex
 10
1.460693359375
 20
2.315945095486111
 30
0.0
  0
SEQEND
  5
62
330
5C
100
AcDbEntity
  8
____2
  0
SPLINE
  5
63
330
1F
100
AcDbEntity
  8
____2
100
AcDbSpline
210
0.0
220
0.0
230
1.0
 70
    11
 71
     3
 72
    71
 73
    67
 74
     0
 42
0.0000000001
 43
0.0000000001
 40
0.0
 40
0.0
 40
0.0
 40
0.0
 40
1.0
 40
1.0
 40
1.0
 40
2.0
 40
2.0
 40
2.0
 40
3.0
 40
3.0
 40
3.0
 40
4.0
 40
4.0
 40
4.0
 40
5.0
 40
5.0
 40
5.0
 40
6.0
 40
6.0
 40
6.0
 40
7.0
 40
7.0
 40
7.0
 40
8.0
 40
8.0
 40
8.0
 40
9.0
 40
9.0
 40
9.0
 40
10.0
 40
10.0
 40
10.0
 40
11.0
 40
11.0
 40
11.0
 40
12.0
 40
12.0
 40
12.0
 40
13.0
 40
13.0
 40
13.0
 40
14.0
 40
14.0
 40
14.0
 40
15.0
 40
15.0
 40
15.0
 40
16.0
 40
16.0
 40
16.0
 40
17.0
 40
17.0
 40
17.0
 40
18.0
 40
18.0
 40
18.0
 40
19.0
 40
19.0
 40
19.0
 40
20.0
 40
20.0
 40
20.0
 40
21.0
 40
21.0
 40
21.0
 40
22.0
 40
22.0
 40
22.0
 40
22.0
 10
1.626953125
 20
2.444044325086805
 30
0.0
 10
1.626953125
 20
2.444044325086805
 30
0.0
 10
1.634290907118055
 20
2.315945095486111
 30
0.0
 10
1.634290907118055
 20
2.315945095486111
 30
0.0
 10
1.634290907118055
 20
2.315945095486111
 30
0.0
 10
1.610799153645833
 20
2.315945095486111
 30
0.0
 10
1.610799153645833
 20
2.315945095486111
 30
0.0
 10
1.610799153645833
 20
2.315945095486111
 30
0.0
 10
1.608479817708333
 20
2.365749782986111
 30
0.0
 10
1.608479817708333
 20
2.365749782986111
 30
0.0
 10
1.607801649305555
 20
2.382575141059028
 30
0.0
 10
1.606960720486111
 20
2.403232150607639
 30
0.0
 10
1.607137044270833
 20
2.416225857204861
 30
0.0
 10
1.607137044270833
 20
2.416225857204861
 30
0.0
 10
1.606635199652778
 20
2.416225857204861
 30
0.0
 10
1.606635199652778
 20
2.416225857204861
 30
0.0
 10
1.602973090277778
 20
2.400899251302083
 30
0.0
 10
1.598307291666667
 20
2.3839111328125
 30
0.0
 10
1.593980577256944
 20
2.369581434461805
 30
0.0
 10
1.593980577256944
 20
2.369581434461805
 30
0.0
 10
1.578314887152778
 20
2.317776150173611
 30
0.0
 10
1.578314887152778
 20
2.317776150173611
 30
0.0
 10
1.578314887152778
 20
2.317776150173611
 30
0.0
 10
1.559665256076389
 20
2.317776150173611
 30
0.0
 10
1.559665256076389
 20
2.317776150173611
 30
0.0
 10
1.559665256076389
 20
2.317776150173611
 30
0.0
 10
1.545505099826389
 20
2.368747287326389
 30
0.0
 10
1.545505099826389
 20
2.368747287326389
 30
0.0
 10
1.541341145833333
 20
2.38323974609375
 30
0.0
 10
1.537339952256944
 20
2.400566948784722
 30
0.0
 10
1.534342447916667
 20
2.416225857204861
 30
0.0
 10
1.534342447916667
 20
2.416225857204861
 30
0.0
 10
1.533854166666667
 20
2.416225857204861
 30
0.0
 10
1.533854166666667
 20
2.416225857204861
 30
0.0
 10
1.533501519097222
 20
2.400065104166667
 30
0.0
 10
1.532687717013889
 20
2.381076388888889
 30
0.0
 10
1.531846788194444
 20
2.365247938368055
 30
0.0
 10
1.531846788194444
 20
2.365247938368055
 30
0.0
 10
1.529351128472222
 20
2.315945095486111
 30
0.0
 10
1.529351128472222
 20
2.315945095486111
 30
0.0
 10
1.529351128472222
 20
2.315945095486111
 30
0.0
 10
1.506856282552083
 20
2.315945095486111
 30
0.0
 10
1.506856282552083
 20
2.315945095486111
 30
0.0
 10
1.506856282552083
 20
2.315945095486111
 30
0.0
 10
1.515516493055556
 20
2.444044325086805
 30
0.0
 10
1.515516493055556
 20
2.444044325086805
 30
0.0
 10
1.515516493055556
 20
2.444044325086805
 30
0.0
 10
1.546006944444444
 20
2.444044325086805
 30
0.0
 10
1.546006944444444
 20
2.444044325086805
 30
0.0
 10
1.546006944444444
 20
2.444044325086805
 30
0.0
 10
1.559828016493055
 20
2.395901150173611
 30
0.0
 10
1.559828016493055
 20
2.395901150173611
 30
0.0
 10
1.563991970486111
 20
2.380411783854167
 30
0.0
 10
1.567654079861111
 20
2.36541748046875
 30
0.0
 10
1.570488823784722
 20
2.350762261284722
 30
0.0
 10
1.570488823784722
 20
2.350762261284722
 30
0.0
 10
1.570990668402778
 20
2.350762261284722
 30
0.0
 10
1.570990668402778
 20
2.350762261284722
 30
0.0
 10
1.573988172743055
 20
2.365085177951389
 30
0.0
 10
1.577826605902778
 20
2.380574544270833
 30
0.0
 10
1.5821533203125
 20
2.395901150173611
 30
0.0
 10
1.5821533203125
 20
2.395901150173611
 30
0.0
 10
1.596652560763889
 20
2.444044325086805
 30
0.0
 10
1.596652560763889
 20
2.444044325086805
 30
0.0
 10
1.596652560763889
 20
2.444044325086805
 30
0.0
 10
1.626953125
 20
2.444044325086805
 30
0.0
 10
1.626953125
 20
2.444044325086805
 30
0.0
  0
POLYLINE
  5
64
330
1F
100
AcDbEntity
  8
____2
100
AcDb2dPolyline
 66
     1
 10
0.0
 20
0.0
 30
0.0
  0
VERTEX
  5
65
330
64
100
AcDbEntity
  8
____2
100
AcDbVertex
100
AcDb2dVertex
 10
1.727647569444444
 20
2.336602105034722
 30
0.0
  0
VERTEX
  5
66
330
64
100
AcDbEntity
  8
____2
100
AcDbVertex
100
AcDb2dVertex
 10
1.727647569444444
 20
2.315945095486111
 30
0.0
  0
VERTEX
  5
67
330
64
100
AcDbEntity
  8
____2
100
AcDbVertex
100
AcDb2dVertex
 10
1.656032986111111
 20
2.315945095486111
 30
0.0
  0
VERTEX
  5
68
330
64
100
AcDbEntity
  8
____2
100
AcDbVertex
100
AcDb2dVertex
 10
1.656032986111111
 20
2.444044325086805
 30
0.0
  0
VERTEX
  5
69
330
64
100
AcDbEntity
  8
____2
100
AcDbVertex
100
AcDb2dVertex
 10
1.724989149305555
 20
2.444044325086805
 30
0.0
  0
VERTEX
  5
6A
330
64
100
AcDbEntity
  8
____2
100
AcDbVertex
100
AcDb2dVertex
 10
1.724989149305555
 20
2.423387315538194
 30
0.0
  0
VERTEX
  5
6B
330
64
100
AcDbEntity
  8
____2
100
AcDbVertex
100
AcDb2dVertex
 10
1.680677625868055
 20
2.423387315538194
 30
0.0
  0
VERTEX
  5
6C
330
64
100
AcDbEntity
  8
____2
100
AcDbVertex
100
AcDb2dVertex
 10
1.680677625868055
 20
2.392401801215278
 30
0.0
  0
VERTEX
  5
6D
330
64
100
AcDbEntity
  8
____2
100
AcDbVertex
100
AcDb2dVertex
 10
1.722493489583333
 20
2.392401801215278
 30
0.0
  0
VERTEX
  5
6E
330
64
100
AcDbEntity
  8
____2
100
AcDbVertex
100
AcDb2dVertex
 10
1.722493489583333
 20
2.372246636284722
 30
0.0
  0
VERTEX
  5
6F
330
64
100
AcDbEntity
  8
____2
100
AcDbVertex
100
AcDb2dVertex
 10
1.680677625868055
 20
2.372246636284722
 30
0.0
  0
VERTEX
  5
70
330
64
100
AcDbEntity
  8
____2
100
AcDbVertex
100
AcDb2dVertex
 10
1.680677625868055
 20
2.336602105034722
 30
0.0
  0
VERTEX
  5
71
330
64
100
AcDbEntity
  8
____2
100
AcDbVertex
100
AcDb2dVertex
 10
1.727647569444444
 20
2.336602105034722
 30
0.0
  0
SEQEND
  5
72
330
64
100
AcDbEntity
  8
____2
  0
SPLINE
  5
73
330
1F
100
AcDbEntity
  8
____2
100
AcDbSpline
210
0.0
220
0.0
230
1.0
 70
    11
 71
     3
 72
    17
 73
    13
 74
     0
 42
0.0000000001
 43
0.0000000001
 40
0.0
 40
0.0
 40
0.0
 40
0.0
 40
1.0
 40
1.0
 40
1.0
 40
2.0
 40
2.0
 40
2.0
 40
3.0
 40
3.0
 40
3.0
 40
4.0
 40
4.0
 40
4.0
 40
4.0
 10
1.779866536458333
 20
2.392903645833333
 30
0.0
 10
1.779866536458333
 20
2.4017333984375
 30
0.0
 10
1.786024305555555
 20
2.408393012152778
 30
0.0
 10
1.794514973958333
 20
2.408393012152778
 30
0.0
 10
1.803168402777778
 20
2.408393012152778
 30
0.0
 10
1.809176974826389
 20
2.402065700954861
 30
0.0
 10
1.809176974826389
 20
2.392903645833333
 30
0.0
 10
1.809176974826389
 20
2.384073893229167
 30
0.0
 10
1.803521050347222
 20
2.377414279513889
 30
0.0
 10
1.794514973958333
 20
2.377414279513889
 30
0.0
 10
1.785346137152778
 20
2.377414279513889
 30
0.0
 10
1.779866536458333
 20
2.384406195746528
 30
0.0
 10
1.779866536458333
 20
2.392903645833333
 30
0.0
  0
SPLINE
  5
74
330
1F
100
AcDbEntity
  8
____2
100
AcDbSpline
210
0.0
220
0.0
230
1.0
 70
    11
 71
     3
 72
    17
 73
    13
 74
     0
 42
0.0000000001
 43
0.0000000001
 40
0.0
 40
0.0
 40
0.0
 40
0.0
 40
1.0
 40
1.0
 40
1.0
 40
2.0
 40
2.0
 40
2.0
 40
3.0
 40
3.0
 40
3.0
 40
4.0
 40
4.0
 40
4.0
 40
4.0
 10
1.779866536458333
 20
2.329603407118055
 30
0.0
 10
1.779866536458333
 20
2.338433159722222
 30
0.0
 10
1.786024305555555
 20
2.3450927734375
 30
0.0
 10
1.794514973958333
 20
2.3450927734375
 30
0.0
 10
1.803168402777778
 20
2.3450927734375
 30
0.0
 10
1.809176974826389
 20
2.338765462239583
 30
0.0
 10
1.809176974826389
 20
2.329603407118055
 30
0.0
 10
1.809176974826389
 20
2.320610894097222
 30
0.0
 10
1.803521050347222
 20
2.314114040798611
 30
0.0
 10
1.794514973958333
 20
2.314114040798611
 30
0.0
 10
1.785346137152778
 20
2.314114040798611
 30
0.0
 10
1.779866536458333
 20
2.32110595703125
 30
0.0
 10
1.779866536458333
 20
2.329603407118055
 30
0.0
  0
POLYLINE
  5
75
330
1F
100
AcDbEntity
  8
____2
100
AcDb2dPolyline
 66
     1
 10
0.0
 20
0.0
 30
0.0
  0
VERTEX
  5
76
330
75
100
AcDbEntity
  8
____2
100
AcDbVertex
100
AcDb2dVertex
 10
0.9990030924479166
 20
2.115946451822917
 30
0.0
  0
VERTEX
  5
77
330
75
100
AcDbEntity
  8
____2
100
AcDbVertex
100
AcDb2dVertex
 10
0.9750230577256944
 20
2.115946451822917
 30
0.0
  0
VERTEX
  5
78
330
75
100
AcDbEntity
  8
____2
100
AcDbVertex
100
AcDb2dVertex
 10
0.9750230577256944
 20
2.219889322916667
 30
0.0
  0
VERTEX
  5
79
330
75
100
AcDbEntity
  8
____2
100
AcDbVertex
100
AcDb2dVertex
 10
0.9746839735243055
 20
2.219889322916667
 30
0.0
  0
VERTEX
  5
7A
330
75
100
AcDbEntity
  8
____2
100
AcDbVertex
100
AcDb2dVertex
 10
0.953030056423611
 20
2.208563910590278
 30
0.0
  0
VERTEX
  5
7B
330
75
100
AcDbEntity
  8
____2
100
AcDbVertex
100
AcDb2dVertex
 10
0.9476996527777777
 20
2.226216634114583
 30
0.0
  0
VERTEX
  5
7C
330
75
100
AcDbEntity
  8
____2
100
AcDbVertex
100
AcDb2dVertex
 10
0.9783528645833333
 20
2.241875542534722
 30
0.0
  0
VERTEX
  5
7D
330
75
100
AcDbEntity
  8
____2
100
AcDbVertex
100
AcDb2dVertex
 10
0.9990030924479166
 20
2.241875542534722
 30
0.0
  0
VERTEX
  5
7E
330
75
100
AcDbEntity
  8
____2
100
AcDbVertex
100
AcDb2dVertex
 10
0.9990030924479166
 20
2.115946451822917
 30
0.0
  0
SEQEND
  5
7F
330
75
100
AcDbEntity
  8
____2
  0
SPLINE
  5
80
330
1F
100
AcDbEntity
  8
____2
100
AcDbSpline
210
0.0
220
0.0
230
1.0
 70
    11
 71
     3
 72
    59
 73
    55
 74
     0
 42
0.0000000001
 43
0.0000000001
 40
0.0
 40
0.0
 40
0.0
 40
0.0
 40
1.0
 40
1.0
 40
1.0
 40
2.0
 40
2.0
 40
2.0
 40
3.0
 40
3.0
 40
3.0
 40
4.0
 40
4.0
 40
4.0
 40
5.0
 40
5.0
 40
5.0
 40
6.0
 40
6.0
 40
6.0
 40
7.0
 40
7.0
 40
7.0
 40
8.0
 40
8.0
 40
8.0
 40
9.0
 40
9.0
 40
9.0
 40
10.0
 40
10.0
 40
10.0
 40
11.0
 40
11.0
 40
11.0
 40
12.0
 40
12.0
 40
12.0
 40
13.0
 40
13.0
 40
13.0
 40
14.0
 40
14.0
 40
14.0
 40
15.0
 40
15.0
 40
15.0
 40
16.0
 40
16.0
 40
16.0
 40
17.0
 40
17.0
 40
17.0
 40
18.0
 40
18.0
 40
18.0
 40
18.0
 10
1.039530436197917
 20
2.235215928819444
 30
0.0
 10
1.046027289496528
 20
2.239542643229167
 30
0.0
 10
1.058858235677083
 20
2.243876139322917
 30
0.0
 10
1.072347005208333
 20
2.243876139322917
 30
0.0
 10
1.096503363715278
 20
2.243876139322917
 30
0.0
 10
1.109164767795139
 20
2.229715983072917
 30
0.0
 10
1.109164767795139
 20
2.213060167100694
 30
0.0
 10
1.109164767795139
 20
2.200066460503472
 30
0.0
 10
1.101331922743056
 20
2.189236111111111
 30
0.0
 10
1.087504069010417
 20
2.184075249565972
 30
0.0
 10
1.087504069010417
 20
2.184075249565972
 30
0.0
 10
1.087504069010417
 20
2.183742947048611
 30
0.0
 10
1.087504069010417
 20
2.183742947048611
 30
0.0
 10
1.10150146484375
 20
2.180575900607639
 30
0.0
 10
1.1131591796875
 20
2.16925048828125
 30
0.0
 10
1.1131591796875
 20
2.152092827690972
 30
0.0
 10
1.1131591796875
 20
2.131103515625
 30
0.0
 10
1.096333821614583
 20
2.114115397135417
 30
0.0
 10
1.0670166015625
 20
2.114115397135417
 30
0.0
 10
1.053690592447917
 20
2.114115397135417
 30
0.0
 10
1.041700575086806
 20
2.11761474609375
 30
0.0
 10
1.035366482204861
 20
2.121778700086805
 30
0.0
 10
1.035366482204861
 20
2.121778700086805
 30
0.0
 10
1.040866427951389
 20
2.140435112847222
 30
0.0
 10
1.040866427951389
 20
2.140435112847222
 30
0.0
 10
1.0455322265625
 20
2.137437608506944
 30
0.0
 10
1.055691189236111
 20
2.13360595703125
 30
0.0
 10
1.065355088975694
 20
2.13360595703125
 30
0.0
 10
1.080512152777778
 20
2.13360595703125
 30
0.0
 10
1.088005913628472
 20
2.142930772569444
 30
0.0
 10
1.088005913628472
 20
2.15325927734375
 30
0.0
 10
1.088005913628472
 20
2.16741943359375
 30
0.0
 10
1.075676812065972
 20
2.174079047309028
 30
0.0
 10
1.062188042534722
 20
2.174079047309028
 30
0.0
 10
1.062188042534722
 20
2.174079047309028
 30
0.0
 10
1.053690592447917
 20
2.174079047309028
 30
0.0
 10
1.053690592447917
 20
2.174079047309028
 30
0.0
 10
1.053690592447917
 20
2.174079047309028
 30
0.0
 10
1.053690592447917
 20
2.19140625
 30
0.0
 10
1.053690592447917
 20
2.19140625
 30
0.0
 10
1.053690592447917
 20
2.19140625
 30
0.0
 10
1.061686197916667
 20
2.19140625
 30
0.0
 10
1.061686197916667
 20
2.19140625
 30
0.0
 10
1.071512858072917
 20
2.19140625
 30
0.0
 10
1.084174262152778
 20
2.1968994140625
 30
0.0
 10
1.084174262152778
 20
2.209058973524305
 30
0.0
 10
1.084174262152778
 20
2.217888726128472
 30
0.0
 10
1.078348795572917
 20
2.224385579427083
 30
0.0
 10
1.066684299045139
 20
2.224385579427083
 30
0.0
 10
1.058024088541667
 20
2.224385579427083
 30
0.0
 10
1.049526638454861
 20
2.220553927951389
 30
0.0
 10
1.044698079427083
 20
2.217556423611111
 30
0.0
 10
1.044698079427083
 20
2.217556423611111
 30
0.0
 10
1.039530436197917
 20
2.235215928819444
 30
0.0
 10
1.039530436197917
 20
2.235215928819444
 30
0.0
  0
SPLINE
  5
81
330
1F
100
AcDbEntity
  8
____2
100
AcDbSpline
210
0.0
220
0.0
230
1.0
 70
    11
 71
     3
 72
    32
 73
    28
 74
     0
 42
0.0000000001
 43
0.0000000001
 40
0.0
 40
0.0
 40
0.0
 40
0.0
 40
1.0
 40
1.0
 40
1.0
 40
2.0
 40
2.0
 40
2.0
 40
3.0
 40
3.0
 40
3.0
 40
4.0
 40
4.0
 40
4.0
 40
5.0
 40
5.0
 40
5.0
 40
6.0
 40
6.0
 40
6.0
 40
7.0
 40
7.0
 40
7.0
 40
8.0
 40
8.0
 40
8.0
 40
9.0
 40
9.0
 40
9.0
 40
9.0
 10
1.140530056423611
 20
2.13360595703125
 30
0.0
 10
1.143690321180556
 20
2.133273654513889
 30
0.0
 10
1.144856770833333
 20
2.133436414930555
 30
0.0
 10
1.152689615885417
 20
2.134101019965278
 30
0.0
 10
1.173509385850694
 20
2.136271158854167
 30
0.0
 10
1.185499403211806
 20
2.15142822265625
 30
0.0
 10
1.189168294270833
 20
2.170586480034722
 30
0.0
 10
1.189168294270833
 20
2.170586480034722
 30
0.0
 10
1.188666449652778
 20
2.170749240451389
 30
0.0
 10
1.188666449652778
 20
2.170749240451389
 30
0.0
 10
1.183336046006944
 20
2.164754231770833
 30
0.0
 10
1.175509982638889
 20
2.160922580295139
 30
0.0
 10
1.165011935763889
 20
2.160922580295139
 30
0.0
 10
1.145521375868056
 20
2.160922580295139
 30
0.0
 10
1.130201551649306
 20
2.175747341579861
 30
0.0
 10
1.130201551649306
 20
2.199232313368055
 30
0.0
 10
1.130201551649306
 20
2.222724066840278
 30
0.0
 10
1.146525065104167
 20
2.243876139322917
 30
0.0
 10
1.172173394097222
 20
2.243876139322917
 30
0.0
 10
1.199659559461806
 20
2.243876139322917
 30
0.0
 10
1.213819715711806
 20
2.22088623046875
 30
0.0
 10
1.213819715711806
 20
2.190741644965278
 30
0.0
 10
1.213819715711806
 20
2.1470947265625
 30
0.0
 10
1.191168891059028
 20
2.111952039930555
 30
0.0
 10
1.140530056423611
 20
2.114278157552083
 30
0.0
 10
1.140530056423611
 20
2.114278157552083
 30
0.0
 10
1.140530056423611
 20
2.13360595703125
 30
0.0
 10
1.140530056423611
 20
2.13360595703125
 30
0.0
  0
SPLINE
  5
82
330
1F
100
AcDbEntity
  8
____2
100
AcDbSpline
210
0.0
220
0.0
230
1.0
 70
    11
 71
     3
 72
    20
 73
    16
 74
     0
 42
0.0000000001
 43
0.0000000001
 40
0.0
 40
0.0
 40
0.0
 40
0.0
 40
1.0
 40
1.0
 40
1.0
 40
2.0
 40
2.0
 40
2.0
 40
3.0
 40
3.0
 40
3.0
 40
4.0
 40
4.0
 40
4.0
 40
5.0
 40
5.0
 40
5.0
 40
5.0
 10
1.154683430989583
 20
2.201402452256944
 30
0.0
 10
1.154683430989583
 20
2.186577690972222
 30
0.0
 10
1.16168212890625
 20
2.177578396267361
 30
0.0
 10
1.171678331163194
 20
2.177578396267361
 30
0.0
 10
1.179172092013889
 20
2.177578396267361
 30
0.0
 10
1.184834798177083
 20
2.182244194878472
 30
0.0
 10
1.1875
 20
2.18707275390625
 30
0.0
 10
1.188503689236111
 20
2.18890380859375
 30
0.0
 10
1.188835991753472
 20
2.19140625
 30
0.0
 10
1.188835991753472
 20
2.196234809027778
 30
0.0
 10
1.188835991753472
 20
2.213060167100694
 30
0.0
 10
1.183173285590278
 20
2.226386176215278
 30
0.0
 10
1.171346028645833
 20
2.226386176215278
 30
0.0
 10
1.161349826388889
 20
2.226386176215278
 30
0.0
 10
1.154683430989583
 20
2.215725368923611
 30
0.0
 10
1.154683430989583
 20
2.201402452256944
 30
0.0
  0
SPLINE
  5
83
330
1F
100
AcDbEntity
  8
____2
100
AcDbSpline
210
0.0
220
0.0
230
1.0
 70
    11
 71
     3
 72
    47
 73
    43
 74
     0
 42
0.0000000001
 43
0.0000000001
 40
0.0
 40
0.0
 40
0.0
 40
0.0
 40
1.0
 40
1.0
 40
1.0
 40
2.0
 40
2.0
 40
2.0
 40
3.0
 40
3.0
 40
3.0
 40
4.0
 40
4.0
 40
4.0
 40
5.0
 40
5.0
 40
5.0
 40
6.0
 40
6.0
 40
6.0
 40
7.0
 40
7.0
 40
7.0
 40
8.0
 40
8.0
 40
8.0
 40
9.0
 40
9.0
 40
9.0
 40
10.0
 40
10.0
 40
10.0
 40
11.0
 40
11.0
 40
11.0
 40
12.0
 40
12.0
 40
12.0
 40
13.0
 40
13.0
 40
13.0
 40
14.0
 40
14.0
 40
14.0
 40
14.0
 10
1.24102783203125
 20
2.242045084635417
 30
0.0
 10
1.24102783203125
 20
2.242045084635417
 30
0.0
 10
1.30133056640625
 20
2.242045084635417
 30
0.0
 10
1.30133056640625
 20
2.242045084635417
 30
0.0
 10
1.30133056640625
 20
2.242045084635417
 30
0.0
 10
1.30133056640625
 20
2.221720377604167
 30
0.0
 10
1.30133056640625
 20
2.221720377604167
 30
0.0
 10
1.30133056640625
 20
2.221720377604167
 30
0.0
 10
1.258517795138889
 20
2.221720377604167
 30
0.0
 10
1.258517795138889
 20
2.221720377604167
 30
0.0
 10
1.258517795138889
 20
2.221720377604167
 30
0.0
 10
1.25518798828125
 20
2.197068956163194
 30
0.0
 10
1.25518798828125
 20
2.197068956163194
 30
0.0
 10
1.257520887586806
 20
2.197401258680555
 30
0.0
 10
1.259514702690972
 20
2.19757080078125
 30
0.0
 10
1.262179904513889
 20
2.19757080078125
 30
0.0
 10
1.284172905815972
 20
2.19757080078125
 30
0.0
 10
1.304823133680556
 20
2.18524169921875
 30
0.0
 10
1.304823133680556
 20
2.158087836371528
 30
0.0
 10
1.304823133680556
 20
2.133938259548611
 30
0.0
 10
1.286336263020833
 20
2.114115397135417
 30
0.0
 10
1.256686740451389
 20
2.114115397135417
 30
0.0
 10
1.244194878472222
 20
2.114115397135417
 30
0.0
 10
1.232862684461806
 20
2.117282443576389
 30
0.0
 10
1.226704915364583
 20
2.120612250434028
 30
0.0
 10
1.226704915364583
 20
2.120612250434028
 30
0.0
 10
1.231533474392361
 20
2.139268663194444
 30
0.0
 10
1.231533474392361
 20
2.139268663194444
 30
0.0
 10
1.236531575520833
 20
2.136603461371528
 30
0.0
 10
1.245693630642361
 20
2.133436414930555
 30
0.0
 10
1.255350748697917
 20
2.133436414930555
 30
0.0
 10
1.268181694878472
 20
2.133436414930555
 30
0.0
 10
1.280008951822917
 20
2.1416015625
 30
0.0
 10
1.280008951822917
 20
2.156094021267361
 30
0.0
 10
1.280008951822917
 20
2.171251085069444
 30
0.0
 10
1.268846299913194
 20
2.179741753472222
 30
0.0
 10
1.247524685329861
 20
2.179741753472222
 30
0.0
 10
1.241861979166667
 20
2.179741753472222
 30
0.0
 10
1.237528483072917
 20
2.179409450954861
 30
0.0
 10
1.233364529079861
 20
2.178914388020833
 30
0.0
 10
1.233364529079861
 20
2.178914388020833
 30
0.0
 10
1.24102783203125
 20
2.242045084635417
 30
0.0
 10
1.24102783203125
 20
2.242045084635417
 30
0.0
  0
POLYLINE
  5
84
330
1F
100
AcDbEntity
  8
____2
100
AcDb2dPolyline
 66
     1
 10
0.0
 20
0.0
 30
0.0
  0
VERTEX
  5
85
330
84
100
AcDbEntity
  8
____2
100
AcDbVertex
100
AcDb2dVertex
 10
1.380337185329861
 20
2.115946451822917
 30
0.0
  0
VERTEX
  5
86
330
84
100
AcDbEntity
  8
____2
100
AcDbVertex
100
AcDb2dVertex
 10
1.356343587239583
 20
2.115946451822917
 30
0.0
  0
VERTEX
  5
87
330
84
100
AcDbEntity
  8
____2
100
AcDbVertex
100
AcDb2dVertex
 10
1.356343587239583
 20
2.219889322916667
 30
0.0
  0
VERTEX
  5
88
330
84
100
AcDbEntity
  8
____2
100
AcDbVertex
100
AcDb2dVertex
 10
1.356011284722222
 20
2.219889322916667
 30
0.0
  0
VERTEX
  5
89
330
84
100
AcDbEntity
  8
____2
100
AcDbVertex
100
AcDb2dVertex
 10
1.334357367621528
 20
2.208563910590278
 30
0.0
  0
VERTEX
  5
8A
330
84
100
AcDbEntity
  8
____2
100
AcDbVertex
100
AcDb2dVertex
 10
1.329026963975694
 20
2.226216634114583
 30
0.0
  0
VERTEX
  5
8B
330
84
100
AcDbEntity
  8
____2
100
AcDbVertex
100
AcDb2dVertex
 10
1.35968017578125
 20
2.241875542534722
 30
0.0
  0
VERTEX
  5
8C
330
84
100
AcDbEntity
  8
____2
100
AcDbVertex
100
AcDb2dVertex
 10
1.380337185329861
 20
2.241875542534722
 30
0.0
  0
VERTEX
  5
8D
330
84
100
AcDbEntity
  8
____2
100
AcDbVertex
100
AcDb2dVertex
 10
1.380337185329861
 20
2.115946451822917
 30
0.0
  0
SEQEND
  5
8E
330
84
100
AcDbEntity
  8
____2
  0
SPLINE
  5
8F
330
1F
100
AcDbEntity
  8
____2
100
AcDbSpline
210
0.0
220
0.0
230
1.0
 70
    11
 71
     3
 72
    35
 73
    31
 74
     0
 42
0.0000000001
 43
0.0000000001
 40
0.0
 40
0.0
 40
0.0
 40
0.0
 40
1.0
 40
1.0
 40
1.0
 40
2.0
 40
2.0
 40
2.0
 40
3.0
 40
3.0
 40
3.0
 40
4.0
 40
4.0
 40
4.0
 40
5.0
 40
5.0
 40
5.0
 40
6.0
 40
6.0
 40
6.0
 40
7.0
 40
7.0
 40
7.0
 40
8.0
 40
8.0
 40
8.0
 40
9.0
 40
9.0
 40
9.0
 40
10.0
 40
10.0
 40
10.0
 40
10.0
 10
1.477498372395833
 20
2.183573404947917
 30
0.0
 10
1.489820692274306
 20
2.177910698784722
 30
0.0
 10
1.499986436631944
 20
2.167087131076389
 30
0.0
 10
1.499986436631944
 20
2.15142822265625
 30
0.0
 10
1.499986436631944
 20
2.128940158420139
 30
0.0
 10
1.482326931423611
 20
2.114115397135417
 30
0.0
 10
1.457343207465278
 20
2.114115397135417
 30
0.0
 10
1.430521647135417
 20
2.114115397135417
 30
0.0
 10
1.41619873046875
 20
2.130601671006944
 30
0.0
 10
1.41619873046875
 20
2.148593478732639
 30
0.0
 10
1.41619873046875
 20
2.164089626736111
 30
0.0
 10
1.425360785590278
 20
2.175245496961805
 30
0.0
 10
1.438015407986111
 20
2.18157958984375
 30
0.0
 10
1.438015407986111
 20
2.18157958984375
 30
0.0
 10
1.438015407986111
 20
2.182074652777778
 30
0.0
 10
1.438015407986111
 20
2.182074652777778
 30
0.0
 10
1.426357693142361
 20
2.188571506076389
 30
0.0
 10
1.420193142361111
 20
2.199069552951389
 30
0.0
 10
1.420193142361111
 20
2.209730360243055
 30
0.0
 10
1.420193142361111
 20
2.230550130208333
 30
0.0
 10
1.437350802951389
 20
2.243876139322917
 30
0.0
 10
1.459174262152778
 20
2.243876139322917
 30
0.0
 10
1.484157986111111
 20
2.243876139322917
 30
0.0
 10
1.495985243055556
 20
2.228054470486111
 30
0.0
 10
1.495985243055556
 20
2.212226019965278
 30
0.0
 10
1.495985243055556
 20
2.202067057291667
 30
0.0
 10
1.490322536892361
 20
2.190904405381944
 30
0.0
 10
1.477498372395833
 20
2.183905707465278
 30
0.0
 10
1.477498372395833
 20
2.183905707465278
 30
0.0
 10
1.477498372395833
 20
2.183573404947917
 30
0.0
 10
1.477498372395833
 20
2.183573404947917
 30
0.0
  0
SPLINE
  5
90
330
1F
100
AcDbEntity
  8
____2
100
AcDbSpline
210
0.0
220
0.0
230
1.0
 70
    11
 71
     3
 72
    17
 73
    13
 74
     0
 42
0.0000000001
 43
0.0000000001
 40
0.0
 40
0.0
 40
0.0
 40
0.0
 40
1.0
 40
1.0
 40
1.0
 40
2.0
 40
2.0
 40
2.0
 40
3.0
 40
3.0
 40
3.0
 40
4.0
 40
4.0
 40
4.0
 40
4.0
 10
1.475328233506944
 20
2.149427625868055
 30
0.0
 10
1.475328233506944
 20
2.161756727430555
 30
0.0
 10
1.467000325520833
 20
2.169582790798611
 30
0.0
 10
1.456007215711806
 20
2.173244900173611
 30
0.0
 10
1.446512858072917
 20
2.169752332899305
 30
0.0
 10
1.440850151909722
 20
2.160922580295139
 30
0.0
 10
1.440850151909722
 20
2.150926378038194
 30
0.0
 10
1.440850151909722
 20
2.140265570746528
 30
0.0
 10
1.447347005208333
 20
2.130940755208333
 30
0.0
 10
1.4580078125
 20
2.130940755208333
 30
0.0
 10
1.469170464409722
 20
2.130940755208333
 30
0.0
 10
1.475328233506944
 20
2.139600965711805
 30
0.0
 10
1.475328233506944
 20
2.149427625868055
 30
0.0
  0
SPLINE
  5
91
330
1F
100
AcDbEntity
  8
____2
100
AcDbSpline
210
0.0
220
0.0
230
1.0
 70
    11
 71
     3
 72
    17
 73
    13
 74
     0
 42
0.0000000001
 43
0.0000000001
 40
0.0
 40
0.0
 40
0.0
 40
0.0
 40
1.0
 40
1.0
 40
1.0
 40
2.0
 40
2.0
 40
2.0
 40
3.0
 40
3.0
 40
3.0
 40
4.0
 40
4.0
 40
4.0
 40
4.0
 10
1.443345811631944
 20
2.210896809895833
 30
0.0
 10
1.443345811631944
 20
2.20123291015625
 30
0.0
 10
1.450344509548611
 20
2.194566514756944
 30
0.0
 10
1.460171169704861
 20
2.190904405381944
 30
0.0
 10
1.467169867621528
 20
2.193739149305555
 30
0.0
 10
1.473002115885417
 20
2.201565212673611
 30
0.0
 10
1.473002115885417
 20
2.210062662760417
 30
0.0
 10
1.473002115885417
 20
2.218722873263889
 30
0.0
 10
1.468831380208333
 20
2.227383083767361
 30
0.0
 10
1.458340115017361
 20
2.227383083767361
 30
0.0
 10
1.447509765625
 20
2.227383083767361
 30
0.0
 10
1.443345811631944
 20
2.218892415364583
 30
0.0
 10
1.443345811631944
 20
2.210896809895833
 30
0.0
  0
SPLINE
  5
92
330
1F
100
AcDbEntity
  8
____2
100
AcDbSpline
210
0.0
220
0.0
230
1.0
 70
    11
 71
     3
 72
    32
 73
    28
 74
     0
 42
0.0000000001
 43
0.0000000001
 40
0.0
 40
0.0
 40
0.0
 40
0.0
 40
1.0
 40
1.0
 40
1.0
 40
2.0
 40
2.0
 40
2.0
 40
3.0
 40
3.0
 40
3.0
 40
4.0
 40
4.0
 40
4.0
 40
5.0
 40
5.0
 40
5.0
 40
6.0
 40
6.0
 40
6.0
 40
7.0
 40
7.0
 40
7.0
 40
8.0
 40
8.0
 40
8.0
 40
9.0
 40
9.0
 40
9.0
 40
9.0
 10
1.521864149305556
 20
2.13360595703125
 30
0.0
 10
1.5250244140625
 20
2.133273654513889
 30
0.0
 10
1.526190863715278
 20
2.133436414930555
 30
0.0
 10
1.534016927083333
 20
2.134101019965278
 30
0.0
 10
1.554850260416667
 20
2.136271158854167
 30
0.0
 10
1.566840277777778
 20
2.15142822265625
 30
0.0
 10
1.570502387152778
 20
2.170586480034722
 30
0.0
 10
1.570502387152778
 20
2.170586480034722
 30
0.0
 10
1.570000542534722
 20
2.170749240451389
 30
0.0
 10
1.570000542534722
 20
2.170749240451389
 30
0.0
 10
1.564670138888889
 20
2.164754231770833
 30
0.0
 10
1.556844075520833
 20
2.160922580295139
 30
0.0
 10
1.546346028645833
 20
2.160922580295139
 30
0.0
 10
1.52685546875
 20
2.160922580295139
 30
0.0
 10
1.51153564453125
 20
2.175747341579861
 30
0.0
 10
1.51153564453125
 20
2.199232313368055
 30
0.0
 10
1.51153564453125
 20
2.222724066840278
 30
0.0
 10
1.527859157986111
 20
2.243876139322917
 30
0.0
 10
1.553507486979167
 20
2.243876139322917
 30
0.0
 10
1.581000434027778
 20
2.243876139322917
 30
0.0
 10
1.595160590277778
 20
2.22088623046875
 30
0.0
 10
1.595160590277778
 20
2.190741644965278
 30
0.0
 10
1.595160590277778
 20
2.1470947265625
 30
0.0
 10
1.572509765625
 20
2.111952039930555
 30
0.0
 10
1.521864149305556
 20
2.114278157552083
 30
0.0
 10
1.521864149305556
 20
2.114278157552083
 30
0.0
 10
1.521864149305556
 20
2.13360595703125
 30
0.0
 10
1.521864149305556
 20
2.13360595703125
 30
0.0
  0
SPLINE
  5
93
330
1F
100
AcDbEntity
  8
____2
100
AcDbSpline
210
0.0
220
0.0
230
1.0
 70
    11
 71
     3
 72
    20
 73
    16
 74
     0
 42
0.0000000001
 43
0.0000000001
 40
0.0
 40
0.0
 40
0.0
 40
0.0
 40
1.0
 40
1.0
 40
1.0
 40
2.0
 40
2.0
 40
2.0
 40
3.0
 40
3.0
 40
3.0
 40
4.0
 40
4.0
 40
4.0
 40
5.0
 40
5.0
 40
5.0
 40
5.0
 10
1.536024305555556
 20
2.201402452256944
 30
0.0
 10
1.536024305555556
 20
2.186577690972222
 30
0.0
 10
1.543023003472222
 20
2.177578396267361
 30
0.0
 10
1.553005642361111
 20
2.177578396267361
 30
0.0
 10
1.560506184895833
 20
2.177578396267361
 30
0.0
 10
1.566162109375
 20
2.182244194878472
 30
0.0
 10
1.568834092881944
 20
2.18707275390625
 30
0.0
 10
1.569837782118055
 20
2.18890380859375
 30
0.0
 10
1.570176866319444
 20
2.19140625
 30
0.0
 10
1.570176866319444
 20
2.196234809027778
 30
0.0
 10
1.570176866319444
 20
2.213060167100694
 30
0.0
 10
1.564507378472222
 20
2.226386176215278
 30
0.0
 10
1.552680121527778
 20
2.226386176215278
 30
0.0
 10
1.542683919270833
 20
2.226386176215278
 30
0.0
 10
1.536024305555556
 20
2.215725368923611
 30
0.0
 10
1.536024305555556
 20
2.201402452256944
 30
0.0
  0
SPLINE
  5
94
330
1F
100
AcDbEntity
  8
____2
100
AcDbSpline
210
0.0
220
0.0
230
1.0
 70
    11
 71
     3
 72
    59
 73
    55
 74
     0
 42
0.0000000001
 43
0.0000000001
 40
0.0
 40
0.0
 40
0.0
 40
0.0
 40
1.0
 40
1.0
 40
1.0
 40
2.0
 40
2.0
 40
2.0
 40
3.0
 40
3.0
 40
3.0
 40
4.0
 40
4.0
 40
4.0
 40
5.0
 40
5.0
 40
5.0
 40
6.0
 40
6.0
 40
6.0
 40
7.0
 40
7.0
 40
7.0
 40
8.0
 40
8.0
 40
8.0
 40
9.0
 40
9.0
 40
9.0
 40
10.0
 40
10.0
 40
10.0
 40
11.0
 40
11.0
 40
11.0
 40
12.0
 40
12.0
 40
12.0
 40
13.0
 40
13.0
 40
13.0
 40
14.0
 40
14.0
 40
14.0
 40
15.0
 40
15.0
 40
15.0
 40
16.0
 40
16.0
 40
16.0
 40
17.0
 40
17.0
 40
17.0
 40
18.0
 40
18.0
 40
18.0
 40
18.0
 10
1.611518012152778
 20
2.235215928819444
 30
0.0
 10
1.618028428819444
 20
2.239542643229167
 30
0.0
 10
1.630859375
 20
2.243876139322917
 30
0.0
 10
1.644341362847222
 20
2.243876139322917
 30
0.0
 10
1.668497721354167
 20
2.243876139322917
 30
0.0
 10
1.68115234375
 20
2.229715983072917
 30
0.0
 10
1.68115234375
 20
2.213060167100694
 30
0.0
 10
1.68115234375
 20
2.200066460503472
 30
0.0
 10
1.673326280381944
 20
2.189236111111111
 30
0.0
 10
1.659505208333333
 20
2.184075249565972
 30
0.0
 10
1.659505208333333
 20
2.184075249565972
 30
0.0
 10
1.659505208333333
 20
2.183742947048611
 30
0.0
 10
1.659505208333333
 20
2.183742947048611
 30
0.0
 10
1.673502604166667
 20
2.180575900607639
 30
0.0
 10
1.685153537326389
 20
2.16925048828125
 30
0.0
 10
1.685153537326389
 20
2.152092827690972
 30
0.0
 10
1.685153537326389
 20
2.131103515625
 30
0.0
 10
1.668321397569444
 20
2.114115397135417
 30
0.0
 10
1.639010959201389
 20
2.114115397135417
 30
0.0
 10
1.625678168402778
 20
2.114115397135417
 30
0.0
 10
1.613688151041667
 20
2.11761474609375
 30
0.0
 10
1.607367621527778
 20
2.121778700086805
 30
0.0
 10
1.607367621527778
 20
2.121778700086805
 30
0.0
 10
1.612860785590278
 20
2.140435112847222
 30
0.0
 10
1.612860785590278
 20
2.140435112847222
 30
0.0
 10
1.617526584201389
 20
2.137437608506944
 30
0.0
 10
1.627685546875
 20
2.13360595703125
 30
0.0
 10
1.637342664930555
 20
2.13360595703125
 30
0.0
 10
1.652506510416667
 20
2.13360595703125
 30
0.0
 10
1.659993489583333
 20
2.142930772569444
 30
0.0
 10
1.659993489583333
 20
2.15325927734375
 30
0.0
 10
1.659993489583333
 20
2.16741943359375
 30
0.0
 10
1.647677951388889
 20
2.174079047309028
 30
0.0
 10
1.634182400173611
 20
2.174079047309028
 30
0.0
 10
1.634182400173611
 20
2.174079047309028
 30
0.0
 10
1.625678168402778
 20
2.174079047309028
 30
0.0
 10
1.625678168402778
 20
2.174079047309028
 30
0.0
 10
1.625678168402778
 20
2.174079047309028
 30
0.0
 10
1.625678168402778
 20
2.19140625
 30
0.0
 10
1.625678168402778
 20
2.19140625
 30
0.0
 10
1.625678168402778
 20
2.19140625
 30
0.0
 10
1.633680555555555
 20
2.19140625
 30
0.0
 10
1.633680555555555
 20
2.19140625
 30
0.0
 10
1.643500434027778
 20
2.19140625
 30
0.0
 10
1.656168619791667
 20
2.1968994140625
 30
0.0
 10
1.656168619791667
 20
2.209058973524305
 30
0.0
 10
1.656168619791667
 20
2.217888726128472
 30
0.0
 10
1.650336371527778
 20
2.224385579427083
 30
0.0
 10
1.638671875
 20
2.224385579427083
 30
0.0
 10
1.630018446180555
 20
2.224385579427083
 30
0.0
 10
1.621527777777778
 20
2.220553927951389
 30
0.0
 10
1.61669921875
 20
2.217556423611111
 30
0.0
 10
1.61669921875
 20
2.217556423611111
 30
0.0
 10
1.611518012152778
 20
2.235215928819444
 30
0.0
 10
1.611518012152778
 20
2.235215928819444
 30
0.0
  0
POLYLINE
  5
95
330
1F
100
AcDbEntity
  8
____2
100
AcDb2dPolyline
 66
     1
 10
0.0
 20
0.0
 30
0.0
  0
VERTEX
  5
96
330
95
100
AcDbEntity
  8
____2
100
AcDbVertex
100
AcDb2dVertex
 10
1.773654513888889
 20
2.1470947265625
 30
0.0
  0
VERTEX
  5
97
330
95
100
AcDbEntity
  8
____2
100
AcDbVertex
100
AcDb2dVertex
 10
1.773654513888889
 20
2.115946451822917
 30
0.0
  0
VERTEX
  5
98
330
95
100
AcDbEntity
  8
____2
100
AcDbVertex
100
AcDb2dVertex
 10
1.750840928819444
 20
2.115946451822917
 30
0.0
  0
VERTEX
  5
99
330
95
100
AcDbEntity
  8
____2
100
AcDbVertex
100
AcDb2dVertex
 10
1.750840928819444
 20
2.1470947265625
 30
0.0
  0
VERTEX
  5
9A
330
95
100
AcDbEntity
  8
____2
100
AcDbVertex
100
AcDb2dVertex
 10
1.700032552083333
 20
2.1470947265625
 30
0.0
  0
VERTEX
  5
9B
330
95
100
AcDbEntity
  8
____2
100
AcDbVertex
100
AcDb2dVertex
 10
1.700032552083333
 20
2.1630859375
 30
0.0
  0
VERTEX
  5
9C
330
95
100
AcDbEntity
  8
____2
100
AcDbVertex
100
AcDb2dVertex
 10
1.745836046006944
 20
2.241875542534722
 30
0.0
  0
VERTEX
  5
9D
330
95
100
AcDbEntity
  8
____2
100
AcDbVertex
100
AcDb2dVertex
 10
1.773654513888889
 20
2.241875542534722
 30
0.0
  0
VERTEX
  5
9E
330
95
100
AcDbEntity
  8
____2
100
AcDbVertex
100
AcDb2dVertex
 10
1.773654513888889
 20
2.165751139322917
 30
0.0
  0
VERTEX
  5
9F
330
95
100
AcDbEntity
  8
____2
100
AcDbVertex
100
AcDb2dVertex
 10
1.788140190972222
 20
2.165751139322917
 30
0.0
  0
VERTEX
  5
A0
330
95
100
AcDbEntity
  8
____2
100
AcDbVertex
100
AcDb2dVertex
 10
1.788140190972222
 20
2.1470947265625
 30
0.0
  0
VERTEX
  5
A1
330
95
100
AcDbEntity
  8
____2
100
AcDbVertex
100
AcDb2dVertex
 10
1.773654513888889
 20
2.1470947265625
 30
0.0
  0
SEQEND
  5
A2
330
95
100
AcDbEntity
  8
____2
  0
SPLINE
  5
A3
330
1F
100
AcDbEntity
  8
____2
100
AcDbSpline
210
0.0
220
0.0
230
1.0
 70
    11
 71
     3
 72
    26
 73
    22
 74
     0
 42
0.0000000001
 43
0.0000000001
 40
0.0
 40
0.0
 40
0.0
 40
0.0
 40
1.0
 40
1.0
 40
1.0
 40
2.0
 40
2.0
 40
2.0
 40
3.0
 40
3.0
 40
3.0
 40
4.0
 40
4.0
 40
4.0
 40
5.0
 40
5.0
 40
5.0
 40
6.0
 40
6.0
 40
6.0
 40
7.0
 40
7.0
 40
7.0
 40
7.0
 10
1.722018771701389
 20
2.166083441840278
 30
0.0
 10
1.722018771701389
 20
2.166083441840278
 30
0.0
 10
1.722018771701389
 20
2.165751139322917
 30
0.0
 10
1.722018771701389
 20
2.165751139322917
 30
0.0
 10
1.722018771701389
 20
2.165751139322917
 30
0.0
 10
1.750840928819444
 20
2.165751139322917
 30
0.0
 10
1.750840928819444
 20
2.165751139322917
 30
0.0
 10
1.750840928819444
 20
2.165751139322917
 30
0.0
 10
1.750840928819444
 20
2.197068956163194
 30
0.0
 10
1.750840928819444
 20
2.197068956163194
 30
0.0
 10
1.750840928819444
 20
2.204399956597222
 30
0.0
 10
1.751329210069444
 20
2.212395562065972
 30
0.0
 10
1.7518310546875
 20
2.219889322916667
 30
0.0
 10
1.7518310546875
 20
2.219889322916667
 30
0.0
 10
1.751166449652778
 20
2.219889322916667
 30
0.0
 10
1.751166449652778
 20
2.219889322916667
 30
0.0
 10
1.747341579861111
 20
2.211893717447917
 30
0.0
 10
1.744330512152778
 20
2.20489501953125
 30
0.0
 10
1.740505642361111
 20
2.197733561197917
 30
0.0
 10
1.740505642361111
 20
2.197733561197917
 30
0.0
 10
1.722018771701389
 20
2.166083441840278
 30
0.0
 10
1.722018771701389
 20
2.166083441840278
 30
0.0
  0
POLYLINE
  5
A4
330
1F
100
AcDbEntity
  8
____2
100
AcDb2dPolyline
 66
     1
 10
0.0
 20
0.0
 30
0.0
  0
VERTEX
  5
A5
330
A4
100
AcDbEntity
  8
____2
100
AcDbVertex
100
AcDb2dVertex
 10
1.868977864583333
 20
2.1470947265625
 30
0.0
  0
VERTEX
  5
A6
330
A4
100
AcDbEntity
  8
____2
100
AcDbVertex
100
AcDb2dVertex
 10
1.868977864583333
 20
2.115946451822917
 30
0.0
  0
VERTEX
  5
A7
330
A4
100
AcDbEntity
  8
____2
100
AcDbVertex
100
AcDb2dVertex
 10
1.846164279513889
 20
2.115946451822917
 30
0.0
  0
VERTEX
  5
A8
330
A4
100
AcDbEntity
  8
____2
100
AcDbVertex
100
AcDb2dVertex
 10
1.846164279513889
 20
2.1470947265625
 30
0.0
  0
VERTEX
  5
A9
330
A4
100
AcDbEntity
  8
____2
100
AcDbVertex
100
AcDb2dVertex
 10
1.795355902777778
 20
2.1470947265625
 30
0.0
  0
VERTEX
  5
AA
330
A4
100
AcDbEntity
  8
____2
100
AcDbVertex
100
AcDb2dVertex
 10
1.795355902777778
 20
2.1630859375
 30
0.0
  0
VERTEX
  5
AB
330
A4
100
AcDbEntity
  8
____2
100
AcDbVertex
100
AcDb2dVertex
 10
1.841172960069444
 20
2.241875542534722
 30
0.0
  0
VERTEX
  5
AC
330
A4
100
AcDbEntity
  8
____2
100
AcDbVertex
100
AcDb2dVertex
 10
1.868977864583333
 20
2.241875542534722
 30
0.0
  0
VERTEX
  5
AD
330
A4
100
AcDbEntity
  8
____2
100
AcDbVertex
100
AcDb2dVertex
 10
1.868977864583333
 20
2.165751139322917
 30
0.0
  0
VERTEX
  5
AE
330
A4
100
AcDbEntity
  8
____2
100
AcDbVertex
100
AcDb2dVertex
 10
1.883477105034722
 20
2.165751139322917
 30
0.0
  0
VERTEX
  5
AF
330
A4
100
AcDbEntity
  8
____2
100
AcDbVertex
100
AcDb2dVertex
 10
1.883477105034722
 20
2.1470947265625
 30
0.0
  0
VERTEX
  5
B0
330
A4
100
AcDbEntity
  8
____2
100
AcDbVertex
100
AcDb2dVertex
 10
1.868977864583333
 20
2.1470947265625
 30
0.0
  0
SEQEND
  5
B1
330
A4
100
AcDbEntity
  8
____2
  0
SPLINE
  5
B2
330
1F
100
AcDbEntity
  8
____2
100
AcDbSpline
210
0.0
220
0.0
230
1.0
 70
    11
 71
     3
 72
    26
 73
    22
 74
     0
 42
0.0000000001
 43
0.0000000001
 40
0.0
 40
0.0
 40
0.0
 40
0.0
 40
1.0
 40
1.0
 40
1.0
 40
2.0
 40
2.0
 40
2.0
 40
3.0
 40
3.0
 40
3.0
 40
4.0
 40
4.0
 40
4.0
 40
5.0
 40
5.0
 40
5.0
 40
6.0
 40
6.0
 40
6.0
 40
7.0
 40
7.0
 40
7.0
 40
7.0
 10
1.817355685763889
 20
2.166083441840278
 30
0.0
 10
1.817355685763889
 20
2.166083441840278
 30
0.0
 10
1.817355685763889
 20
2.165751139322917
 30
0.0
 10
1.817355685763889
 20
2.165751139322917
 30
0.0
 10
1.817355685763889
 20
2.165751139322917
 30
0.0
 10
1.846164279513889
 20
2.165751139322917
 30
0.0
 10
1.846164279513889
 20
2.165751139322917
 30
0.0
 10
1.846164279513889
 20
2.165751139322917
 30
0.0
 10
1.846164279513889
 20
2.197068956163194
 30
0.0
 10
1.846164279513889
 20
2.197068956163194
 30
0.0
 10
1.846164279513889
 20
2.204399956597222
 30
0.0
 10
1.846666124131944
 20
2.212395562065972
 30
0.0
 10
1.84716796875
 20
2.219889322916667
 30
0.0
 10
1.84716796875
 20
2.219889322916667
 30
0.0
 10
1.846489800347222
 20
2.219889322916667
 30
0.0
 10
1.846489800347222
 20
2.219889322916667
 30
0.0
 10
1.842664930555555
 20
2.211893717447917
 30
0.0
 10
1.839667426215278
 20
2.20489501953125
 30
0.0
 10
1.835828993055555
 20
2.197733561197917
 30
0.0
 10
1.835828993055555
 20
2.197733561197917
 30
0.0
 10
1.817355685763889
 20
2.166083441840278
 30
0.0
 10
1.817355685763889
 20
2.166083441840278
 30
0.0
  0
ENDSEC
  0
SECTION
  2
OBJECTS
  0
DICTIONARY
  5
C
330
0
100
AcDbDictionary
  3
ACAD_GROUP
350
D
  3
ACAD_LAYOUT
350
1A
  3
ACAD_MLINESTYLE
350
17
  3
ACAD_PLOTSETTINGS
350
19
  3
ACAD_TABLESTYLE
350
D3
  3
ACAD_VISUALSTYLE
350
2A
  3
ACDBHEADERROUNDTRIPXREC
350
B3
  0
DICTIONARY
  5
D
102
{ACAD_REACTORS
330
C
102
}
330
C
100
AcDbDictionary
  0
DICTIONARY
  5
1A
102
{ACAD_REACTORS
330
C
102
}
330
C
100
AcDbDictionary
  0
DICTIONARY
  5
17
102
{ACAD_REACTORS
330
C
102
}
330
C
100
AcDbDictionary
  3
STANDARD
350
18
  0
DICTIONARY
  5
19
102
{ACAD_REACTORS
330
C
102
}
330
C
100
AcDbDictionary
  0
DICTIONARY
  5
D3
102
{ACAD_REACTORS
330
C
102
}
330
C
100
AcDbDictionary
  0
DICTIONARY
  5
2A
102
{ACAD_REACTORS
330
C
102
}
330
C
100
AcDbDictionary
  3
2DWIREFRAME
350
2F
  3
3DWIREFRAME
350
30
  3
3D_HIDDEN
350
31
  3
BASIC
350
32
  3
BRIGHTEN
350
36
  3
COLORCHANGE
350
3A
  3
CONCEPTUAL
350
34
  3
DIM
350
35
  3
FACEPATTERN
350
39
  3
FLAT
350
2B
  3
FLATWITHEDGES
350
2C
  3
GOURAUD
350
2D
  3
GOURAUDWITHEDGES
350
2E
  3
LINEPATTERN
350
38
  3
REALISTIC
350
33
  3
THICKEN
350
37
  0
DICTIONARY
  5
B3
102
{ACAD_REACTORS
330
C
102
}
330
C
100
AcDbDictionary
  3
CEPSNTYPE
350
BC
  3
DIMSTYLEDATA
350
D2
  3
FINGERPRINTGUID
350
BD
  3
HYPERLINKBASE
350
B6
  3
INSUNITS
350
BB
  3
LAYOUTDICT
350
B8
  3
LWETCUNION
350
BA
  3
PLOTSETDICT
350
B9
  3
PSVPSCALE
350
BF
  3
PUCSBASE
350
C2
  3
PUCSORGBACK
350
C8
  3
PUCSORGBOTTOM
350
C4
  3
PUCSORGFRONT
350
C7
  3
PUCSORGLEFT
350
C5
  3
PUCSORGRIGHT
350
C6
  3
PUCSORGTOP
350
C3
  3
PUCSORTHOREF
350
C0
  3
PUCSORTHOVIEW
350
C1
  3
STYLESHEET
350
B7
  3
TSTACKALIGN
350
B4
  3
TSTACKSIZE
350
B5
  3
UCSBASE
350
CB
  3
UCSORGBACK
350
D1
  3
UCSORGBOTTOM
350
CD
  3
UCSORGFRONT
350
D0
  3
UCSORGLEFT
350
CE
  3
UCSORGRIGHT
350
CF
  3
UCSORGTOP
350
CC
  3
UCSORTHOREF
350
C9
  3
UCSORTHOVIEW
350
CA
  3
VERSIONGUID
350
BE
  0
MLINESTYLE
  5
18
102
{ACAD_REACTORS
330
17
102
}
330
17
100
AcDbMlineStyle
  2
Standard
 70
     0
  3

 62
   256
 51
90.0
 52
90.0
 71
     2
 49
0.5
 62
   256
  6
BYLAYER
 49
-0.5
 62
   256
  6
BYLAYER
  0
VISUALSTYLE
  5
2F
102
{ACAD_REACTORS
330
2A
102
}
330
2A
100
AcDbVisualStyle
  2
2dWireframe
 70
     4
 71
     0
 72
     2
 73
     0
 90
        0
 40
-0.6
 41
-30.0
 62
     5
 63
     7
 74
     1
 91
        4
 64
     7
 65
   257
 75
     1
175
     1
 42
1.0
 92
        0
 66
   257
 43
1.0
 76
     1
 77
     6
 78
     2
 67
     7
 79
     5
170
     0
171
     0
290
     0
174
     0
 93
        1
 44
0.0
173
     0
291
     0
 45
0.0
1001
ACAD
1000
AcDbSavedByObjectVersion
1070
     0
  0
VISUALSTYLE
  5
30
102
{ACAD_REACTORS
330
2A
102
}
330
2A
100
AcDbVisualStyle
  2
3dWireframe
 70
     5
 71
     0
 72
     2
 73
     0
 90
        0
 40
-0.6
 41
-30.0
 62
     5
 63
     7
 74
     1
 91
        4
 64
     7
 65
   257
 75
     1
175
     1
 42
1.0
 92
        0
 66
   257
 43
1.0
 76
     1
 77
     6
 78
     2
 67
     7
 79
     5
170
     0
171
     0
290
     0
174
     0
 93
        1
 44
0.0
173
     0
291
     0
 45
0.0
1001
ACAD
1000
AcDbSavedByObjectVersion
1070
     0
  0
VISUALSTYLE
  5
31
102
{ACAD_REACTORS
330
2A
102
}
330
2A
100
AcDbVisualStyle
  2
3D Hidden
 70
     6
 71
     1
 72
     2
 73
     2
 90
        0
 40
-0.6
 41
-30.0
 62
     5
 63
     7
 74
     2
 91
        2
 64
     7
 65
   257
 75
     2
175
     1
 42
40.0
 92
        0
 66
   257
 43
1.0
 76
     1
 77
     6
 78
     2
 67
     7
 79
     3
170
     0
171
     0
290
     0
174
     0
 93
        1
 44
0.0
173
     0
291
     0
 45
0.0
1001
ACAD
1000
AcDbSavedByObjectVersion
1070
     0
  0
VISUALSTYLE
  5
32
102
{ACAD_REACTORS
330
2A
102
}
330
2A
100
AcDbVisualStyle
  2
Basic
 70
     7
 71
     1
 72
     0
 73
     1
 90
        0
 40
-0.6
 41
-30.0
 62
     5
 63
     7
 74
     0
 91
        4
 64
     7
 65
   257
 75
     1
175
     1
 42
1.0
 92
        8
 66
     7
 43
1.0
 76
     1
 77
     6
 78
     2
 67
     7
 79
     5
170
     0
171
     0
290
     0
174
     0
 93
        1
 44
0.0
173
     0
291
     1
 45
0.0
1001
ACAD
1000
AcDbSavedByObjectVersion
1070
     0
  0
VISUALSTYLE
  5
36
102
{ACAD_REACTORS
330
2A
102
}
330
2A
100
AcDbVisualStyle
  2
Brighten
 70
    12
 71
     2
 72
     2
 73
     0
 90
        0
 40
-0.6
 41
-30.0
 62
     5
 63
     7
 74
     1
 91
        4
 64
     7
 65
   257
 75
     1
175
     1
 42
1.0
 92
        8
 66
     7
 43
1.0
 76
     1
 77
     6
 78
     2
 67
     7
 79
     5
170
     0
171
     0
290
     0
174
     0
 93
        1
 44
50.0
173
     0
291
     1
 45
0.0
1001
ACAD
1000
AcDbSavedByObjectVersion
1070
     0
  0
VISUALSTYLE
  5
3A
102
{ACAD_REACTORS
330
2A
102
}
330
2A
100
AcDbVisualStyle
  2
ColorChange
 70
    16
 71
     2
 72
     2
 73
     3
 90
        0
 40
-0.6
 41
-30.0
 62
     5
 63
     8
 74
     1
 91
        4
 64
     7
 65
   257
 75
     1
175
     1
 42
1.0
 92
        8
 66
     8
 43
1.0
 76
     1
 77
     6
 78
     2
 67
     7
 79
     5
170
     0
171
     0
290
     0
174
     0
 93
        1
 44
0.0
173
     0
291
     1
 45
0.0
1001
ACAD
1000
AcDbSavedByObjectVersion
1070
     0
  0
VISUALSTYLE
  5
34
102
{ACAD_REACTORS
330
2A
102
}
330
2A
100
AcDbVisualStyle
  2
Conceptual
 70
     9
 71
     3
 72
     2
 73
     0
 90
        0
 40
-0.6
 41
-30.0
 62
     5
 63
     7
 74
     2
 91
        2
 64
     7
 65
   257
 75
     1
175
     1
 42
40.0
 92
        8
 66
     7
 43
1.0
 76
     1
 77
     6
 78
     2
 67
     7
 79
     3
170
     0
171
     0
290
     0
174
     0
 93
        1
 44
0.0
173
     0
291
     0
 45
0.0
1001
ACAD
1000
AcDbSavedByObjectVersion
1070
     0
  0
VISUALSTYLE
  5
35
102
{ACAD_REACTORS
330
2A
102
}
330
2A
100
AcDbVisualStyle
  2
Dim
 70
    11
 71
     2
 72
     2
 73
     0
 90
        0
 40
-0.6
 41
-30.0
 62
     5
 63
     7
 74
     1
 91
        4
 64
     7
 65
   257
 75
     1
175
     1
 42
1.0
 92
        8
 66
     7
 43
1.0
 76
     1
 77
     6
 78
     2
 67
     7
 79
     5
170
     0
171
     0
290
     0
174
     0
 93
        1
 44
-50.0
173
     0
291
     1
 45
0.0
1001
ACAD
1000
AcDbSavedByObjectVersion
1070
     0
  0
VISUALSTYLE
  5
39
102
{ACAD_REACTORS
330
2A
102
}
330
2A
100
AcDbVisualStyle
  2
Facepattern
 70
    15
 71
     2
 72
     2
 73
     0
 90
        0
 40
-0.6
 41
-30.0
 62
     5
 63
     7
 74
     1
 91
        4
 64
     7
 65
   257
 75
     1
175
     1
 42
1.0
 92
        8
 66
     7
 43
1.0
 76
     1
 77
     6
 78
     2
 67
     7
 79
     5
170
     0
171
     0
290
     0
174
     0
 93
        1
 44
0.0
173
     0
291
     1
 45
0.0
1001
ACAD
1000
AcDbSavedByObjectVersion
1070
     0
  0
VISUALSTYLE
  5
2B
102
{ACAD_REACTORS
330
2A
102
}
330
2A
100
AcDbVisualStyle
  2
Flat
 70
     0
 71
     2
 72
     1
 73
     1
 90
        2
 40
-0.6
 41
30.0
 62
     5
 63
     7
 74
     0
 91
        4
 64
     7
 65
   257
 75
     1
175
     1
 42
1.0
 92
        8
 66
     7
 43
1.0
 76
     1
 77
     6
 78
     2
 67
     7
 79
     5
170
     0
171
     0
290
     0
174
     0
 93
       13
 44
0.0
173
     0
291
     1
 45
0.0
1001
ACAD
1000
AcDbSavedByObjectVersion
1070
     0
  0
VISUALSTYLE
  5
2C
102
{ACAD_REACTORS
330
2A
102
}
330
2A
100
AcDbVisualStyle
  2
FlatWithEdges
 70
     1
 71
     2
 72
     1
 73
     1
 90
        2
 40
-0.6
 41
30.0
 62
     5
 63
     7
 74
     1
 91
        4
 64
     7
 65
   257
 75
     1
175
     1
 42
1.0
 92
        0
 66
   257
 43
1.0
 76
     1
 77
     6
 78
     2
 67
     7
 79
     5
170
     0
171
     0
290
     0
174
     0
 93
       13
 44
0.0
173
     0
291
     1
 45
0.0
1001
ACAD
1000
AcDbSavedByObjectVersion
1070
     0
  0
VISUALSTYLE
  5
2D
102
{ACAD_REACTORS
330
2A
102
}
330
2A
100
AcDbVisualStyle
  2
Gouraud
 70
     2
 71
     2
 72
     2
 73
     1
 90
        2
 40
-0.6
 41
30.0
 62
     5
 63
     7
 74
     0
 91
        4
 64
     7
 65
   257
 75
     1
175
     1
 42
1.0
 92
        0
 66
     7
 43
1.0
 76
     1
 77
     6
 78
     2
 67
     7
 79
     5
170
     0
171
     0
290
     0
174
     0
 93
       13
 44
0.0
173
     0
291
     1
 45
0.0
1001
ACAD
1000
AcDbSavedByObjectVersion
1070
     0
  0
VISUALSTYLE
  5
2E
102
{ACAD_REACTORS
330
2A
102
}
330
2A
100
AcDbVisualStyle
  2
GouraudWithEdges
 70
     3
 71
     2
 72
     2
 73
     1
 90
        2
 40
-0.6
 41
30.0
 62
     5
 63
     7
 74
     1
 91
        4
 64
     7
 65
   257
 75
     1
175
     1
 42
1.0
 92
        0
 66
   257
 43
1.0
 76
     1
 77
     6
 78
     2
 67
     7
 79
     5
170
     0
171
     0
290
     0
174
     0
 93
       13
 44
0.0
173
     0
291
     1
 45
0.0
1001
ACAD
1000
AcDbSavedByObjectVersion
1070
     0
  0
VISUALSTYLE
  5
38
102
{ACAD_REACTORS
330
2A
102
}
330
2A
100
AcDbVisualStyle
  2
Linepattern
 70
    14
 71
     2
 72
     2
 73
     0
 90
        0
 40
-0.6
 41
-30.0
 62
     5
 63
     7
 74
     1
 91
        4
 64
     7
 65
   257
 75
     7
175
     7
 42
1.0
 92
        8
 66
     7
 43
1.0
 76
     1
 77
     6
 78
     2
 67
     7
 79
     5
170
     0
171
     0
290
     0
174
     0
 93
        1
 44
0.0
173
     0
291
     1
 45
0.0
1001
ACAD
1000
AcDbSavedByObjectVersion
1070
     0
  0
VISUALSTYLE
  5
33
102
{ACAD_REACTORS
330
2A
102
}
330
2A
100
AcDbVisualStyle
  2
Realistic
 70
     8
 71
     2
 72
     2
 73
     0
 90
        0
 40
-0.6
 41
-30.0
 62
     5
 63
     7
 74
     1
 91
        0
 64
     7
 65
   257
 75
     1
175
     1
 42
1.0
 92
        8
 66
     8
 43
1.0
 76
     1
 77
     6
 78
     2
 67
     7
 79
     5
170
     0
171
     0
290
     0
174
     0
 93
       13
 44
0.0
173
     0
291
     0
 45
0.0
1001
ACAD
1000
AcDbSavedByObjectVersion
1070
     0
  0
VISUALSTYLE
  5
37
102
{ACAD_REACTORS
330
2A
102
}
330
2A
100
AcDbVisualStyle
  2
Thicken
 70
    13
 71
     2
 72
     2
 73
     0
 90
        0
 40
-0.6
 41
-30.0
 62
     5
 63
     7
 74
     1
 91
        4
 64
     7
 65
   257
 75
     1
175
     1
 42
1.0
 92
       12
 66
     7
 43
1.0
 76
     1
 77
     6
 78
     2
 67
     7
 79
     5
170
     0
171
     0
290
     0
174
     0
 93
        1
 44
0.0
173
     0
291
     1
 45
0.0
1001
ACAD
1000
AcDbSavedByObjectVersion
1070
     0
  0
XRECORD
  5
BC
102
{ACAD_REACTORS
330
B3
102
}
330
B3
100
AcDbXrecord
 90
        0
  0
XRECORD
  5
D2
102
{ACAD_REACTORS
330
B3
102
}
330
B3
100
AcDbXrecord
1000
DSTYLE
1002
{
1070
   340
340
11
1002
}
  0
XRECORD
  5
BD
102
{ACAD_REACTORS
330
B3
102
}
330
B3
100
AcDbXrecord
  1
{4DBA8882-4997-9463-9160-892BEF99B91B}
  0
XRECORD
  5
B6
102
{ACAD_REACTORS
330
B3
102
}
330
B3
100
AcDbXrecord
  1

  0
XRECORD
  5
BB
102
{ACAD_REACTORS
330
B3
102
}
330
B3
100
AcDbXrecord
 90
        1
  0
XRECORD
  5
B8
102
{ACAD_REACTORS
330
B3
102
}
330
B3
100
AcDbXrecord
340
1A
  0
XRECORD
  5
BA
102
{ACAD_REACTORS
330
B3
102
}
330
B3
100
AcDbXrecord
 90
    10269
  0
XRECORD
  5
B9
102
{ACAD_REACTORS
330
B3
102
}
330
B3
100
AcDbXrecord
340
19
  0
XRECORD
  5
BF
102
{ACAD_REACTORS
330
B3
102
}
330
B3
100
AcDbXrecord
 40
0.0
  0
XRECORD
  5
C2
102
{ACAD_REACTORS
330
B3
102
}
330
B3
100
AcDbXrecord
340
0
  0
XRECORD
  5
C8
102
{ACAD_REACTORS
330
B3
102
}
330
B3
100
AcDbXrecord
 10
0.0
 20
0.0
 30
0.0
  0
XRECORD
  5
C4
102
{ACAD_REACTORS
330
B3
102
}
330
B3
100
AcDbXrecord
 10
0.0
 20
0.0
 30
0.0
  0
XRECORD
  5
C7
102
{ACAD_REACTORS
330
B3
102
}
330
B3
100
AcDbXrecord
 10
0.0
 20
0.0
 30
0.0
  0
XRECORD
  5
C5
102
{ACAD_REACTORS
330
B3
102
}
330
B3
100
AcDbXrecord
 10
0.0
 20
0.0
 30
0.0
  0
XRECORD
  5
C6
102
{ACAD_REACTORS
330
B3
102
}
330
B3
100
AcDbXrecord
 10
0.0
 20
0.0
 30
0.0
  0
XRECORD
  5
C3
102
{ACAD_REACTORS
330
B3
102
}
330
B3
100
AcDbXrecord
 10
0.0
 20
0.0
 30
0.0
  0
XRECORD
  5
C0
102
{ACAD_REACTORS
330
B3
102
}
330
B3
100
AcDbXrecord
340
0
  0
XRECORD
  5
C1
102
{ACAD_REACTORS
330
B3
102
}
330
B3
100
AcDbXrecord
 70
     0
  0
XRECORD
  5
B7
102
{ACAD_REACTORS
330
B3
102
}
330
B3
100
AcDbXrecord
  1

  0
XRECORD
  5
B4
102
{ACAD_REACTORS
330
B3
102
}
330
B3
100
AcDbXrecord
 90
        1
  0
XRECORD
  5
B5
102
{ACAD_REACTORS
330
B3
102
}
330
B3
100
AcDbXrecord
 90
       70
  0
XRECORD
  5
CB
102
{ACAD_REACTORS
330
B3
102
}
330
B3
100
AcDbXrecord
340
0
  0
XRECORD
  5
D1
102
{ACAD_REACTORS
330
B3
102
}
330
B3
100
AcDbXrecord
 10
0.0
 20
0.0
 30
0.0
  0
XRECORD
  5
CD
102
{ACAD_REACTORS
330
B3
102
}
330
B3
100
AcDbXrecord
 10
0.0
 20
0.0
 30
0.0
  0
XRECORD
  5
D0
102
{ACAD_REACTORS
330
B3
102
}
330
B3
100
AcDbXrecord
 10
0.0
 20
0.0
 30
0.0
  0
XRECORD
  5
CE
102
{ACAD_REACTORS
330
B3
102
}
330
B3
100
AcDbXrecord
 10
0.0
 20
0.0
 30
0.0
  0
XRECORD
  5
CF
102
{ACAD_REACTORS
330
B3
102
}
330
B3
100
AcDbXrecord
 10
0.0
 20
0.0
 30
0.0
  0
XRECORD
  5
CC
102
{ACAD_REACTORS
330
B3
102
}
330
B3
100
AcDbXrecord
 10
0.0
 20
0.0
 30
0.0
  0
XRECORD
  5
C9
102
{ACAD_REACTORS
330
B3
102
}
330
B3
100
AcDbXrecord
340
0
  0
XRECORD
  5
CA
102
{ACAD_REACTORS
330
B3
102
}
330
B3
100
AcDbXrecord
 70
     0
  0
XRECORD
  5
BE
102
{ACAD_REACTORS
330
B3
102
}
330
B3
100
AcDbXrecord
  1
{FAEB1C32-E019-11D5-929B-00C0DF256EC4}
  0
ENDSEC
  0
EOF
